<?xml version="1.0" encoding="UTF-8" standalone="no"?>
<!-- Creator: CorelDRAW X5 -->

<svg
   xmlns:dc="http://purl.org/dc/elements/1.1/"
   xmlns:cc="http://creativecommons.org/ns#"
   xmlns:rdf="http://www.w3.org/1999/02/22-rdf-syntax-ns#"
   xmlns:svg="http://www.w3.org/2000/svg"
   xmlns="http://www.w3.org/2000/svg"
   xmlns:sodipodi="http://sodipodi.sourceforge.net/DTD/sodipodi-0.dtd"
   xmlns:inkscape="http://www.inkscape.org/namespaces/inkscape"
   xml:space="preserve"
   width="700px"
   height="700px"
   style="shape-rendering:geometricPrecision; text-rendering:geometricPrecision; image-rendering:optimizeQuality; fill-rule:evenodd; clip-rule:evenodd"
   viewBox="0 0 700 700"
   id="svg4136"
   version="1.1"
   inkscape:version="0.91 r13725"
   sodipodi:docname="кс инжиниринг Лого.svg"><metadata
     id="metadata4160"><rdf:RDF><cc:Work
         rdf:about=""><dc:format>image/svg+xml</dc:format><dc:type
           rdf:resource="http://purl.org/dc/dcmitype/StillImage" /><dc:title></dc:title></cc:Work></rdf:RDF></metadata><sodipodi:namedview
     pagecolor="#ffffff"
     bordercolor="#666666"
     borderopacity="1"
     objecttolerance="10"
     gridtolerance="10"
     guidetolerance="10"
     inkscape:pageopacity="0"
     inkscape:pageshadow="2"
     inkscape:window-width="1366"
     inkscape:window-height="705"
     id="namedview4158"
     showgrid="false"
     inkscape:zoom="0.56063466"
     inkscape:cx="-106.33335"
     inkscape:cy="217.5348"
     inkscape:window-x="-8"
     inkscape:window-y="248"
     inkscape:window-maximized="1"
     inkscape:current-layer="flowRoot4169" /><defs
     id="defs4138"><style
       type="text/css"
       id="style4140"><![CDATA[
    .fil0 {fill:#1F1A17}
   ]]></style></defs><polygon
     style="fill:#1f1a17"
     id="polygon4144"
     points="545.015,633.09 349.5,505.919 162.082,636.9 349.5,398.752 "
     class="fil0" /><path
     style="fill:#1f1a17"
     inkscape:connector-curvature="0"
     id="path4146"
     d="m 349.5,398.752 c 0,0 -0.47643,1.90881 313.156,-132.398 -158.603,43.8227 -236.713,44.7673 -313.871,42.8619 -77.1578,-1.90502 -230.996,-7.60182 -311.49,-37.15 312.206,126.686 312.206,126.686 312.206,126.686 z"
     class="fil0" /><path
     style="fill:#1f1a17"
     inkscape:connector-curvature="0"
     id="path4148"
     d="m 10.1421,261.201 c 69.0875,-98.7251 239.374,-218.257 332.495,-248.266 115.603,33.9962 289.122,164.266 347.265,242.953 1.67421,120.484 -66.4628,326.765 -124.459,405.566 -114.677,36.9825 -336.254,32.0043 -426.473,-2.67702 -70.3428,-97.8288 -131.271,-299.758 -128.83,-397.574 l 0.0024,-0.002 z m 26.2035,9.43484 c 66.1207,-82.8622 173.326,-171.36 307.7,-231.46 99.6229,36.2495 221.944,118.102 321.764,226.292 -5.19488,105.884 -42.5939,244.215 -116.461,371.548 -102.741,26.1277 -249.527,35.1488 -392.94,1.92879 -56.3524,-89.7929 -107.742,-221.617 -120.063,-368.31 l 0.0014,10e-4 z"
     class="fil0" /><path
     style="fill:#1f1a17"
     inkscape:connector-curvature="0"
     id="path4154"
     d="m 446.588,148.316 -7.17328,26.475 c -4.82421,-7.247 -10.0901,-9.8999 -20.4385,-12.7037 -10.3488,-2.80379 -31.4769,7.53465 -35.968,24.1107 -4.49109,16.5757 5.60689,34.8812 20.721,39.2231 15.1141,4.34158 21.7834,2.50236 27.0389,-1.63322 -6.75782,25.1683 0,0 -6.75782,25.1683 -9.27569,1.43169 -13.6696,1.23809 -27.9218,-2.8689 -14.2518,-4.10733 -48.3834,-27.073 -39.0429,-65.1937 9.3408,-38.1211 45.6223,-44.4772 66.2744,-39.6241 20.6521,4.85349 21.2694,6.18701 23.2681,7.04651 z"
     class="fil0" /><g
     transform="matrix(1.3659006,-0.35088391,0.39000576,1.4094946,381.37916,-73.048846)"
     style="font-style:normal;font-weight:normal;font-size:25px;line-height:125%;font-family:sans-serif;letter-spacing:0px;word-spacing:0px;fill:#000000;fill-opacity:1;stroke:none;stroke-width:1px;stroke-linecap:butt;stroke-linejoin:miter;stroke-opacity:1"
     id="flowRoot4169"><path
       d="m -142.71973,196.97219 0,-64.73145 20.61035,0 0,21.44532 18.63282,-21.44532 24.125974,0 c 0,0 -3.505164,1.24855 -7.357703,5.22561 -3.852539,3.97705 -15.757531,18.6367 -15.757531,18.6367 0,0 16.783622,28.76452 21.134208,35.57604 4.350585,6.81152 4.969307,5.2931 4.969307,5.2931 l -24.785155,0 -15.82031,-25.92774 -5.14161,5.31739 c 0,0 -0.96028,11.37663 -0.96028,14.81169 0,3.43505 0.96028,5.79866 0.96028,5.79866 z"
       style="font-style:normal;font-variant:normal;font-weight:normal;font-stretch:normal;font-size:90px;line-height:133.00000429%;font-family:'Swis721 Blk BT';-inkscape-font-specification:'Swis721 Blk BT'"
       id="path4178"
       inkscape:connector-curvature="0"
       sodipodi:nodetypes="cccccczczcccczcc" /><flowRoot
       xml:space="preserve"
       id="flowRoot4180"
       style="font-style:normal;font-weight:normal;font-size:25px;line-height:125%;font-family:sans-serif;letter-spacing:0px;word-spacing:0px;fill:#000000;fill-opacity:1;stroke:none;stroke-width:1px;stroke-linecap:butt;stroke-linejoin:miter;stroke-opacity:1"
       transform="matrix(1.8323194,0.45614321,-0.30049349,1.0524056,1207.038,88.375318)"><flowRegion
         id="flowRegion4182"><rect
           id="rect4184"
           width="469.11121"
           height="110.58895"
           x="-733.09772"
           y="387.85376" /></flowRegion><flowPara
         id="flowPara4186"
         style="font-style:normal;font-variant:normal;font-weight:normal;font-stretch:normal;font-family:Verdana;-inkscape-font-specification:Verdana">ИНЖИНИРИНГ</flowPara></flowRoot></g></svg>