<?xml version="1.0" encoding="UTF-8" standalone="no"?>
<!-- Created with Inkscape (http://www.inkscape.org/) -->

<svg
   xmlns:dc="http://purl.org/dc/elements/1.1/"
   xmlns:cc="http://creativecommons.org/ns#"
   xmlns:rdf="http://www.w3.org/1999/02/22-rdf-syntax-ns#"
   xmlns:svg="http://www.w3.org/2000/svg"
   xmlns="http://www.w3.org/2000/svg"
   xmlns:sodipodi="http://sodipodi.sourceforge.net/DTD/sodipodi-0.dtd"
   xmlns:inkscape="http://www.inkscape.org/namespaces/inkscape"
   sodipodi:docname="detail9_0.svg"
   inkscape:version="0.91 r13725"
   version="1.1"
   id="svg7206"
   viewBox="0 0 744.09448819 1052.3622047"
   height="297mm"
   width="210mm">
  <sodipodi:namedview
     showguides="true"
     inkscape:window-maximized="1"
     inkscape:window-y="-8"
     inkscape:window-x="1358"
     inkscape:window-height="961"
     inkscape:window-width="1280"
     showborder="false"
     showgrid="true"
     inkscape:current-layer="layer1"
     inkscape:document-units="px"
     inkscape:cy="16.416354"
     inkscape:cx="613.05124"
     inkscape:zoom="0.49497475"
     inkscape:pageshadow="2"
     inkscape:pageopacity="0.0"
     borderopacity="1.0"
     bordercolor="#666666"
     pagecolor="#ffffff"
     id="base" />
  <defs
     id="defs7208">
    <marker
       orient="auto"
       id="DistanceX"
       style="overflow:visible"
       refX="0.0"
       refY="0.0">
      <path
         id="path7761"
         d="M 3,-3 L -3,3 M 0,-5 L  0,5"
         style="stroke:#000000; stroke-width:0.5" />
    </marker>
    <pattern
       id="Hatch"
       x="0"
       y="0"
       patternUnits="userSpaceOnUse"
       width="8"
       height="8">
      <path
         id="path7764"
         d="M8 4 l-4,4"
         stroke-width="0.25"
         stroke="#000000"
         linecap="square" />
      <path
         id="path7766"
         d="M6 2 l-4,4"
         stroke-width="0.25"
         stroke="#000000"
         linecap="square" />
      <path
         id="path7768"
         d="M4 0 l-4,4"
         stroke-width="0.25"
         stroke="#000000"
         linecap="square" />
    </pattern>
    <symbol
       id="*Model_Space" />
    <symbol
       id="*Paper_Space" />
    <symbol
       id="*Paper_Space0" />
    <marker
       orient="auto"
       id="DistanceX-2"
       style="overflow:visible"
       refX="0.0"
       refY="0.0">
      <path
         id="path7913"
         d="M 3,-3 L -3,3 M 0,-5 L  0,5"
         style="stroke:#000000; stroke-width:0.5" />
    </marker>
    <pattern
       id="Hatch-6"
       x="0"
       y="0"
       patternUnits="userSpaceOnUse"
       width="8"
       height="8">
      <path
         id="path7916"
         d="M8 4 l-4,4"
         stroke-width="0.25"
         stroke="#000000"
         linecap="square" />
      <path
         id="path7918"
         d="M6 2 l-4,4"
         stroke-width="0.25"
         stroke="#000000"
         linecap="square" />
      <path
         id="path7920"
         d="M4 0 l-4,4"
         stroke-width="0.25"
         stroke="#000000"
         linecap="square" />
    </pattern>
    <symbol
       id="*Model_Space-4" />
    <symbol
       id="*Paper_Space-7" />
    <symbol
       id="*Paper_Space0-0" />
    <marker
       orient="auto"
       id="DistanceX-1"
       style="overflow:visible"
       refX="0.0"
       refY="0.0">
      <path
         id="path8071"
         d="M 3,-3 L -3,3 M 0,-5 L  0,5"
         style="stroke:#000000; stroke-width:0.5" />
    </marker>
    <pattern
       id="Hatch-5"
       x="0"
       y="0"
       patternUnits="userSpaceOnUse"
       width="8"
       height="8">
      <path
         id="path8074"
         d="M8 4 l-4,4"
         stroke-width="0.25"
         stroke="#000000"
         linecap="square" />
      <path
         id="path8076"
         d="M6 2 l-4,4"
         stroke-width="0.25"
         stroke="#000000"
         linecap="square" />
      <path
         id="path8078"
         d="M4 0 l-4,4"
         stroke-width="0.25"
         stroke="#000000"
         linecap="square" />
    </pattern>
    <symbol
       id="*Model_Space-1" />
    <symbol
       id="*Paper_Space-0" />
    <symbol
       id="*Paper_Space0-8" />
  </defs>
  <metadata
     id="metadata7211">
    <rdf:RDF>
      <cc:Work
         rdf:about="">
        <dc:format>image/svg+xml</dc:format>
        <dc:type
           rdf:resource="http://purl.org/dc/dcmitype/StillImage" />
        <dc:title />
      </cc:Work>
    </rdf:RDF>
  </metadata>
  <g
     inkscape:label="Layer 1"
     inkscape:groupmode="layer"
     id="layer1">
    <path
       style="fill:none;stroke:#000000;fill-opacity:1"
       d="M1082.9803 413.097667449C1082.9803 413.097667449 1082.9803 418.1069 1082.9803 418.1069C1082.9803 418.1069 939.47639 418.1069 939.47639 418.1069C939.47639 418.1069 939.47639 413.097667449 939.47639 413.097667449"
       id="path8352" />
    <path
       style="fill:none;stroke:#000000;fill-opacity:1"
       d="M337.11418 413.097667449C337.11418 413.097667449 337.11418 418.1069 337.11418 418.1069C337.11418 418.1069 193.61024 418.1069 193.61024 418.1069C193.61024 418.1069 193.61024 413.097667449 193.61024 413.097667449"
       id="path8350" />
    <path
       style="fill:none;stroke:#000000;fill-opacity:1"
       d="M939.47639 268.318767449C939.47639 268.318767449 939.47639 273.328 939.47639 273.328C939.47639 273.328 337.11418 273.328 337.11418 273.328C337.11418 273.328 337.11418 268.318767449 337.11418 268.318767449"
       id="path8348" />
    <path
       style="fill:none;stroke:#000000;fill-opacity:1"
       d="M944.485622551 418.1069C944.485622551 418.1069 939.47639 418.1069 939.47639 418.1069C939.47639 418.1069 939.47639 273.328 939.47639 273.328C939.47639 273.328 944.485622551 273.328 944.485622551 273.328"
       id="path8346" />
    <path
       style="fill:none;stroke:#000000;fill-opacity:1"
       d="M342.123412551 418.1069C342.123412551 418.1069 337.11418 418.1069 337.11418 418.1069C337.11418 418.1069 337.11418 273.328 337.11418 273.328C337.11418 273.328 342.123412551 273.328 342.123412551 273.328"
       id="path8344" />
    <path
       style="fill:none;stroke:#000000;fill-opacity:1"
       d="M193.61024 912.092532551C193.61024 912.092532551 193.61024 907.0833 193.61024 907.0833C193.61024 907.0833 337.11418 907.0833 337.11418 907.0833C337.11418 907.0833 337.11418 912.092532551 337.11418 912.092532551"
       id="path8342" />
    <path
       style="fill:none;stroke:#000000;fill-opacity:1"
       d="M939.47639 912.092532551C939.47639 912.092532551 939.47639 907.0833 939.47639 907.0833C939.47639 907.0833 1082.9803 907.0833 1082.9803 907.0833C1082.9803 907.0833 1082.9803 912.092532551 1082.9803 912.092532551"
       id="path8340" />
    <path
       style="fill:none;stroke:#000000;fill-opacity:1"
       d="M337.11418 1056.87143255C337.11418 1056.87143255 337.11418 1051.8622 337.11418 1051.8622C337.11418 1051.8622 939.47639 1051.8622 939.47639 1051.8622C939.47639 1051.8622 939.47639 1056.87143255 939.47639 1056.87143255"
       id="path8338" />
    <path
       style="fill:none;stroke:#000000;fill-opacity:1"
       d="M332.104947449 907.0833C332.104947449 907.0833 337.11418 907.0833 337.11418 907.0833C337.11418 907.0833 337.11418 1051.8622 337.11418 1051.8622C337.11418 1051.8622 332.104947449 1051.8622 332.104947449 1051.8622"
       id="path8336" />
    <path
       style="fill:none;stroke:#000000;fill-opacity:1"
       d="M934.467157449 907.0833C934.467157449 907.0833 939.47639 907.0833 939.47639 907.0833C939.47639 907.0833 939.47639 1051.8622 939.47639 1051.8622C939.47639 1051.8622 934.467157449 1051.8622 934.467157449 1051.8622"
       id="path8334" />
    <path
       style="fill:none;stroke:#000000;fill-opacity:1"
       d="M193.61024 268.318767449C193.61024 268.318767449 193.61024 273.328 193.61024 273.328C193.61024 273.328 113.88583 273.328 113.88583 273.328C113.88583 273.328 113.88583 268.318767449 113.88583 268.318767449"
       id="path8332" />
    <path
       style="fill:none;stroke:#000000;fill-opacity:1"
       d="M198.619472551 418.1069C198.619472551 418.1069 193.61024 418.1069 193.61024 418.1069C193.61024 418.1069 193.61024 273.328 193.61024 273.328C193.61024 273.328 198.619472551 273.328 198.619472551 273.328"
       id="path8330" />
    <path
       style="fill:none;stroke:#000000;fill-opacity:1"
       d="M113.88583 1056.87143255C113.88583 1056.87143255 113.88583 1051.8622 113.88583 1051.8622C113.88583 1051.8622 193.61024 1051.8622 193.61024 1051.8622C193.61024 1051.8622 193.61024 1056.87143255 193.61024 1056.87143255"
       id="path8328" />
    <path
       style="fill:none;stroke:#000000;fill-opacity:1"
       d="M188.601007449 907.0833C188.601007449 907.0833 193.61024 907.0833 193.61024 907.0833C193.61024 907.0833 193.61024 1051.8622 193.61024 1051.8622C193.61024 1051.8622 188.601007449 1051.8622 188.601007449 1051.8622"
       id="path8326" />
    <path
       style="fill:none;stroke:#000000;fill-opacity:1"
       d="M1393.0197 268.318767449C1393.0197 268.318767449 1393.0197 273.328 1393.0197 273.328C1393.0197 273.328 1082.9803 273.328 1082.9803 273.328C1082.9803 273.328 1082.9803 268.318767449 1082.9803 268.318767449"
       id="path8324" />
    <path
       style="fill:none;stroke:#000000;fill-opacity:1"
       d="M1087.98953255 418.1069C1087.98953255 418.1069 1082.9803 418.1069 1082.9803 418.1069C1082.9803 418.1069 1082.9803 273.328 1082.9803 273.328C1082.9803 273.328 1087.98953255 273.328 1087.98953255 273.328"
       id="path8322" />
    <path
       style="fill:none;stroke:#000000;fill-opacity:1"
       d="M1082.9803 1056.87143255C1082.9803 1056.87143255 1082.9803 1051.8622 1082.9803 1051.8622C1082.9803 1051.8622 1393.0197 1051.8622 1393.0197 1051.8622C1393.0197 1051.8622 1393.0197 1056.87143255 1393.0197 1056.87143255"
       id="path8320" />
    <path
       style="fill:none;stroke:#000000;fill-opacity:1"
       d="M1077.97106745 907.0833C1077.97106745 907.0833 1082.9803 907.0833 1082.9803 907.0833C1082.9803 907.0833 1082.9803 1051.8622 1082.9803 1051.8622C1082.9803 1051.8622 1077.97106745 1051.8622 1077.97106745 1051.8622"
       id="path8318" />
    <path
       style="fill:none;stroke:#000000;fill-opacity:1"
       d="M1511.41473255 938.4764C1511.41473255 938.4764 1506.4055 938.4764 1506.4055 938.4764C1506.4055 938.4764 1506.4055 386.7138 1506.4055 386.7138C1506.4055 386.7138 1511.41473255 386.7138 1511.41473255 386.7138"
       id="path8316" />
    <path
       style="fill:none;stroke:#000000;fill-opacity:1"
       d="M1511.41473255 386.713798738C1511.41473255 386.713798738 1506.4055 386.713800061 1506.4055 386.713800061C1506.40548346 324.092558712 1455.64094135 273.328016569 1393.0197 273.328C1393.0197 273.328 1393.01970133 268.318767449 1393.01970133 268.318767449"
       id="path8314" />
    <path
       style="fill:none;stroke:#000000;fill-opacity:1"
       d="M1393.01970133 1056.87143255C1393.01970133 1056.87143255 1393.0197 1051.8622 1393.0197 1051.8622C1455.64094135 1051.86218343 1506.40548346 1001.09764129 1506.4055 938.476399939C1506.4055 938.476399939 1511.41473255 938.476401262 1511.41473255 938.476401262"
       id="path8312" />
    <path
       style="fill:none;stroke:#000000;fill-opacity:1"
       d="M5.50923255063 938.4764C5.50923255063 938.4764 0.5 938.4764 0.5 938.4764C0.5 938.4764 0.5 386.7138 0.5 386.7138C0.5 386.7138 5.50923255063 386.7138 5.50923255063 386.7138"
       id="path8310" />
    <path
       style="color:#000000;font-style:normal;font-variant:normal;font-weight:normal;font-stretch:normal;font-size:medium;line-height:normal;font-family:sans-serif;text-indent:0;text-align:start;text-decoration:none;text-decoration-line:none;text-decoration-style:solid;text-decoration-color:#000000;letter-spacing:normal;word-spacing:normal;text-transform:none;direction:ltr;block-progression:tb;writing-mode:lr-tb;baseline-shift:baseline;text-anchor:start;white-space:normal;clip-rule:nonzero;display:inline;overflow:visible;visibility:visible;opacity:1;isolation:auto;mix-blend-mode:normal;color-interpolation:sRGB;color-interpolation-filters:linearRGB;solid-color:#000000;solid-opacity:1;fill:#000000;fill-opacity:1;fill-rule:nonzero;stroke:none;stroke-width:1;stroke-linecap:butt;stroke-linejoin:miter;stroke-miterlimit:4;stroke-dasharray:none;stroke-dashoffset:0;stroke-opacity:1;color-rendering:auto;image-rendering:auto;shape-rendering:auto;text-rendering:auto;enable-background:accumulate"
       d="M113.88672 267.818887449C113.88672 267.818887449 113.88672 272.82812 113.88672 272.82812C50.995246 272.82812 1.6640035e-05 323.82142 0.0 386.71289C0.0 386.71289 1.0 386.71289 1.0 386.71289C1.0000165 324.36186 51.535686 273.82812 113.88672 273.82812C113.88672 273.82812 113.88672 272.82812 113.88672 272.82812C113.88672 272.82812 118.895952551 272.82812 118.895952551 272.82812"
       id="path8308"
       inkscape:connector-curvature="0" />
    <path
       style="fill:none;stroke:#000000;fill-opacity:1"
       d="M-4.50923255063 938.476401312C-4.50923255063 938.476401312 0.5 938.476399987 0.5 938.476399987C0.500016561404 1001.09765303 51.2645769548 1051.8622 113.88583 1051.8622C113.88583 1051.8622 113.88583 1056.87143255 113.88583 1056.87143255"
       id="path8306" />
    <path
       style="fill:none;stroke:#000000;fill-opacity:1"
       d="M48.9304287247 863.277335446C48.9304287247 863.277335446 51.435045 858.939212804 51.435045 858.939212804C58.2869391435 862.895155732 66.7288208565 862.895155732 73.580715 858.939212804C80.4326091435 854.983269876 84.65355 847.672385856 84.65355 839.7605C84.65355 831.848614144 80.4326091435 824.537730124 73.580715 820.581787196C66.7288208565 816.625844268 58.2869391435 816.625844268 51.435045 820.581787196C44.5831508565 824.537730124 40.36221 831.848614144 40.36221 839.7605C40.36221 847.672385856 44.5831508565 854.983269876 51.435045 858.939212804C51.435045 858.939212804 48.9304287247 863.277335446 48.9304287247 863.277335446"
       id="path8304" />
    <path
       style="fill:none;stroke:#000000;fill-opacity:1"
       d="M35.3529774494 485.4297C35.3529774494 485.4297 40.36221 485.4297 40.36221 485.4297C40.36221 493.341585856 44.5831508565 500.652469876 51.435045 504.608412804C58.2869391435 508.564355732 66.7288208565 508.564355732 73.580715 504.608412804C80.4326091435 500.652469876 84.65355 493.341585856 84.65355 485.4297C84.65355 477.517814144 80.4326091435 470.206930124 73.580715 466.250987196C66.7288208565 462.295044268 58.2869391435 462.295044268 51.435045 466.250987196C44.5831508565 470.206930124 40.36221 477.517814144 40.36221 485.4297C40.36221 485.4297 35.3529774494 485.4297 35.3529774494 485.4297"
       id="path8302" />
    <path
       style="fill:none;stroke:#000000;fill-opacity:1"
       d="M1430.80966488 863.301013415C1430.80966488 863.301013415 1433.31622432 858.964013241 1433.31622432 858.964013241C1440.17248345 862.926572701 1448.62281655 862.926572701 1455.47907568 858.964013241C1462.33533482 855.001453782 1466.55394276 847.679467957 1466.5433 839.7605C1466.55394276 831.841532043 1462.33533482 824.519546218 1455.47907568 820.556986759C1448.62281655 816.594427299 1440.17248345 816.594427299 1433.31622432 820.556986759C1426.45996518 824.519546218 1422.24135724 831.841532043 1422.252 839.7605C1422.24135724 847.679467957 1426.45996518 855.001453782 1433.31622432 858.964013241C1433.31622432 858.964013241 1430.80966488 863.301013415 1430.80966488 863.301013415"
       id="path8300" />
    <path
       style="fill:none;stroke:#000000;fill-opacity:1"
       d="M1430.80966488 508.970213415C1430.80966488 508.970213415 1433.31622432 504.633213241 1433.31622432 504.633213241C1440.17248345 508.595772701 1448.62281655 508.595772701 1455.47907568 504.633213241C1462.33533482 500.670653782 1466.55394276 493.348667957 1466.5433 485.4297C1466.55394276 477.510732043 1462.33533482 470.188746218 1455.47907568 466.226186759C1448.62281655 462.263627299 1440.17248345 462.263627299 1433.31622432 466.226186759C1426.45996518 470.188746218 1422.24135724 477.510732043 1422.252 485.4297C1422.24135724 493.348667957 1426.45996518 500.670653782 1433.31622432 504.633213241C1433.31622432 504.633213241 1430.80966488 508.970213415 1430.80966488 508.970213415"
       id="path8298" />
    <path
       style="fill:none;stroke:#000000;fill-opacity:1"
       d="M1289.07763207 863.300413068C1289.07763207 863.300413068 1291.58414231 858.963384461 1291.58414231 858.963384461C1298.44029066 862.925776145 1306.89040934 862.925776145 1313.74655769 858.963384461C1320.60270604 855.000992778 1324.82137305 847.679288443 1324.811 839.7605C1324.82137305 831.841711557 1320.60270604 824.520007222 1313.74655769 820.557615539C1306.89040934 816.595223856 1298.44029066 816.595223856 1291.58414231 820.557615539C1284.72799396 824.520007222 1280.50932695 831.841711557 1280.5197 839.7605C1280.50932695 847.679288443 1284.72799396 855.000992778 1291.58414231 858.963384461C1291.58414231 858.963384461 1289.07763207 863.300413068 1289.07763207 863.300413068"
       id="path8296" />
    <path
       style="fill:none;stroke:#000000;fill-opacity:1"
       d="M1289.07763207 508.969613068C1289.07763207 508.969613068 1291.58414231 504.632584461 1291.58414231 504.632584461C1298.44029066 508.594976145 1306.89040934 508.594976145 1313.74655769 504.632584461C1320.60270604 500.670192778 1324.82137305 493.348488443 1324.811 485.4297C1324.82137305 477.510911557 1320.60270604 470.189207222 1313.74655769 466.226815539C1306.89040934 462.264423856 1298.44029066 462.264423856 1291.58414231 466.226815539C1284.72799396 470.189207222 1280.50932695 477.510911557 1280.5197 485.4297C1280.50932695 493.348488443 1284.72799396 500.670192778 1291.58414231 504.632584461C1291.58414231 504.632584461 1289.07763207 508.969613068 1289.07763207 508.969613068"
       id="path8294" />
    <path
       style="fill:none;stroke:#000000;fill-opacity:1"
       d="M1185.00325872 774.334012612C1185.00325872 774.334012612 1187.507875 769.995889969 1187.507875 769.995889969C1225.87848159 792.14917001 1273.15301841 792.14917001 1311.523625 769.995889969C1349.89423159 747.842609929 1373.5315 706.901660082 1373.5315 662.5951C1373.5315 618.288539918 1349.89423159 577.347590071 1311.523625 555.194310031C1273.15301841 533.04102999 1225.87848159 533.04102999 1187.507875 555.194310031C1149.13726841 577.347590071 1125.5 618.288539918 1125.5 662.5951C1125.5 706.901660082 1149.13726841 747.842609929 1187.507875 769.995889969C1187.507875 769.995889969 1185.00325872 774.334012612 1185.00325872 774.334012612"
       id="path8292" />
    <path
       style="fill:none;stroke:#000000;fill-opacity:1"
       d="M452.27166 543.588632551C452.27166 543.588632551 452.27166 538.5794 452.27166 538.5794C452.27166 538.5794 824.3189 538.5794 824.3189 538.5794C824.3189 538.5794 824.3189 543.588632551 824.3189 543.588632551"
       id="path8290" />
    <path
       style="fill:none;stroke:#000000;fill-opacity:1"
       d="M452.271660149 533.570167449C452.271660149 533.570167449 452.27166 538.5794 452.27166 538.5794C407.965099038 538.57939868 367.024147813 562.216666806 344.870866951 600.587273933C322.717586089 638.95788106 322.717586089 686.23241894 344.870866951 724.603026067C367.024147813 762.973633194 407.965099038 786.61090132 452.27166 786.6109C452.27166 786.6109 452.271660149 791.620132551 452.271660149 791.620132551"
       id="path8288" />
    <path
       style="fill:none;stroke:#000000;fill-opacity:1"
       d="M824.3189 781.601667449C824.3189 781.601667449 824.3189 786.6109 824.3189 786.6109C824.3189 786.6109 452.27166 786.6109 452.27166 786.6109C452.27166 786.6109 452.27166 781.601667449 452.27166 781.601667449"
       id="path8286" />
    <path
       style="fill:none;stroke:#000000;fill-opacity:1"
       d="M824.318900149 791.620132551C824.318900149 791.620132551 824.3189 786.6109 824.3189 786.6109C892.81090602 786.610897959 948.334646304 731.08715602 948.334646304 662.59515C948.334646304 594.10314398 892.81090602 538.579402041 824.3189 538.5794C824.3189 538.5794 824.318900149 533.570167449 824.318900149 533.570167449"
       id="path8284" />
    <path
       style="fill:none;stroke:#000000;fill-opacity:1"
       d="M1470.82766891 332.171296585C1470.82766891 332.171296585 1468.32013808 336.507735199 1468.32013808 336.507735199C1465.576762 334.921387339 1462.194938 334.921387339 1459.45156192 336.507735199C1456.70818584 338.094083059 1455.02121148 341.025098417 1455.0276 344.1941C1455.02121148 347.363101583 1456.70818584 350.294116941 1459.45156192 351.880464801C1462.194938 353.466812661 1465.576762 353.466812661 1468.32013808 351.880464801C1471.06351416 350.294116941 1472.75048852 347.363101583 1472.7441 344.1941C1472.75048852 341.025098417 1471.06351416 338.094083059 1468.32013808 336.507735199C1468.32013808 336.507735199 1470.82766891 332.171296585 1470.82766891 332.171296585"
       id="path8282" />
    <path
       style="fill:none;stroke:#000000;fill-opacity:1"
       d="M1302.81823372 356.203735477C1302.81823372 356.203735477 1305.32285 351.865612834 1305.32285 351.865612834C1308.06361756 353.447995722 1311.44038244 353.447995722 1314.18115 351.865612834C1316.92191756 350.283229947 1318.6103 347.358865775 1318.6103 344.1941C1318.6103 341.029334225 1316.92191756 338.104970053 1314.18115 336.522587166C1311.44038244 334.940204278 1308.06361756 334.940204278 1305.32285 336.522587166C1302.58208244 338.104970053 1300.8937 341.029334225 1300.8937 344.1941C1300.8937 347.358865775 1302.58208244 350.283229947 1305.32285 351.865612834C1305.32285 351.865612834 1302.81823372 356.203735477 1302.81823372 356.203735477"
       id="path8157" />
    <path
       style="fill:none;fill-opacity:1;stroke:none;stroke-width:11.4285717;stroke-linejoin:round;stroke-miterlimit:4;stroke-dasharray:none;stroke-dashoffset:0;stroke-opacity:1"
       d="M65.7514645731 1030.70895513C65.7514645731 1030.70895513 70.3122247237 1032.78063985 70.3122247237 1032.78063985C70.3122247237 1032.78063985 68.24054 1037.3414 68.24054 1037.3414C40.05837 1024.5399 16.62296 997.75897 8.728405 969.33343C0.71925924 940.49526 0.71925924 384.24077 8.728405 355.4026C23.54836 302.04105 65.835203 276.96871 141.33408 276.77921C141.33408 276.77921 191.33408 276.65372 191.33408 276.65372C191.33408 276.65372 191.33408 348.08229 191.33408 348.08229C191.33408 348.08229 191.33408 419.51086 191.33408 419.51086C191.33408 419.51086 265.6198 419.51086 265.6198 419.51086C265.6198 419.51086 339.90551 419.51086 339.90551 419.51086C339.90551 419.51086 339.90551 348.08229 339.90551 348.08229C339.90551 348.08229 339.90551 276.65372 339.90551 276.65372C339.90551 276.65372 637.04837 276.65372 637.04837 276.65372C637.04837 276.65372 934.19123 276.65372 934.19123 276.65372C934.19123 276.65372 934.19123 348.08229 934.19123 348.08229C934.19123 348.08229 934.19123 419.51086 934.19123 419.51086C934.19123 419.51086 1011.3341 419.51086 1011.3341 419.51086C1011.3341 419.51086 1088.4769 419.51086 1088.4769 419.51086C1088.4769 419.51086 1088.4769 347.84188 1088.4769 347.84188C1088.4769 347.84188 1088.4769 276.1729 1088.4769 276.1729C1088.4769 276.1729 1258.9075 277.84188 1258.9075 277.84188C1258.9075 277.84188 1429.3381 279.51086 1429.3381 279.51086C1429.3381 279.51086 1453.0803 295.23152 1453.0803 295.23152C1466.1386 303.87788 1482.6591 321.87788 1489.7927 335.23152C1489.7927 335.23152 1502.7627 359.51086 1502.7627 359.51086C1502.7627 359.51086 1502.7627 662.368 1502.7627 662.368C1502.7627 662.368 1502.7627 965.22514 1502.7627 965.22514C1502.7627 965.22514 1489.7927 989.50446 1489.7927 989.50446C1482.6591 1002.8581 1466.1386 1020.8581 1453.0803 1029.5045C1453.0803 1029.5045 1429.3381 1045.2251 1429.3381 1045.2251C1429.3381 1045.2251 1258.9075 1046.8941 1258.9075 1046.8941C1258.9075 1046.8941 1088.4769 1048.5631 1088.4769 1048.5631C1088.4769 1048.5631 1088.4769 976.89412 1088.4769 976.89412C1088.4769 976.89412 1088.4769 905.22514 1088.4769 905.22514C1088.4769 905.22514 1011.3341 905.22514 1011.3341 905.22514C1011.3341 905.22514 934.19123 905.22514 934.19123 905.22514C934.19123 905.22514 934.19123 976.65372 934.19123 976.65372C934.19123 976.65372 934.19123 1048.0823 934.19123 1048.0823C934.19123 1048.0823 637.04837 1048.0823 637.04837 1048.0823C637.04837 1048.0823 339.90551 1048.0823 339.90551 1048.0823C339.90551 1048.0823 339.90551 976.65372 339.90551 976.65372C339.90551 976.65372 339.90551 905.22514 339.90551 905.22514C339.90551 905.22514 265.6198 905.22514 265.6198 905.22514C265.6198 905.22514 191.33408 905.22514 191.33408 905.22514C191.33408 905.22514 191.33408 976.65372 191.33408 976.65372C191.33408 976.65372 191.33408 1048.0823 191.33408 1048.0823C191.33408 1048.0823 141.33408 1047.9566 141.33408 1047.9566C105.23605 1047.8656 84.913169 1044.9145 68.24054 1037.3411C68.24054 1037.3411 70.3122262213 1032.78034053 70.3122262213 1032.78034053C70.3122262213 1032.78034053 74.8729856916 1034.85202675 74.8729856916 1034.85202675M93.4861725506 839.51086C93.4861725506 839.51086 88.47694 839.51086 88.47694 839.51086C88.47694 829.50571 72.767803 813.79657 62.762655 813.79657C62.762655 813.79657 62.762655 808.787337449 62.762655 808.787337449C62.762655 808.787337449 62.762655 813.79657 62.762655 813.79657C51.879838 813.79657 37.048369 829.85222 37.048369 841.63331C37.048369 863.74806 63.045729 872.69714 79.497346 856.24554C84.436123 851.3068 88.47694 843.77617 88.47694 839.51086C88.47694 839.51086 93.4861725506 839.51086 93.4861725506 839.51086M1333.48613255 839.51086C1333.48613255 839.51086 1328.4769 839.51086 1328.4769 839.51086C1328.4769 829.50571 1312.7678 813.79657 1302.7627 813.79657C1302.7627 813.79657 1302.7627 808.787337449 1302.7627 808.787337449C1302.7627 808.787337449 1302.7627 813.79657 1302.7627 813.79657C1291.8799 813.79657 1277.0484 829.85222 1277.0484 841.63331C1277.0484 863.74806 1303.0457 872.69714 1319.4973 856.24554C1324.4361 851.3068 1328.4769 843.77617 1328.4769 839.51086C1328.4769 839.51086 1333.48613255 839.51086 1333.48613255 839.51086M1414.89626745 839.51086C1414.89626745 839.51086 1419.9055 839.51086 1419.9055 839.51086C1419.9055 863.57457 1445.095 873.50509 1462.3545 856.24554C1467.2933 851.3068 1471.3341 843.77617 1471.3341 839.51086C1471.3341 839.51086 1476.34333255 839.51086 1476.34333255 839.51086C1476.34333255 839.51086 1471.3341 839.51086 1471.3341 839.51086C1471.3341 835.24555 1467.2933 827.71494 1462.3545 822.77617C1445.095 805.51665 1419.9055 815.44712 1419.9055 839.51086C1419.9055 839.51086 1414.89626745 839.51086 1414.89626745 839.51086M410.191517402 534.873721702C410.191517402 534.873721702 414.50994285 532.335294552 414.50994285 532.335294552C414.50994285 532.335294552 417.04837 536.65372 417.04837 536.65372C417.04837 536.65372 389.77756 552.68386 389.77756 552.68386C292.36472 609.94445 310.77069 752.41428 419.86852 785.60034C444.04535 792.9546 828.51105 791.81483 858.35345 784.30042C892.74077 775.64159 936.21608 734.53984 945.01734 702.368C962.66368 637.86395 938.33843 580.15246 880.44654 549.17421C857.53048 536.91171 852.51505 536.65372 637.04837 536.65372C637.04837 536.65372 417.04837 536.65372 417.04837 536.65372C417.04837 536.65372 417.04837 531.644487449 417.04837 531.644487449C417.04837 531.644487449 422.057602551 531.644487449 422.057602551 531.644487449M1378.48142346 669.014886339C1378.48142346 669.014886339 1378.16310856 674.013994897 1378.16310856 674.013994897C1378.16310856 674.013994897 1373.164 673.69568 1373.164 673.69568C1376.0752 627.97553 1367.7404 603.16099 1339.8032 574.37366C1308.8937 542.52358 1264.9888 529.56155 1221.2049 539.35995C1145.451 556.31294 1101.3249 644.1946 1133.6189 713.79657C1165.7743 783.0996 1249.1847 809.33793 1314.9046 770.82346C1351.4959 749.37957 1370.3458 717.9536 1373.164 673.69568C1373.164 673.69568 1378.16310779 674.01400688 1378.16310779 674.01400688C1378.16310779 674.01400688 1377.84478091 679.013114675 1377.84478091 679.013114675M32.0391364494 487.3476C32.0391364494 487.3476 37.048369 487.3476 37.048369 487.3476C37.048369 509.46237 63.045729 518.41146 79.497346 501.95984C79.497346 501.95984 83.039408628 505.501901982 83.0394093809 505.501901229C83.0394093809 505.501901229 79.497346 501.95984 79.497346 501.95984C84.436123 497.02106 88.47694 489.49045 88.47694 485.22514C88.47694 475.22 72.767803 459.51086 62.762655 459.51086C51.879838 459.51086 37.048369 475.56651 37.048369 487.3476C37.048369 487.3476 32.0391364494 487.3476 32.0391364494 487.3476M1333.48613255 485.22514C1333.48613255 485.22514 1328.4769 485.22514 1328.4769 485.22514C1328.4769 475.22 1312.7678 459.51086 1302.7627 459.51086C1302.7627 459.51086 1302.7627 454.501627449 1302.7627 454.501627449C1302.7627 454.501627449 1302.7627 459.51086 1302.7627 459.51086C1291.8799 459.51086 1277.0484 475.56651 1277.0484 487.3476C1277.0484 509.46237 1303.0457 518.41146 1319.4973 501.95984C1324.4361 497.02106 1328.4769 489.49045 1328.4769 485.22514C1328.4769 485.22514 1333.48613255 485.22514 1333.48613255 485.22514M1414.89626745 485.22514C1414.89626745 485.22514 1419.9055 485.22514 1419.9055 485.22514C1419.9055 509.28889 1445.095 519.21935 1462.3545 501.95984C1467.2933 497.02106 1471.3341 489.49045 1471.3341 485.22514C1471.3341 485.22514 1476.34333255 485.22514 1476.34333255 485.22514C1476.34333255 485.22514 1471.3341 485.22514 1471.3341 485.22514C1471.3341 480.95984 1467.2933 473.42922 1462.3545 468.49045C1445.095 451.23094 1419.9055 461.1614 1419.9055 485.22514C1419.9055 485.22514 1414.89626745 485.22514 1414.89626745 485.22514M1310.85278077 360.48472843C1310.85278077 360.48472843 1309.9055 355.56588 1309.9055 355.56588C1315.4055 354.50668 1319.9055 349.85334 1319.9055 345.22514C1319.9055 340.59694 1315.4055 335.94361 1309.9055 334.88441C1309.9055 334.88441 1310.85278077 329.96556157 1310.85277955 329.965561334C1310.85277955 329.965561334 1309.9055 334.88441 1309.9055 334.88441C1302.8892 333.5332 1299.9055 336.61858 1299.9055 345.22514C1299.9055 353.83171 1302.8892 356.91709 1309.9055 355.56588C1309.9055 355.56588 1310.85277955 360.484728666 1310.85277955 360.484728666M1465.13848077 360.48472843C1465.13848077 360.48472843 1464.1912 355.56588 1464.1912 355.56588C1469.6912 354.50668 1474.1912 349.85334 1474.1912 345.22514C1474.1912 340.59694 1469.6912 335.94361 1464.1912 334.88441C1464.1912 334.88441 1465.13848077 329.96556157 1465.13847955 329.965561334C1465.13847955 329.965561334 1464.1912 334.88441 1464.1912 334.88441C1457.1749 333.5332 1454.1912 336.61858 1454.1912 345.22514C1454.1912 353.83171 1457.1749 356.91709 1464.1912 355.56588C1464.1912 355.56588 1465.13847955 360.484728666 1465.13847955 360.484728666"
       id="path4763"
       inkscape:connector-curvature="0" />
    <g
       gcodetools="Gcodetools tool definition"
       transform="translate(-401.63934,284.39236)"
       id="g5365">
      <path
         inkscape:connector-curvature="0"
         style="fill:#00ff00;fill-opacity:0.5;stroke:#444444;stroke-width:1px"
         gcodetools="Gcodetools tool background"
         d="m -20,-20 400,0 0,265 -400,0 z"
         id="path5367" />
      <g
         gcodetools="Gcodetools tool parameter"
         id="g5369">
        <text
           y="0"
           x="0"
           style="font-style:normal;font-variant:normal;font-weight:normal;font-stretch:normal;font-size:20px;font-family:'DejaVu Sans';fill:#000000;fill-opacity:1;stroke:none"
           xml:space="preserve"
           gcodetools="Gcodetools tool definition field name"
           id="text5371"><tspan
             y="0"
             x="0"
             sodipodi:role="line"
             id="tspan5373">name</tspan></text>
        <text
           y="0"
           x="150"
           style="font-style:normal;font-variant:normal;font-weight:normal;font-stretch:normal;font-size:20px;font-family:'DejaVu Sans';fill:#000000;fill-opacity:1;stroke:none"
           xml:space="preserve"
           gcodetools="Gcodetools tool definition field value"
           id="text5375"><tspan
             y="0"
             x="150"
             sodipodi:role="line"
             id="tspan5377">Plasma cutter</tspan></text>
      </g>
      <g
         gcodetools="Gcodetools tool parameter"
         id="g5379">
        <text
           y="20"
           x="0"
           style="font-style:normal;font-variant:normal;font-weight:normal;font-stretch:normal;font-size:10px;font-family:'DejaVu Sans';fill:#000000;fill-opacity:1;stroke:none"
           xml:space="preserve"
           gcodetools="Gcodetools tool definition field name"
           id="text5381"><tspan
             y="20"
             x="0"
             sodipodi:role="line"
             id="tspan5383">id</tspan></text>
        <text
           y="20"
           x="150"
           style="font-style:normal;font-variant:normal;font-weight:normal;font-stretch:normal;font-size:10px;font-family:'DejaVu Sans';fill:#000000;fill-opacity:1;stroke:none"
           xml:space="preserve"
           gcodetools="Gcodetools tool definition field value"
           id="text5385"><tspan
             y="20"
             x="150"
             sodipodi:role="line"
             id="tspan5387">Plasma cutter 0001</tspan></text>
      </g>
      <g
         gcodetools="Gcodetools tool parameter"
         id="g5389">
        <text
           y="35"
           x="0"
           style="font-style:normal;font-variant:normal;font-weight:normal;font-stretch:normal;font-size:10px;font-family:'DejaVu Sans';fill:#000000;fill-opacity:1;stroke:none"
           xml:space="preserve"
           gcodetools="Gcodetools tool definition field name"
           id="text5391"><tspan
             y="35"
             x="0"
             sodipodi:role="line"
             id="tspan5393">diameter</tspan></text>
        <text
           y="35"
           x="150"
           style="font-style:normal;font-variant:normal;font-weight:normal;font-stretch:normal;font-size:10px;font-family:'DejaVu Sans';fill:#000000;fill-opacity:1;stroke:none"
           xml:space="preserve"
           gcodetools="Gcodetools tool definition field value"
           id="text5395"><tspan
             y="35"
             x="150"
             sodipodi:role="line"
             id="tspan5397">10</tspan></text>
      </g>
      <g
         gcodetools="Gcodetools tool parameter"
         id="g5399">
        <text
           y="50"
           x="0"
           style="font-style:normal;font-variant:normal;font-weight:normal;font-stretch:normal;font-size:10px;font-family:'DejaVu Sans';fill:#000000;fill-opacity:1;stroke:none"
           xml:space="preserve"
           gcodetools="Gcodetools tool definition field name"
           id="text5401"><tspan
             y="50"
             x="0"
             sodipodi:role="line"
             id="tspan5403">feed</tspan></text>
        <text
           y="50"
           x="150"
           style="font-style:normal;font-variant:normal;font-weight:normal;font-stretch:normal;font-size:10px;font-family:'DejaVu Sans';fill:#000000;fill-opacity:1;stroke:none"
           xml:space="preserve"
           gcodetools="Gcodetools tool definition field value"
           id="text5405"><tspan
             y="50"
             x="150"
             sodipodi:role="line"
             id="tspan5407">400</tspan></text>
      </g>
      <g
         gcodetools="Gcodetools tool parameter"
         id="g5409">
        <text
           y="65"
           x="0"
           style="font-style:normal;font-variant:normal;font-weight:normal;font-stretch:normal;font-size:10px;font-family:'DejaVu Sans';fill:#000000;fill-opacity:1;stroke:none"
           xml:space="preserve"
           gcodetools="Gcodetools tool definition field name"
           id="text5411"><tspan
             y="65"
             x="0"
             sodipodi:role="line"
             id="tspan5413">penetration feed</tspan></text>
        <text
           y="65"
           x="150"
           style="font-style:normal;font-variant:normal;font-weight:normal;font-stretch:normal;font-size:10px;font-family:'DejaVu Sans';fill:#000000;fill-opacity:1;stroke:none"
           xml:space="preserve"
           gcodetools="Gcodetools tool definition field value"
           id="text5415"><tspan
             y="65"
             x="150"
             sodipodi:role="line"
             id="tspan5417">100</tspan></text>
      </g>
      <g
         gcodetools="Gcodetools tool parameter"
         id="g5419">
        <text
           y="80"
           x="0"
           style="font-style:normal;font-variant:normal;font-weight:normal;font-stretch:normal;font-size:10px;font-family:'DejaVu Sans';fill:#000000;fill-opacity:1;stroke:none"
           xml:space="preserve"
           gcodetools="Gcodetools tool definition field name"
           id="text5421"><tspan
             y="80"
             x="0"
             sodipodi:role="line"
             id="tspan5423">gcode before path</tspan></text>
        <text
           y="80"
           x="150"
           style="font-style:normal;font-variant:normal;font-weight:normal;font-stretch:normal;font-size:10px;font-family:'DejaVu Sans';fill:#000000;fill-opacity:1;stroke:none"
           xml:space="preserve"
           gcodetools="Gcodetools tool definition field value"
           id="text5425"><tspan
             y="80"
             x="150"
             sodipodi:role="line"
             id="tspan5427">G31 Z-100 F500 (find metal)</tspan><tspan
             y="92.5"
             x="150"
             sodipodi:role="line"
             id="tspan5429">G92 Z0 (zero z)</tspan><tspan
             y="105"
             x="150"
             sodipodi:role="line"
             id="tspan5431">G00 Z10 F500 (going up)</tspan><tspan
             y="117.5"
             x="150"
             sodipodi:role="line"
             id="tspan5433">M03 (turn on plasma)</tspan><tspan
             y="130"
             x="150"
             sodipodi:role="line"
             id="tspan5435">G04 P0.2 (pause)</tspan><tspan
             y="142.5"
             x="150"
             sodipodi:role="line"
             id="tspan5437">G01 Z1 (going to cutting z)</tspan><tspan
             y="155"
             x="150"
             sodipodi:role="line"
             id="tspan5439" /></text>
      </g>
      <g
         gcodetools="Gcodetools tool parameter"
         id="g5441">
        <text
           y="185"
           x="0"
           style="font-style:normal;font-variant:normal;font-weight:normal;font-stretch:normal;font-size:10px;font-family:'DejaVu Sans';fill:#000000;fill-opacity:1;stroke:none"
           xml:space="preserve"
           gcodetools="Gcodetools tool definition field name"
           id="text5443"><tspan
             y="185"
             x="0"
             sodipodi:role="line"
             id="tspan5445">gcode after path</tspan></text>
        <text
           y="185"
           x="150"
           style="font-style:normal;font-variant:normal;font-weight:normal;font-stretch:normal;font-size:10px;font-family:'DejaVu Sans';fill:#000000;fill-opacity:1;stroke:none"
           xml:space="preserve"
           gcodetools="Gcodetools tool definition field value"
           id="text5447"><tspan
             y="185"
             x="150"
             sodipodi:role="line"
             id="tspan5449">M05 (turn off plasma)</tspan><tspan
             y="197.5"
             x="150"
             sodipodi:role="line"
             id="tspan5451" /></text>
      </g>
    </g>
    <g
       id="g5679"
       gcodetools="In-out reference point group">
      <text
         id="text5681"
         xml:space="preserve"
         style="font-family:DejaVu Sans;font-style:normal;font-variant:normal;font-weight:normal;font-stretch:normal;font-family:DejaVu Sans;fill:#000000;fill-opacity:1;stroke:none;font-size:7.000000px;"
         x="624.05124"
         y="626.88483472"><tspan
           id="tspan5683"
           sodipodi:role="line"
           x="624.05124"
           y="626.88483472">In-out point</tspan></text>
      <path
         id="path5685"
         gcodetools="In-out reference point"
         d="m 613.05124,631.88483472 8.8464,-4.0404 c -0.987,-0.162 -1.86549,-0.589 -2.6147,-1.173 l 3.57342,-3.5625 c 0.4631,-0.39 0.031,-1.3174 -0.5665,-1.2164 -0.029,-0.0014 -0.058,-0.0014 -0.087,0.0 l -0.00022,0.0002 c -0.1189,0.04 -0.2257,0.119 -0.305,0.217 l -3.57342,3.5625 c -0.5818,-0.743 -1.02813,-1.6338 -1.17662,-2.6067 l -4.09636,8.8193 z"
         style="fill:#12b3ff;stroke:none;fill-opacity:0.8;"
         comment="" />
    </g>
    <g
       gcodetools="Gcodetools orientation group"
       id="g5921">
      <g
         gcodetools="Gcodetools orientation point (2 points)"
         id="g5923">
        <path
           style="stroke:none;fill:#000000;"
           d="m 0.0,1052.36220472 2.9375,-6.343750000001 0.8125,1.90625 6.843748640396,-6.84374864039 0,0 0.6875,0.6875 -6.84375,6.84375 1.90625,0.812500000001 z z"
           gcodetools="Gcodetools orientation point arrow"
           id="path5925" />
        <text
           y="1042.36220472"
           x="10.0"
           style="font-family:DejaVu Sans;font-style:normal;font-variant:normal;font-weight:normal;font-stretch:normal;font-family:DejaVu Sans;fill:#000000;fill-opacity:1;stroke:none;font-size:10.000000px;"
           xml:space="preserve"
           gcodetools="Gcodetools orientation point text"
           id="text5927"><tspan
             y="1042.36220472"
             x="10.0"
             sodipodi:role="line"
             id="tspan5929">(0.0; 0.0; 0.0)</tspan></text>
      </g>
      <g
         gcodetools="Gcodetools orientation point (2 points)"
         id="g5931">
        <path
           style="stroke:none;fill:#000000;"
           d="m 354.3307066,1052.36220472 2.9375,-6.343750000001 0.8125,1.90625 6.843748640396,-6.84374864039 0,0 0.6875,0.6875 -6.84375,6.84375 1.90625,0.812500000001 z z"
           gcodetools="Gcodetools orientation point arrow"
           id="path5933" />
        <text
           y="1042.36220472"
           x="364.3307066"
           style="font-family:DejaVu Sans;font-style:normal;font-variant:normal;font-weight:normal;font-stretch:normal;font-family:DejaVu Sans;fill:#000000;fill-opacity:1;stroke:none;font-size:10.000000px;"
           xml:space="preserve"
           gcodetools="Gcodetools orientation point text"
           id="text5935"><tspan
             y="1042.36220472"
             x="364.3307066"
             sodipodi:role="line"
             id="tspan5937">(100.0; 0.0; -0.125)</tspan></text>
      </g>
    </g>
  </g>
  <defs
     id="defs5939">
    <marker
       refY="-1.687441"
       refX="-4"
       style="overflow:visible"
       id="CheckToolsAndOPMarker"
       orient="auto">
      <path
         style="fill:#000044; fill-rule:evenodd;stroke:none;"
         d=" m -4.588864,-1.687441 0.0,0.0 L -9.177728,0.0 c 0.73311,-0.996261 0.728882,-2.359329 0.0,-3.374882"
         id="path5942" />
    </marker>
  </defs>
  <defs
     id="defs5944">
    <marker
       refY="-1.687441"
       refX="-4"
       style="overflow:visible"
       id="DrawCurveMarker"
       orient="auto">
      <path
         style="fill:#000044; fill-rule:evenodd;stroke:none;"
         d="m -4.588864,-1.687441 0.0,0.0 L -9.177728,0.0 c 0.73311,-0.996261 0.728882,-2.359329 0.0,-3.374882"
         id="path5947" />
    </marker>
  </defs>
  <defs
     id="defs5949">
    <marker
       refY="-1.687441"
       refX="4"
       style="overflow:visible"
       id="DrawCurveMarker_r"
       orient="auto">
      <path
         style="fill:#000044; fill-rule:evenodd;stroke:none;"
         d="m 4.588864,-1.687441 0.0,0.0 L 9.177728,0.0 c -0.73311,-0.996261 -0.728882,-2.359329 0.0,-3.374882"
         id="path5952" />
    </marker>
  </defs>
  <defs
     id="defs5954">
    <marker
       refY="-1.687441"
       refX="-4"
       style="overflow:visible"
       id="InOutPathMarker"
       orient="auto">
      <path
         style="fill:#0072a7; fill-rule:evenodd;stroke:none;"
         d="m -4.588864,-1.687441 0.0,0.0 L -9.177728,0.0 c 0.73311,-0.996261 0.728882,-2.359329 0.0,-3.374882"
         id="path5957" />
    </marker>
  </defs>
</svg>
