 0
SECTION
 2
ENTITIES
  0
LINE
 8
d3
10
0.0
20
-15.32165138458372
30
0.0
11
0.0
21
0.0
31
0.0
  0
POLYLINE
 8
d3
 66
     1
10
0.0
 20
 0.0
 30
0.0
70
    64
71
94
72
   1
  0
VERTEX
  8
d3
10
0.0688563822617392
20
-14.558022403589254
30
0.0
 70
     192
  0
VERTEX
  8
d3
10
0.0
20
-20.000000000000007
30
0.0
 70
     192
  0
VERTEX
  8
d3
10
0.0
20
-15.32165138458372
30
0.0
 70
     192
  0
VERTEX
  8
d3
10
0.0
20
-55.0
30
0.0
 70
     192
  0
VERTEX
  8
d3
10
20.000000000000004
20
-55.0
30
0.0
 70
     192
  0
VERTEX
  8
d3
10
0.7294901687515739
20
-11.909830056250533
30
0.0
 70
     192
  0
VERTEX
  8
d3
10
1.789898547962937
20
-9.394895906485658
30
0.0
 70
     192
  0
VERTEX
  8
d3
10
3.2248035568414295
20
-7.073170831492766
30
0.0
 70
     192
  0
VERTEX
  8
d3
10
4.999999999999995
20
-4.999999999999991
30
0.0
 70
     192
  0
VERTEX
  8
d3
10
7.073170831492771
20
-3.2248035568414264
30
0.0
 70
     192
  0
VERTEX
  8
d3
10
9.394895906485647
20
-1.7898985479629312
30
0.0
 70
     192
  0
VERTEX
  8
d3
10
11.909830056250525
20
-0.7294901687515739
30
0.0
 70
     192
  0
VERTEX
  8
d3
10
14.558022403589245
20
-0.06885638226174766
30
0.0
 70
     192
  0
VERTEX
  8
d3
10
15.321651384583719
20
0.0
30
0.0
 70
     192
  0
VERTEX
  8
d3
10
20.0
20
0.0
30
0.0
 70
     192
  0
VERTEX
  8
d3
10
104.99999999999999
20
0.0
30
0.0
 70
     192
  0
VERTEX
  8
d3
10
234.67834861541624
20
0.0
30
0.0
 70
     192
  0
VERTEX
  8
d3
10
229.99999999999997
20
-55.0
30
0.0
 70
     192
  0
VERTEX
  8
d3
10
229.99999999999997
20
0.0
30
0.0
 70
     192
  0
VERTEX
  8
d3
10
250.0
20
-55.0
30
0.0
 70
     192
  0
VERTEX
  8
d3
10
235.44197759641077
20
-0.06885638226174766
30
0.0
 70
     192
  0
VERTEX
  8
d3
10
238.09016994374946
20
-0.7294901687515739
30
0.0
 70
     192
  0
VERTEX
  8
d3
10
240.60510409351434
20
-1.7898985479629312
30
0.0
 70
     192
  0
VERTEX
  8
d3
10
242.92682916850723
20
-3.2248035568414264
30
0.0
 70
     192
  0
VERTEX
  8
d3
10
245.0
20
-4.999999999999991
30
0.0
 70
     192
  0
VERTEX
  8
d3
10
246.77519644315856
20
-7.073170831492766
30
0.0
 70
     192
  0
VERTEX
  8
d3
10
248.21010145203707
20
-9.394895906485635
30
0.0
 70
     192
  0
VERTEX
  8
d3
10
249.27050983124846
20
-11.909830056250533
30
0.0
 70
     192
  0
VERTEX
  8
d3
10
249.93114361773826
20
-14.558022403589254
30
0.0
 70
     192
  0
VERTEX
  8
d3
10
250.0
20
-15.321651384583427
30
0.0
 70
     192
  0
VERTEX
  8
d3
10
250.0
20
-20.000000000000007
30
0.0
 70
     192
  0
VERTEX
  8
d3
10
145.0
20
-20.000000000000007
30
0.0
 70
     192
  0
VERTEX
  8
d3
10
145.0
20
0.0
30
0.0
 70
     192
  0
VERTEX
  8
d3
10
145.0
20
-75.0
30
0.0
 70
     192
  0
VERTEX
  8
d3
10
145.0
20
-130.0
30
0.0
 70
     192
  0
VERTEX
  8
d3
10
145.0
20
-150.0
30
0.0
 70
     192
  0
VERTEX
  8
d3
10
229.99999999999997
20
-150.0
30
0.0
 70
     192
  0
VERTEX
  8
d3
10
229.99999999999997
20
-95.0
30
0.0
 70
     192
  0
VERTEX
  8
d3
10
250.0
20
-95.0
30
0.0
 70
     192
  0
VERTEX
  8
d3
10
234.67834861541624
20
-150.0
30
0.0
 70
     192
  0
VERTEX
  8
d3
10
235.44197759641077
20
-149.93114361773826
30
0.0
 70
     192
  0
VERTEX
  8
d3
10
238.09016994374946
20
-149.27050983124843
30
0.0
 70
     192
  0
VERTEX
  8
d3
10
240.60510409351434
20
-148.21010145203707
30
0.0
 70
     192
  0
VERTEX
  8
d3
10
242.92682916850723
20
-146.77519644315856
30
0.0
 70
     192
  0
VERTEX
  8
d3
10
245.0
20
-145.0
30
0.0
 70
     192
  0
VERTEX
  8
d3
10
246.77519644315856
20
-142.92682916850723
30
0.0
 70
     192
  0
VERTEX
  8
d3
10
248.21010145203707
20
-140.60510409351434
30
0.0
 70
     192
  0
VERTEX
  8
d3
10
249.27050983124846
20
-138.09016994374946
30
0.0
 70
     192
  0
VERTEX
  8
d3
10
249.93114361773826
20
-135.44197759641074
30
0.0
 70
     192
  0
VERTEX
  8
d3
10
250.0
20
-134.67834861541655
30
0.0
 70
     192
  0
VERTEX
  8
d3
10
250.0
20
-130.0
30
0.0
 70
     192
  0
VERTEX
  8
d3
10
105.68148347421862
20
-80.17638090205041
30
0.0
 70
     192
  0
VERTEX
  8
d3
10
104.99999999999999
20
-130.0
30
0.0
 70
     192
  0
VERTEX
  8
d3
10
104.99999999999999
20
-75.0
30
0.0
 70
     192
  0
VERTEX
  8
d3
10
107.67949192431121
20
-85.0
30
0.0
 70
     192
  0
VERTEX
  8
d3
10
110.85786437626903
20
-89.14213562373095
30
0.0
 70
     192
  0
VERTEX
  8
d3
10
114.99999999999999
20
-92.32050807568876
30
0.0
 70
     192
  0
VERTEX
  8
d3
10
119.82361909794956
20
-94.31851652578138
30
0.0
 70
     192
  0
VERTEX
  8
d3
10
125.0
20
-95.0
30
0.0
 70
     192
  0
VERTEX
  8
d3
10
130.1763809020504
20
-94.31851652578138
30
0.0
 70
     192
  0
VERTEX
  8
d3
10
134.99999999999997
20
-92.32050807568878
30
0.0
 70
     192
  0
VERTEX
  8
d3
10
139.14213562373095
20
-89.14213562373097
30
0.0
 70
     192
  0
VERTEX
  8
d3
10
142.3205080756888
20
-85.00000000000001
30
0.0
 70
     192
  0
VERTEX
  8
d3
10
144.31851652578138
20
-80.17638090205043
30
0.0
 70
     192
  0
VERTEX
  8
d3
10
104.99999999999999
20
-20.000000000000007
30
0.0
 70
     192
  0
VERTEX
  8
d3
10
105.68148347421862
20
-69.82361909794957
30
0.0
 70
     192
  0
VERTEX
  8
d3
10
107.67949192431121
20
-64.99999999999999
30
0.0
 70
     192
  0
VERTEX
  8
d3
10
110.85786437626903
20
-60.857864376269035
30
0.0
 70
     192
  0
VERTEX
  8
d3
10
114.99999999999999
20
-57.679491924311215
30
0.0
 70
     192
  0
VERTEX
  8
d3
10
119.82361909794959
20
-55.68148347421862
30
0.0
 70
     192
  0
VERTEX
  8
d3
10
125.0
20
-54.99999999999999
30
0.0
 70
     192
  0
VERTEX
  8
d3
10
130.1763809020504
20
-55.68148347421862
30
0.0
 70
     192
  0
VERTEX
  8
d3
10
135.0
20
-57.679491924311215
30
0.0
 70
     192
  0
VERTEX
  8
d3
10
139.14213562373095
20
-60.85786437626905
30
0.0
 70
     192
  0
VERTEX
  8
d3
10
142.3205080756888
20
-65.0
30
0.0
 70
     192
  0
VERTEX
  8
d3
10
144.31851652578138
20
-69.82361909794957
30
0.0
 70
     192
  0
VERTEX
  8
d3
10
20.0
20
-95.0
30
0.0
 70
     192
  0
VERTEX
  8
d3
10
0.0
20
-130.0
30
0.0
 70
     192
  0
VERTEX
  8
d3
10
0.0
20
-95.0
30
0.0
 70
     192
  0
VERTEX
  8
d3
10
0.0
20
-134.33546184353017
30
0.0
 70
     192
  0
VERTEX
  8
d3
10
0.0
20
-134.67834861541627
30
0.0
 70
     192
  0
VERTEX
  8
d3
10
0.0688563822617392
20
-135.44197759641074
30
0.0
 70
     192
  0
VERTEX
  8
d3
10
0.7294901687515768
20
-138.09016994374946
30
0.0
 70
     192
  0
VERTEX
  8
d3
10
1.7898985479629426
20
-140.60510409351434
30
0.0
 70
     192
  0
VERTEX
  8
d3
10
3.224803556841435
20
-142.9268291685072
30
0.0
 70
     192
  0
VERTEX
  8
d3
10
4.9999999999999964
20
-144.99999999999997
30
0.0
 70
     192
  0
VERTEX
  8
d3
10
7.073170831492772
20
-146.77519644315853
30
0.0
 70
     192
  0
VERTEX
  8
d3
10
9.394895906485646
20
-148.21010145203707
30
0.0
 70
     192
  0
VERTEX
  8
d3
10
11.909830056250525
20
-149.27050983124843
30
0.0
 70
     192
  0
VERTEX
  8
d3
10
14.558022403589247
20
-149.93114361773826
30
0.0
 70
     192
  0
VERTEX
  8
d3
10
15.321651384583761
20
-150.0
30
0.0
 70
     192
  0
VERTEX
  8
d3
10
15.66453815646985
20
-150.0
30
0.0
 70
     192
  0
VERTEX
  8
d3
10
20.0
20
-150.0
30
0.0
 70
     192
  0
VERTEX
  8
d3
10
104.99999999999999
20
-150.0
30
0.0
 70
     192
  0
VERTEX
  8
d3
10
0.0
 20
 0.0
 30
0.0
 70
     128
 71
-1
 72
2
 73
3
  0
VERTEX
  8
d3
10
0.0
 20
 0.0
 30
0.0
 70
     128
 71
-2
 72
-1
 73
4
  0
VERTEX
  8
d3
10
0.0
 20
 0.0
 30
0.0
 70
     128
 71
-4
 72
-1
 73
5
  0
VERTEX
  8
d3
10
0.0
 20
 0.0
 30
0.0
 70
     128
 71
-5
 72
1
 73
-6
  0
VERTEX
  8
d3
10
0.0
 20
 0.0
 30
0.0
 70
     128
 71
-5
 72
6
 73
-7
  0
VERTEX
  8
d3
10
0.0
 20
 0.0
 30
0.0
 70
     128
 71
-5
 72
7
 73
-8
  0
VERTEX
  8
d3
10
0.0
 20
 0.0
 30
0.0
 70
     128
 71
-5
 72
8
 73
-9
  0
VERTEX
  8
d3
10
0.0
 20
 0.0
 30
0.0
 70
     128
 71
-5
 72
9
 73
-10
  0
VERTEX
  8
d3
10
0.0
 20
 0.0
 30
0.0
 70
     128
 71
-5
 72
10
 73
-11
  0
VERTEX
  8
d3
10
0.0
 20
 0.0
 30
0.0
 70
     128
 71
-5
 72
11
 73
-12
  0
VERTEX
  8
d3
10
0.0
 20
 0.0
 30
0.0
 70
     128
 71
-5
 72
12
 73
-13
  0
VERTEX
  8
d3
10
0.0
 20
 0.0
 30
0.0
 70
     128
 71
-5
 72
13
 73
-14
  0
VERTEX
  8
d3
10
0.0
 20
 0.0
 30
0.0
 70
     128
 71
-5
 72
14
 73
-15
  0
VERTEX
  8
d3
10
0.0
 20
 0.0
 30
0.0
 70
     128
 71
-5
 72
15
 73
-16
  0
VERTEX
  8
d3
10
0.0
 20
 0.0
 30
0.0
 70
     128
 71
-17
 72
-18
 73
19
  0
VERTEX
  8
d3
10
0.0
 20
 0.0
 30
0.0
 70
     128
 71
-18
 72
-17
 73
20
  0
VERTEX
  8
d3
10
0.0
 20
 0.0
 30
0.0
 70
     128
 71
-20
 72
17
 73
-21
  0
VERTEX
  8
d3
10
0.0
 20
 0.0
 30
0.0
 70
     128
 71
-20
 72
21
 73
-22
  0
VERTEX
  8
d3
10
0.0
 20
 0.0
 30
0.0
 70
     128
 71
-20
 72
22
 73
-23
  0
VERTEX
  8
d3
10
0.0
 20
 0.0
 30
0.0
 70
     128
 71
-20
 72
23
 73
-24
  0
VERTEX
  8
d3
10
0.0
 20
 0.0
 30
0.0
 70
     128
 71
-20
 72
24
 73
-25
  0
VERTEX
  8
d3
10
0.0
 20
 0.0
 30
0.0
 70
     128
 71
-20
 72
25
 73
-26
  0
VERTEX
  8
d3
10
0.0
 20
 0.0
 30
0.0
 70
     128
 71
-20
 72
26
 73
-27
  0
VERTEX
  8
d3
10
0.0
 20
 0.0
 30
0.0
 70
     128
 71
-20
 72
27
 73
-28
  0
VERTEX
  8
d3
10
0.0
 20
 0.0
 30
0.0
 70
     128
 71
-20
 72
28
 73
-29
  0
VERTEX
  8
d3
10
0.0
 20
 0.0
 30
0.0
 70
     128
 71
-20
 72
29
 73
-30
  0
VERTEX
  8
d3
10
0.0
 20
 0.0
 30
0.0
 70
     128
 71
-20
 72
30
 73
31
  0
VERTEX
  8
d3
10
0.0
 20
 0.0
 30
0.0
 70
     128
 71
-19
 72
32
 73
33
  0
VERTEX
  8
d3
10
0.0
 20
 0.0
 30
0.0
 70
     128
 71
-32
 72
-19
 73
-34
  0
VERTEX
  8
d3
10
0.0
 20
 0.0
 30
0.0
 70
     128
 71
-34
 72
-19
 73
-35
  0
VERTEX
  8
d3
10
0.0
 20
 0.0
 30
0.0
 70
     128
 71
-35
 72
-19
 73
36
  0
VERTEX
  8
d3
10
0.0
 20
 0.0
 30
0.0
 70
     128
 71
-36
 72
-19
 73
37
  0
VERTEX
  8
d3
10
0.0
 20
 0.0
 30
0.0
 70
     128
 71
-37
 72
-19
 73
-18
  0
VERTEX
  8
d3
10
0.0
 20
 0.0
 30
0.0
 70
     128
 71
-37
 72
18
 73
-38
  0
VERTEX
  8
d3
10
0.0
 20
 0.0
 30
0.0
 70
     128
 71
-37
 72
38
 73
-39
  0
VERTEX
  8
d3
10
0.0
 20
 0.0
 30
0.0
 70
     128
 71
-37
 72
-39
 73
40
  0
VERTEX
  8
d3
10
0.0
 20
 0.0
 30
0.0
 70
     128
 71
-40
 72
-39
 73
41
  0
VERTEX
  8
d3
10
0.0
 20
 0.0
 30
0.0
 70
     128
 71
-41
 72
-39
 73
42
  0
VERTEX
  8
d3
10
0.0
 20
 0.0
 30
0.0
 70
     128
 71
-42
 72
-39
 73
43
  0
VERTEX
  8
d3
10
0.0
 20
 0.0
 30
0.0
 70
     128
 71
-43
 72
-39
 73
44
  0
VERTEX
  8
d3
10
0.0
 20
 0.0
 30
0.0
 70
     128
 71
-44
 72
-39
 73
45
  0
VERTEX
  8
d3
10
0.0
 20
 0.0
 30
0.0
 70
     128
 71
-45
 72
-39
 73
46
  0
VERTEX
  8
d3
10
0.0
 20
 0.0
 30
0.0
 70
     128
 71
-46
 72
-39
 73
47
  0
VERTEX
  8
d3
10
0.0
 20
 0.0
 30
0.0
 70
     128
 71
-47
 72
-39
 73
48
  0
VERTEX
  8
d3
10
0.0
 20
 0.0
 30
0.0
 70
     128
 71
-48
 72
-39
 73
49
  0
VERTEX
  8
d3
10
0.0
 20
 0.0
 30
0.0
 70
     128
 71
-49
 72
-39
 73
50
  0
VERTEX
  8
d3
10
0.0
 20
 0.0
 30
0.0
 70
     128
 71
-50
 72
39
 73
51
  0
VERTEX
  8
d3
10
0.0
 20
 0.0
 30
0.0
 70
     128
 71
-52
 72
-53
 73
54
  0
VERTEX
  8
d3
10
0.0
 20
 0.0
 30
0.0
 70
     128
 71
-53
 72
52
 73
-55
  0
VERTEX
  8
d3
10
0.0
 20
 0.0
 30
0.0
 70
     128
 71
-53
 72
55
 73
-56
  0
VERTEX
  8
d3
10
0.0
 20
 0.0
 30
0.0
 70
     128
 71
-53
 72
-56
 73
35
  0
VERTEX
  8
d3
10
0.0
 20
 0.0
 30
0.0
 70
     128
 71
-35
 72
56
 73
-57
  0
VERTEX
  8
d3
10
0.0
 20
 0.0
 30
0.0
 70
     128
 71
-35
 72
57
 73
-58
  0
VERTEX
  8
d3
10
0.0
 20
 0.0
 30
0.0
 70
     128
 71
-35
 72
58
 73
-59
  0
VERTEX
  8
d3
10
0.0
 20
 0.0
 30
0.0
 70
     128
 71
-35
 72
59
 73
-60
  0
VERTEX
  8
d3
10
0.0
 20
 0.0
 30
0.0
 70
     128
 71
-35
 72
60
 73
-61
  0
VERTEX
  8
d3
10
0.0
 20
 0.0
 30
0.0
 70
     128
 71
-35
 72
61
 73
-62
  0
VERTEX
  8
d3
10
0.0
 20
 0.0
 30
0.0
 70
     128
 71
-35
 72
62
 73
-63
  0
VERTEX
  8
d3
10
0.0
 20
 0.0
 30
0.0
 70
     128
 71
-35
 72
63
 73
-64
  0
VERTEX
  8
d3
10
0.0
 20
 0.0
 30
0.0
 70
     128
 71
-35
 72
64
 73
-34
  0
VERTEX
  8
d3
10
0.0
 20
 0.0
 30
0.0
 70
     128
 71
-65
 72
66
 73
-54
  0
VERTEX
  8
d3
10
0.0
 20
 0.0
 30
0.0
 70
     128
 71
-66
 72
-65
 73
67
  0
VERTEX
  8
d3
10
0.0
 20
 0.0
 30
0.0
 70
     128
 71
-67
 72
-65
 73
68
  0
VERTEX
  8
d3
10
0.0
 20
 0.0
 30
0.0
 70
     128
 71
-68
 72
65
 73
-32
  0
VERTEX
  8
d3
10
0.0
 20
 0.0
 30
0.0
 70
     128
 71
-68
 72
-32
 73
69
  0
VERTEX
  8
d3
10
0.0
 20
 0.0
 30
0.0
 70
     128
 71
-69
 72
-32
 73
70
  0
VERTEX
  8
d3
10
0.0
 20
 0.0
 30
0.0
 70
     128
 71
-70
 72
-32
 73
71
  0
VERTEX
  8
d3
10
0.0
 20
 0.0
 30
0.0
 70
     128
 71
-71
 72
-32
 73
72
  0
VERTEX
  8
d3
10
0.0
 20
 0.0
 30
0.0
 70
     128
 71
-72
 72
-32
 73
73
  0
VERTEX
  8
d3
10
0.0
 20
 0.0
 30
0.0
 70
     128
 71
-73
 72
-32
 73
74
  0
VERTEX
  8
d3
10
0.0
 20
 0.0
 30
0.0
 70
     128
 71
-74
 72
-32
 73
75
  0
VERTEX
  8
d3
10
0.0
 20
 0.0
 30
0.0
 70
     128
 71
-75
 72
-32
 73
76
  0
VERTEX
  8
d3
10
0.0
 20
 0.0
 30
0.0
 70
     128
 71
-76
 72
-32
 73
34
  0
VERTEX
  8
d3
10
0.0
 20
 0.0
 30
0.0
 70
     128
 71
-77
 72
78
 73
79
  0
VERTEX
  8
d3
10
0.0
 20
 0.0
 30
0.0
 70
     128
 71
-78
 72
-77
 73
80
  0
VERTEX
  8
d3
10
0.0
 20
 0.0
 30
0.0
 70
     128
 71
-80
 72
-77
 73
81
  0
VERTEX
  8
d3
10
0.0
 20
 0.0
 30
0.0
 70
     128
 71
-81
 72
-77
 73
82
  0
VERTEX
  8
d3
10
0.0
 20
 0.0
 30
0.0
 70
     128
 71
-82
 72
-77
 73
83
  0
VERTEX
  8
d3
10
0.0
 20
 0.0
 30
0.0
 70
     128
 71
-83
 72
-77
 73
84
  0
VERTEX
  8
d3
10
0.0
 20
 0.0
 30
0.0
 70
     128
 71
-84
 72
-77
 73
85
  0
VERTEX
  8
d3
10
0.0
 20
 0.0
 30
0.0
 70
     128
 71
-85
 72
-77
 73
86
  0
VERTEX
  8
d3
10
0.0
 20
 0.0
 30
0.0
 70
     128
 71
-86
 72
-77
 73
87
  0
VERTEX
  8
d3
10
0.0
 20
 0.0
 30
0.0
 70
     128
 71
-87
 72
-77
 73
88
  0
VERTEX
  8
d3
10
0.0
 20
 0.0
 30
0.0
 70
     128
 71
-88
 72
-77
 73
89
  0
VERTEX
  8
d3
10
0.0
 20
 0.0
 30
0.0
 70
     128
 71
-89
 72
-77
 73
90
  0
VERTEX
  8
d3
10
0.0
 20
 0.0
 30
0.0
 70
     128
 71
-90
 72
-77
 73
91
  0
VERTEX
  8
d3
10
0.0
 20
 0.0
 30
0.0
 70
     128
 71
-91
 72
-77
 73
92
  0
VERTEX
  8
d3
10
0.0
 20
 0.0
 30
0.0
 70
     128
 71
-92
 72
-77
 73
93
  0
VERTEX
  8
d3
10
0.0
 20
 0.0
 30
0.0
 70
     128
 71
-93
 72
77
 73
-5
  0
VERTEX
  8
d3
10
0.0
 20
 0.0
 30
0.0
 70
     128
 71
-93
 72
-5
 73
94
  0
VERTEX
  8
d3
10
0.0
 20
 0.0
 30
0.0
 70
     128
 71
-94
 72
-5
 73
-16
  0
VERTEX
  8
d3
10
0.0
 20
 0.0
 30
0.0
 70
     128
 71
-94
 72
16
 73
-65
  0
VERTEX
  8
d3
10
0.0
 20
 0.0
 30
0.0
 70
     128
 71
-94
 72
-65
 73
-54
  0
VERTEX
  8
d3
10
0.0
 20
 0.0
 30
0.0
 70
     128
 71
-94
 72
-54
 73
53
  0
SEQEND
  0
POLYLINE
 8
d3
 66
     1
10
0.0
 20
 0.0
 30
0.0
70
    64
71
4
72
   1
  0
VERTEX
  8
d3
10
250.0
20
-55.0
30
3.0
 70
     192
  0
VERTEX
  8
d3
10
229.99999999999997
20
-55.0
30
0.0
 70
     192
  0
VERTEX
  8
d3
10
250.0
20
-55.0
30
0.0
 70
     192
  0
VERTEX
  8
d3
10
229.99999999999997
20
-55.0
30
3.0
 70
     192
  0
VERTEX
  8
d3
10
0.0
 20
 0.0
 30
0.0
 70
     128
 71
-1
 72
2
 73
3
  0
VERTEX
  8
d3
10
0.0
 20
 0.0
 30
0.0
 70
     128
 71
-2
 72
1
 73
4
  0
SEQEND
  0
POLYLINE
 8
d3
 66
     1
10
0.0
 20
 0.0
 30
0.0
70
    64
71
4
72
   1
  0
VERTEX
  8
d3
10
229.99999999999997
20
-95.0
30
3.0
 70
     192
  0
VERTEX
  8
d3
10
250.0
20
-95.0
30
0.0
 70
     192
  0
VERTEX
  8
d3
10
229.99999999999997
20
-95.0
30
0.0
 70
     192
  0
VERTEX
  8
d3
10
250.0
20
-95.0
30
3.0
 70
     192
  0
VERTEX
  8
d3
10
0.0
 20
 0.0
 30
0.0
 70
     128
 71
-1
 72
2
 73
3
  0
VERTEX
  8
d3
10
0.0
 20
 0.0
 30
0.0
 70
     128
 71
-2
 72
1
 73
4
  0
SEQEND
  0
POLYLINE
 8
d3
 66
     1
10
0.0
 20
 0.0
 30
0.0
70
    64
71
94
72
   1
  0
VERTEX
  8
d3
10
0.0688563822617392
20
-135.44197759641074
30
3.0
 70
     192
  0
VERTEX
  8
d3
10
0.0
20
-134.33546184353017
30
3.0
 70
     192
  0
VERTEX
  8
d3
10
0.0
20
-134.67834861541627
30
3.0
 70
     192
  0
VERTEX
  8
d3
10
0.0
20
-130.0
30
3.0
 70
     192
  0
VERTEX
  8
d3
10
0.0
20
-95.0
30
3.0
 70
     192
  0
VERTEX
  8
d3
10
20.0
20
-95.0
30
3.0
 70
     192
  0
VERTEX
  8
d3
10
0.7294901687515768
20
-138.09016994374946
30
3.0
 70
     192
  0
VERTEX
  8
d3
10
1.7898985479629426
20
-140.60510409351434
30
3.0
 70
     192
  0
VERTEX
  8
d3
10
3.224803556841435
20
-142.9268291685072
30
3.0
 70
     192
  0
VERTEX
  8
d3
10
4.9999999999999964
20
-144.99999999999997
30
3.0
 70
     192
  0
VERTEX
  8
d3
10
7.073170831492772
20
-146.77519644315853
30
3.0
 70
     192
  0
VERTEX
  8
d3
10
9.394895906485646
20
-148.21010145203707
30
3.0
 70
     192
  0
VERTEX
  8
d3
10
11.909830056250525
20
-149.27050983124843
30
3.0
 70
     192
  0
VERTEX
  8
d3
10
14.558022403589247
20
-149.93114361773826
30
3.0
 70
     192
  0
VERTEX
  8
d3
10
15.321651384583761
20
-150.0
30
3.0
 70
     192
  0
VERTEX
  8
d3
10
15.66453815646985
20
-150.0
30
3.0
 70
     192
  0
VERTEX
  8
d3
10
20.0
20
-150.0
30
3.0
 70
     192
  0
VERTEX
  8
d3
10
104.99999999999999
20
-150.0
30
3.0
 70
     192
  0
VERTEX
  8
d3
10
20.000000000000004
20
-55.0
30
3.0
 70
     192
  0
VERTEX
  8
d3
10
234.67834861541624
20
-150.0
30
3.0
 70
     192
  0
VERTEX
  8
d3
10
229.99999999999997
20
-95.0
30
3.0
 70
     192
  0
VERTEX
  8
d3
10
229.99999999999997
20
-150.0
30
3.0
 70
     192
  0
VERTEX
  8
d3
10
250.0
20
-95.0
30
3.0
 70
     192
  0
VERTEX
  8
d3
10
235.44197759641077
20
-149.93114361773826
30
3.0
 70
     192
  0
VERTEX
  8
d3
10
238.09016994374946
20
-149.27050983124843
30
3.0
 70
     192
  0
VERTEX
  8
d3
10
240.60510409351434
20
-148.21010145203707
30
3.0
 70
     192
  0
VERTEX
  8
d3
10
242.92682916850723
20
-146.77519644315856
30
3.0
 70
     192
  0
VERTEX
  8
d3
10
245.0
20
-145.0
30
3.0
 70
     192
  0
VERTEX
  8
d3
10
246.77519644315856
20
-142.92682916850723
30
3.0
 70
     192
  0
VERTEX
  8
d3
10
248.21010145203707
20
-140.60510409351434
30
3.0
 70
     192
  0
VERTEX
  8
d3
10
249.27050983124846
20
-138.09016994374946
30
3.0
 70
     192
  0
VERTEX
  8
d3
10
249.93114361773826
20
-135.44197759641074
30
3.0
 70
     192
  0
VERTEX
  8
d3
10
250.0
20
-134.67834861541655
30
3.0
 70
     192
  0
VERTEX
  8
d3
10
250.0
20
-130.0
30
3.0
 70
     192
  0
VERTEX
  8
d3
10
145.0
20
-130.0
30
3.0
 70
     192
  0
VERTEX
  8
d3
10
145.0
20
-150.0
30
3.0
 70
     192
  0
VERTEX
  8
d3
10
145.0
20
-75.0
30
3.0
 70
     192
  0
VERTEX
  8
d3
10
145.0
20
-20.000000000000007
30
3.0
 70
     192
  0
VERTEX
  8
d3
10
145.0
20
0.0
30
3.0
 70
     192
  0
VERTEX
  8
d3
10
229.99999999999997
20
0.0
30
3.0
 70
     192
  0
VERTEX
  8
d3
10
229.99999999999997
20
-55.0
30
3.0
 70
     192
  0
VERTEX
  8
d3
10
250.0
20
-55.0
30
3.0
 70
     192
  0
VERTEX
  8
d3
10
234.67834861541624
20
0.0
30
3.0
 70
     192
  0
VERTEX
  8
d3
10
235.44197759641077
20
-0.06885638226174766
30
3.0
 70
     192
  0
VERTEX
  8
d3
10
238.09016994374946
20
-0.7294901687515739
30
3.0
 70
     192
  0
VERTEX
  8
d3
10
240.60510409351434
20
-1.7898985479629312
30
3.0
 70
     192
  0
VERTEX
  8
d3
10
242.92682916850723
20
-3.2248035568414264
30
3.0
 70
     192
  0
VERTEX
  8
d3
10
245.0
20
-4.999999999999991
30
3.0
 70
     192
  0
VERTEX
  8
d3
10
246.77519644315856
20
-7.073170831492766
30
3.0
 70
     192
  0
VERTEX
  8
d3
10
248.21010145203707
20
-9.394895906485635
30
3.0
 70
     192
  0
VERTEX
  8
d3
10
249.27050983124846
20
-11.909830056250533
30
3.0
 70
     192
  0
VERTEX
  8
d3
10
249.93114361773826
20
-14.558022403589254
30
3.0
 70
     192
  0
VERTEX
  8
d3
10
250.0
20
-15.321651384583427
30
3.0
 70
     192
  0
VERTEX
  8
d3
10
250.0
20
-20.000000000000007
30
3.0
 70
     192
  0
VERTEX
  8
d3
10
105.68148347421862
20
-69.82361909794957
30
3.0
 70
     192
  0
VERTEX
  8
d3
10
104.99999999999999
20
-20.000000000000007
30
3.0
 70
     192
  0
VERTEX
  8
d3
10
104.99999999999999
20
-75.0
30
3.0
 70
     192
  0
VERTEX
  8
d3
10
107.67949192431121
20
-64.99999999999999
30
3.0
 70
     192
  0
VERTEX
  8
d3
10
110.85786437626903
20
-60.857864376269035
30
3.0
 70
     192
  0
VERTEX
  8
d3
10
114.99999999999999
20
-57.679491924311215
30
3.0
 70
     192
  0
VERTEX
  8
d3
10
119.82361909794959
20
-55.68148347421862
30
3.0
 70
     192
  0
VERTEX
  8
d3
10
125.0
20
-54.99999999999999
30
3.0
 70
     192
  0
VERTEX
  8
d3
10
130.1763809020504
20
-55.68148347421862
30
3.0
 70
     192
  0
VERTEX
  8
d3
10
135.0
20
-57.679491924311215
30
3.0
 70
     192
  0
VERTEX
  8
d3
10
139.14213562373095
20
-60.85786437626905
30
3.0
 70
     192
  0
VERTEX
  8
d3
10
142.3205080756888
20
-65.0
30
3.0
 70
     192
  0
VERTEX
  8
d3
10
144.31851652578138
20
-69.82361909794957
30
3.0
 70
     192
  0
VERTEX
  8
d3
10
104.99999999999999
20
-130.0
30
3.0
 70
     192
  0
VERTEX
  8
d3
10
105.68148347421862
20
-80.17638090205041
30
3.0
 70
     192
  0
VERTEX
  8
d3
10
107.67949192431121
20
-85.0
30
3.0
 70
     192
  0
VERTEX
  8
d3
10
110.85786437626903
20
-89.14213562373095
30
3.0
 70
     192
  0
VERTEX
  8
d3
10
114.99999999999999
20
-92.32050807568876
30
3.0
 70
     192
  0
VERTEX
  8
d3
10
119.82361909794956
20
-94.31851652578138
30
3.0
 70
     192
  0
VERTEX
  8
d3
10
125.0
20
-95.0
30
3.0
 70
     192
  0
VERTEX
  8
d3
10
130.1763809020504
20
-94.31851652578138
30
3.0
 70
     192
  0
VERTEX
  8
d3
10
134.99999999999997
20
-92.32050807568878
30
3.0
 70
     192
  0
VERTEX
  8
d3
10
139.14213562373095
20
-89.14213562373097
30
3.0
 70
     192
  0
VERTEX
  8
d3
10
142.3205080756888
20
-85.00000000000001
30
3.0
 70
     192
  0
VERTEX
  8
d3
10
144.31851652578138
20
-80.17638090205043
30
3.0
 70
     192
  0
VERTEX
  8
d3
10
0.0
20
-20.000000000000007
30
3.0
 70
     192
  0
VERTEX
  8
d3
10
0.0
20
-55.0
30
3.0
 70
     192
  0
VERTEX
  8
d3
10
0.0
20
-15.32165138458372
30
3.0
 70
     192
  0
VERTEX
  8
d3
10
0.0688563822617392
20
-14.558022403589254
30
3.0
 70
     192
  0
VERTEX
  8
d3
10
0.7294901687515739
20
-11.909830056250533
30
3.0
 70
     192
  0
VERTEX
  8
d3
10
1.789898547962937
20
-9.394895906485658
30
3.0
 70
     192
  0
VERTEX
  8
d3
10
3.2248035568414295
20
-7.073170831492766
30
3.0
 70
     192
  0
VERTEX
  8
d3
10
4.999999999999995
20
-4.999999999999991
30
3.0
 70
     192
  0
VERTEX
  8
d3
10
7.073170831492771
20
-3.2248035568414264
30
3.0
 70
     192
  0
VERTEX
  8
d3
10
9.394895906485647
20
-1.7898985479629312
30
3.0
 70
     192
  0
VERTEX
  8
d3
10
11.909830056250525
20
-0.7294901687515739
30
3.0
 70
     192
  0
VERTEX
  8
d3
10
14.558022403589245
20
-0.06885638226174766
30
3.0
 70
     192
  0
VERTEX
  8
d3
10
15.321651384583719
20
0.0
30
3.0
 70
     192
  0
VERTEX
  8
d3
10
20.0
20
0.0
30
3.0
 70
     192
  0
VERTEX
  8
d3
10
104.99999999999999
20
0.0
30
3.0
 70
     192
  0
VERTEX
  8
d3
10
0.0
 20
 0.0
 30
0.0
 70
     128
 71
-1
 72
2
 73
3
  0
VERTEX
  8
d3
10
0.0
 20
 0.0
 30
0.0
 70
     128
 71
-2
 72
-1
 73
4
  0
VERTEX
  8
d3
10
0.0
 20
 0.0
 30
0.0
 70
     128
 71
-4
 72
-1
 73
5
  0
VERTEX
  8
d3
10
0.0
 20
 0.0
 30
0.0
 70
     128
 71
-5
 72
-1
 73
6
  0
VERTEX
  8
d3
10
0.0
 20
 0.0
 30
0.0
 70
     128
 71
-6
 72
1
 73
-7
  0
VERTEX
  8
d3
10
0.0
 20
 0.0
 30
0.0
 70
     128
 71
-6
 72
7
 73
-8
  0
VERTEX
  8
d3
10
0.0
 20
 0.0
 30
0.0
 70
     128
 71
-6
 72
8
 73
-9
  0
VERTEX
  8
d3
10
0.0
 20
 0.0
 30
0.0
 70
     128
 71
-6
 72
9
 73
-10
  0
VERTEX
  8
d3
10
0.0
 20
 0.0
 30
0.0
 70
     128
 71
-6
 72
10
 73
-11
  0
VERTEX
  8
d3
10
0.0
 20
 0.0
 30
0.0
 70
     128
 71
-6
 72
11
 73
-12
  0
VERTEX
  8
d3
10
0.0
 20
 0.0
 30
0.0
 70
     128
 71
-6
 72
12
 73
-13
  0
VERTEX
  8
d3
10
0.0
 20
 0.0
 30
0.0
 70
     128
 71
-6
 72
13
 73
-14
  0
VERTEX
  8
d3
10
0.0
 20
 0.0
 30
0.0
 70
     128
 71
-6
 72
14
 73
-15
  0
VERTEX
  8
d3
10
0.0
 20
 0.0
 30
0.0
 70
     128
 71
-6
 72
15
 73
-16
  0
VERTEX
  8
d3
10
0.0
 20
 0.0
 30
0.0
 70
     128
 71
-6
 72
16
 73
-17
  0
VERTEX
  8
d3
10
0.0
 20
 0.0
 30
0.0
 70
     128
 71
-6
 72
17
 73
-18
  0
VERTEX
  8
d3
10
0.0
 20
 0.0
 30
0.0
 70
     128
 71
-6
 72
-18
 73
19
  0
VERTEX
  8
d3
10
0.0
 20
 0.0
 30
0.0
 70
     128
 71
-20
 72
-21
 73
22
  0
VERTEX
  8
d3
10
0.0
 20
 0.0
 30
0.0
 70
     128
 71
-21
 72
-20
 73
23
  0
VERTEX
  8
d3
10
0.0
 20
 0.0
 30
0.0
 70
     128
 71
-23
 72
20
 73
-24
  0
VERTEX
  8
d3
10
0.0
 20
 0.0
 30
0.0
 70
     128
 71
-23
 72
24
 73
-25
  0
VERTEX
  8
d3
10
0.0
 20
 0.0
 30
0.0
 70
     128
 71
-23
 72
25
 73
-26
  0
VERTEX
  8
d3
10
0.0
 20
 0.0
 30
0.0
 70
     128
 71
-23
 72
26
 73
-27
  0
VERTEX
  8
d3
10
0.0
 20
 0.0
 30
0.0
 70
     128
 71
-23
 72
27
 73
-28
  0
VERTEX
  8
d3
10
0.0
 20
 0.0
 30
0.0
 70
     128
 71
-23
 72
28
 73
-29
  0
VERTEX
  8
d3
10
0.0
 20
 0.0
 30
0.0
 70
     128
 71
-23
 72
29
 73
-30
  0
VERTEX
  8
d3
10
0.0
 20
 0.0
 30
0.0
 70
     128
 71
-23
 72
30
 73
-31
  0
VERTEX
  8
d3
10
0.0
 20
 0.0
 30
0.0
 70
     128
 71
-23
 72
31
 73
-32
  0
VERTEX
  8
d3
10
0.0
 20
 0.0
 30
0.0
 70
     128
 71
-23
 72
32
 73
-33
  0
VERTEX
  8
d3
10
0.0
 20
 0.0
 30
0.0
 70
     128
 71
-23
 72
33
 73
34
  0
VERTEX
  8
d3
10
0.0
 20
 0.0
 30
0.0
 70
     128
 71
-22
 72
35
 73
36
  0
VERTEX
  8
d3
10
0.0
 20
 0.0
 30
0.0
 70
     128
 71
-35
 72
-22
 73
-37
  0
VERTEX
  8
d3
10
0.0
 20
 0.0
 30
0.0
 70
     128
 71
-37
 72
-22
 73
-38
  0
VERTEX
  8
d3
10
0.0
 20
 0.0
 30
0.0
 70
     128
 71
-38
 72
-22
 73
39
  0
VERTEX
  8
d3
10
0.0
 20
 0.0
 30
0.0
 70
     128
 71
-39
 72
-22
 73
40
  0
VERTEX
  8
d3
10
0.0
 20
 0.0
 30
0.0
 70
     128
 71
-40
 72
-22
 73
-21
  0
VERTEX
  8
d3
10
0.0
 20
 0.0
 30
0.0
 70
     128
 71
-40
 72
21
 73
-41
  0
VERTEX
  8
d3
10
0.0
 20
 0.0
 30
0.0
 70
     128
 71
-40
 72
41
 73
-42
  0
VERTEX
  8
d3
10
0.0
 20
 0.0
 30
0.0
 70
     128
 71
-40
 72
-42
 73
43
  0
VERTEX
  8
d3
10
0.0
 20
 0.0
 30
0.0
 70
     128
 71
-43
 72
-42
 73
44
  0
VERTEX
  8
d3
10
0.0
 20
 0.0
 30
0.0
 70
     128
 71
-44
 72
-42
 73
45
  0
VERTEX
  8
d3
10
0.0
 20
 0.0
 30
0.0
 70
     128
 71
-45
 72
-42
 73
46
  0
VERTEX
  8
d3
10
0.0
 20
 0.0
 30
0.0
 70
     128
 71
-46
 72
-42
 73
47
  0
VERTEX
  8
d3
10
0.0
 20
 0.0
 30
0.0
 70
     128
 71
-47
 72
-42
 73
48
  0
VERTEX
  8
d3
10
0.0
 20
 0.0
 30
0.0
 70
     128
 71
-48
 72
-42
 73
49
  0
VERTEX
  8
d3
10
0.0
 20
 0.0
 30
0.0
 70
     128
 71
-49
 72
-42
 73
50
  0
VERTEX
  8
d3
10
0.0
 20
 0.0
 30
0.0
 70
     128
 71
-50
 72
-42
 73
51
  0
VERTEX
  8
d3
10
0.0
 20
 0.0
 30
0.0
 70
     128
 71
-51
 72
-42
 73
52
  0
VERTEX
  8
d3
10
0.0
 20
 0.0
 30
0.0
 70
     128
 71
-52
 72
-42
 73
53
  0
VERTEX
  8
d3
10
0.0
 20
 0.0
 30
0.0
 70
     128
 71
-53
 72
42
 73
54
  0
VERTEX
  8
d3
10
0.0
 20
 0.0
 30
0.0
 70
     128
 71
-55
 72
-56
 73
57
  0
VERTEX
  8
d3
10
0.0
 20
 0.0
 30
0.0
 70
     128
 71
-56
 72
55
 73
-58
  0
VERTEX
  8
d3
10
0.0
 20
 0.0
 30
0.0
 70
     128
 71
-56
 72
58
 73
-59
  0
VERTEX
  8
d3
10
0.0
 20
 0.0
 30
0.0
 70
     128
 71
-56
 72
-59
 73
38
  0
VERTEX
  8
d3
10
0.0
 20
 0.0
 30
0.0
 70
     128
 71
-38
 72
59
 73
-60
  0
VERTEX
  8
d3
10
0.0
 20
 0.0
 30
0.0
 70
     128
 71
-38
 72
60
 73
-61
  0
VERTEX
  8
d3
10
0.0
 20
 0.0
 30
0.0
 70
     128
 71
-38
 72
61
 73
-62
  0
VERTEX
  8
d3
10
0.0
 20
 0.0
 30
0.0
 70
     128
 71
-38
 72
62
 73
-63
  0
VERTEX
  8
d3
10
0.0
 20
 0.0
 30
0.0
 70
     128
 71
-38
 72
63
 73
-64
  0
VERTEX
  8
d3
10
0.0
 20
 0.0
 30
0.0
 70
     128
 71
-38
 72
64
 73
-65
  0
VERTEX
  8
d3
10
0.0
 20
 0.0
 30
0.0
 70
     128
 71
-38
 72
65
 73
-66
  0
VERTEX
  8
d3
10
0.0
 20
 0.0
 30
0.0
 70
     128
 71
-38
 72
66
 73
-67
  0
VERTEX
  8
d3
10
0.0
 20
 0.0
 30
0.0
 70
     128
 71
-38
 72
67
 73
-37
  0
VERTEX
  8
d3
10
0.0
 20
 0.0
 30
0.0
 70
     128
 71
-68
 72
69
 73
-57
  0
VERTEX
  8
d3
10
0.0
 20
 0.0
 30
0.0
 70
     128
 71
-69
 72
-68
 73
70
  0
VERTEX
  8
d3
10
0.0
 20
 0.0
 30
0.0
 70
     128
 71
-70
 72
-68
 73
71
  0
VERTEX
  8
d3
10
0.0
 20
 0.0
 30
0.0
 70
     128
 71
-71
 72
68
 73
-35
  0
VERTEX
  8
d3
10
0.0
 20
 0.0
 30
0.0
 70
     128
 71
-71
 72
-35
 73
72
  0
VERTEX
  8
d3
10
0.0
 20
 0.0
 30
0.0
 70
     128
 71
-72
 72
-35
 73
73
  0
VERTEX
  8
d3
10
0.0
 20
 0.0
 30
0.0
 70
     128
 71
-73
 72
-35
 73
74
  0
VERTEX
  8
d3
10
0.0
 20
 0.0
 30
0.0
 70
     128
 71
-74
 72
-35
 73
75
  0
VERTEX
  8
d3
10
0.0
 20
 0.0
 30
0.0
 70
     128
 71
-75
 72
-35
 73
76
  0
VERTEX
  8
d3
10
0.0
 20
 0.0
 30
0.0
 70
     128
 71
-76
 72
-35
 73
77
  0
VERTEX
  8
d3
10
0.0
 20
 0.0
 30
0.0
 70
     128
 71
-77
 72
-35
 73
78
  0
VERTEX
  8
d3
10
0.0
 20
 0.0
 30
0.0
 70
     128
 71
-78
 72
-35
 73
79
  0
VERTEX
  8
d3
10
0.0
 20
 0.0
 30
0.0
 70
     128
 71
-79
 72
-35
 73
37
  0
VERTEX
  8
d3
10
0.0
 20
 0.0
 30
0.0
 70
     128
 71
-19
 72
80
 73
81
  0
VERTEX
  8
d3
10
0.0
 20
 0.0
 30
0.0
 70
     128
 71
-80
 72
-19
 73
82
  0
VERTEX
  8
d3
10
0.0
 20
 0.0
 30
0.0
 70
     128
 71
-82
 72
-19
 73
83
  0
VERTEX
  8
d3
10
0.0
 20
 0.0
 30
0.0
 70
     128
 71
-83
 72
-19
 73
84
  0
VERTEX
  8
d3
10
0.0
 20
 0.0
 30
0.0
 70
     128
 71
-84
 72
-19
 73
85
  0
VERTEX
  8
d3
10
0.0
 20
 0.0
 30
0.0
 70
     128
 71
-85
 72
-19
 73
86
  0
VERTEX
  8
d3
10
0.0
 20
 0.0
 30
0.0
 70
     128
 71
-86
 72
-19
 73
87
  0
VERTEX
  8
d3
10
0.0
 20
 0.0
 30
0.0
 70
     128
 71
-87
 72
-19
 73
88
  0
VERTEX
  8
d3
10
0.0
 20
 0.0
 30
0.0
 70
     128
 71
-88
 72
-19
 73
89
  0
VERTEX
  8
d3
10
0.0
 20
 0.0
 30
0.0
 70
     128
 71
-89
 72
-19
 73
90
  0
VERTEX
  8
d3
10
0.0
 20
 0.0
 30
0.0
 70
     128
 71
-90
 72
-19
 73
91
  0
VERTEX
  8
d3
10
0.0
 20
 0.0
 30
0.0
 70
     128
 71
-91
 72
-19
 73
92
  0
VERTEX
  8
d3
10
0.0
 20
 0.0
 30
0.0
 70
     128
 71
-92
 72
-19
 73
93
  0
VERTEX
  8
d3
10
0.0
 20
 0.0
 30
0.0
 70
     128
 71
-93
 72
-19
 73
94
  0
VERTEX
  8
d3
10
0.0
 20
 0.0
 30
0.0
 70
     128
 71
-94
 72
-19
 73
-18
  0
VERTEX
  8
d3
10
0.0
 20
 0.0
 30
0.0
 70
     128
 71
-94
 72
18
 73
-68
  0
VERTEX
  8
d3
10
0.0
 20
 0.0
 30
0.0
 70
     128
 71
-94
 72
-68
 73
-57
  0
VERTEX
  8
d3
10
0.0
 20
 0.0
 30
0.0
 70
     128
 71
-94
 72
-57
 73
56
  0
SEQEND
  0
POLYLINE
 8
d3
 66
     1
10
0.0
 20
 0.0
 30
0.0
70
    64
71
4
72
   1
  0
VERTEX
  8
d3
10
250.0
20
-95.0
30
0.0
 70
     192
  0
VERTEX
  8
d3
10
250.0
20
-130.0
30
3.0
 70
     192
  0
VERTEX
  8
d3
10
250.0
20
-130.0
30
0.0
 70
     192
  0
VERTEX
  8
d3
10
250.0
20
-95.0
30
3.0
 70
     192
  0
VERTEX
  8
d3
10
0.0
 20
 0.0
 30
0.0
 70
     128
 71
-1
 72
2
 73
3
  0
VERTEX
  8
d3
10
0.0
 20
 0.0
 30
0.0
 70
     128
 71
-2
 72
1
 73
4
  0
SEQEND
  0
POLYLINE
 8
d3
 66
     1
10
0.0
 20
 0.0
 30
0.0
70
    64
71
4
72
   1
  0
VERTEX
  8
d3
10
249.27050983124846
20
-11.909830056250533
30
0.0
 70
     192
  0
VERTEX
  8
d3
10
249.93114361773826
20
-14.558022403589254
30
3.0
 70
     192
  0
VERTEX
  8
d3
10
249.93114361773826
20
-14.558022403589254
30
0.0
 70
     192
  0
VERTEX
  8
d3
10
249.27050983124846
20
-11.909830056250533
30
3.0
 70
     192
  0
VERTEX
  8
d3
10
0.0
 20
 0.0
 30
0.0
 70
     128
 71
-1
 72
2
 73
3
  0
VERTEX
  8
d3
10
0.0
 20
 0.0
 30
0.0
 70
     128
 71
-2
 72
1
 73
4
  0
SEQEND
  0
POLYLINE
 8
d3
 66
     1
10
0.0
 20
 0.0
 30
0.0
70
    64
71
4
72
   1
  0
VERTEX
  8
d3
10
242.92682916850723
20
-3.2248035568414264
30
3.0
 70
     192
  0
VERTEX
  8
d3
10
245.0
20
-4.999999999999991
30
0.0
 70
     192
  0
VERTEX
  8
d3
10
242.92682916850723
20
-3.2248035568414264
30
0.0
 70
     192
  0
VERTEX
  8
d3
10
245.0
20
-4.999999999999991
30
3.0
 70
     192
  0
VERTEX
  8
d3
10
0.0
 20
 0.0
 30
0.0
 70
     128
 71
-1
 72
2
 73
3
  0
VERTEX
  8
d3
10
0.0
 20
 0.0
 30
0.0
 70
     128
 71
-2
 72
1
 73
4
  0
SEQEND
  0
POLYLINE
 8
d3
 66
     1
10
0.0
 20
 0.0
 30
0.0
70
    64
71
4
72
   1
  0
VERTEX
  8
d3
10
250.0
20
-134.67834861541655
30
0.0
 70
     192
  0
VERTEX
  8
d3
10
249.93114361773826
20
-135.44197759641074
30
3.0
 70
     192
  0
VERTEX
  8
d3
10
249.93114361773826
20
-135.44197759641074
30
0.0
 70
     192
  0
VERTEX
  8
d3
10
250.0
20
-134.67834861541655
30
3.0
 70
     192
  0
VERTEX
  8
d3
10
0.0
 20
 0.0
 30
0.0
 70
     128
 71
-1
 72
2
 73
3
  0
VERTEX
  8
d3
10
0.0
 20
 0.0
 30
0.0
 70
     128
 71
-2
 72
1
 73
4
  0
SEQEND
  0
POLYLINE
 8
d3
 66
     1
10
0.0
 20
 0.0
 30
0.0
70
    64
71
4
72
   1
  0
VERTEX
  8
d3
10
250.0
20
-15.321651384583427
30
0.0
 70
     192
  0
VERTEX
  8
d3
10
250.0
20
-20.000000000000007
30
3.0
 70
     192
  0
VERTEX
  8
d3
10
250.0
20
-20.000000000000007
30
0.0
 70
     192
  0
VERTEX
  8
d3
10
250.0
20
-15.321651384583427
30
3.0
 70
     192
  0
VERTEX
  8
d3
10
0.0
 20
 0.0
 30
0.0
 70
     128
 71
-1
 72
2
 73
3
  0
VERTEX
  8
d3
10
0.0
 20
 0.0
 30
0.0
 70
     128
 71
-2
 72
1
 73
4
  0
SEQEND
  0
POLYLINE
 8
d3
 66
     1
10
0.0
 20
 0.0
 30
0.0
70
    64
71
4
72
   1
  0
VERTEX
  8
d3
10
249.93114361773826
20
-135.44197759641074
30
0.0
 70
     192
  0
VERTEX
  8
d3
10
249.27050983124846
20
-138.09016994374946
30
3.0
 70
     192
  0
VERTEX
  8
d3
10
249.27050983124846
20
-138.09016994374946
30
0.0
 70
     192
  0
VERTEX
  8
d3
10
249.93114361773826
20
-135.44197759641074
30
3.0
 70
     192
  0
VERTEX
  8
d3
10
0.0
 20
 0.0
 30
0.0
 70
     128
 71
-1
 72
2
 73
3
  0
VERTEX
  8
d3
10
0.0
 20
 0.0
 30
0.0
 70
     128
 71
-2
 72
1
 73
4
  0
SEQEND
  0
POLYLINE
 8
d3
 66
     1
10
0.0
 20
 0.0
 30
0.0
70
    64
71
4
72
   1
  0
VERTEX
  8
d3
10
0.0
20
-134.33546184353017
30
3.0
 70
     192
  0
VERTEX
  8
d3
10
0.0
20
-134.67834861541627
30
0.0
 70
     192
  0
VERTEX
  8
d3
10
0.0
20
-134.67834861541627
30
3.0
 70
     192
  0
VERTEX
  8
d3
10
0.0
20
-134.33546184353017
30
0.0
 70
     192
  0
VERTEX
  8
d3
10
0.0
 20
 0.0
 30
0.0
 70
     128
 71
-1
 72
2
 73
3
  0
VERTEX
  8
d3
10
0.0
 20
 0.0
 30
0.0
 70
     128
 71
-2
 72
1
 73
4
  0
SEQEND
  0
POLYLINE
 8
d3
 66
     1
10
0.0
 20
 0.0
 30
0.0
70
    64
71
4
72
   1
  0
VERTEX
  8
d3
10
249.27050983124846
20
-138.09016994374946
30
0.0
 70
     192
  0
VERTEX
  8
d3
10
248.21010145203707
20
-140.60510409351434
30
3.0
 70
     192
  0
VERTEX
  8
d3
10
248.21010145203707
20
-140.60510409351434
30
0.0
 70
     192
  0
VERTEX
  8
d3
10
249.27050983124846
20
-138.09016994374946
30
3.0
 70
     192
  0
VERTEX
  8
d3
10
0.0
 20
 0.0
 30
0.0
 70
     128
 71
-1
 72
2
 73
3
  0
VERTEX
  8
d3
10
0.0
 20
 0.0
 30
0.0
 70
     128
 71
-2
 72
1
 73
4
  0
SEQEND
  0
POLYLINE
 8
d3
 66
     1
10
0.0
 20
 0.0
 30
0.0
70
    64
71
4
72
   1
  0
VERTEX
  8
d3
10
248.21010145203707
20
-140.60510409351434
30
0.0
 70
     192
  0
VERTEX
  8
d3
10
246.77519644315856
20
-142.92682916850723
30
3.0
 70
     192
  0
VERTEX
  8
d3
10
246.77519644315856
20
-142.92682916850723
30
0.0
 70
     192
  0
VERTEX
  8
d3
10
248.21010145203707
20
-140.60510409351434
30
3.0
 70
     192
  0
VERTEX
  8
d3
10
0.0
 20
 0.0
 30
0.0
 70
     128
 71
-1
 72
2
 73
3
  0
VERTEX
  8
d3
10
0.0
 20
 0.0
 30
0.0
 70
     128
 71
-2
 72
1
 73
4
  0
SEQEND
  0
POLYLINE
 8
d3
 66
     1
10
0.0
 20
 0.0
 30
0.0
70
    64
71
4
72
   1
  0
VERTEX
  8
d3
10
246.77519644315856
20
-142.92682916850723
30
0.0
 70
     192
  0
VERTEX
  8
d3
10
245.0
20
-145.0
30
3.0
 70
     192
  0
VERTEX
  8
d3
10
245.0
20
-145.0
30
0.0
 70
     192
  0
VERTEX
  8
d3
10
246.77519644315856
20
-142.92682916850723
30
3.0
 70
     192
  0
VERTEX
  8
d3
10
0.0
 20
 0.0
 30
0.0
 70
     128
 71
-1
 72
2
 73
3
  0
VERTEX
  8
d3
10
0.0
 20
 0.0
 30
0.0
 70
     128
 71
-2
 72
1
 73
4
  0
SEQEND
  0
POLYLINE
 8
d3
 66
     1
10
0.0
 20
 0.0
 30
0.0
70
    64
71
4
72
   1
  0
VERTEX
  8
d3
10
245.0
20
-145.0
30
3.0
 70
     192
  0
VERTEX
  8
d3
10
242.92682916850723
20
-146.77519644315856
30
0.0
 70
     192
  0
VERTEX
  8
d3
10
245.0
20
-145.0
30
0.0
 70
     192
  0
VERTEX
  8
d3
10
242.92682916850723
20
-146.77519644315856
30
3.0
 70
     192
  0
VERTEX
  8
d3
10
0.0
 20
 0.0
 30
0.0
 70
     128
 71
-1
 72
2
 73
3
  0
VERTEX
  8
d3
10
0.0
 20
 0.0
 30
0.0
 70
     128
 71
-2
 72
1
 73
4
  0
SEQEND
  0
POLYLINE
 8
d3
 66
     1
10
0.0
 20
 0.0
 30
0.0
70
    64
71
4
72
   1
  0
VERTEX
  8
d3
10
238.09016994374946
20
-0.7294901687515739
30
3.0
 70
     192
  0
VERTEX
  8
d3
10
240.60510409351434
20
-1.7898985479629312
30
0.0
 70
     192
  0
VERTEX
  8
d3
10
238.09016994374946
20
-0.7294901687515739
30
0.0
 70
     192
  0
VERTEX
  8
d3
10
240.60510409351434
20
-1.7898985479629312
30
3.0
 70
     192
  0
VERTEX
  8
d3
10
0.0
 20
 0.0
 30
0.0
 70
     128
 71
-1
 72
2
 73
3
  0
VERTEX
  8
d3
10
0.0
 20
 0.0
 30
0.0
 70
     128
 71
-2
 72
1
 73
4
  0
SEQEND
  0
POLYLINE
 8
d3
 66
     1
10
0.0
 20
 0.0
 30
0.0
70
    64
71
4
72
   1
  0
VERTEX
  8
d3
10
0.0
20
-95.0
30
3.0
 70
     192
  0
VERTEX
  8
d3
10
0.0
20
-130.0
30
0.0
 70
     192
  0
VERTEX
  8
d3
10
0.0
20
-130.0
30
3.0
 70
     192
  0
VERTEX
  8
d3
10
0.0
20
-95.0
30
0.0
 70
     192
  0
VERTEX
  8
d3
10
0.0
 20
 0.0
 30
0.0
 70
     128
 71
-1
 72
2
 73
3
  0
VERTEX
  8
d3
10
0.0
 20
 0.0
 30
0.0
 70
     128
 71
-2
 72
1
 73
4
  0
SEQEND
  0
POLYLINE
 8
d3
 66
     1
10
0.0
 20
 0.0
 30
0.0
70
    64
71
4
72
   1
  0
VERTEX
  8
d3
10
0.0688563822617392
20
-14.558022403589254
30
3.0
 70
     192
  0
VERTEX
  8
d3
10
0.0
20
-15.32165138458372
30
0.0
 70
     192
  0
VERTEX
  8
d3
10
0.0
20
-15.32165138458372
30
3.0
 70
     192
  0
VERTEX
  8
d3
10
0.0688563822617392
20
-14.558022403589254
30
0.0
 70
     192
  0
VERTEX
  8
d3
10
0.0
 20
 0.0
 30
0.0
 70
     128
 71
-1
 72
2
 73
3
  0
VERTEX
  8
d3
10
0.0
 20
 0.0
 30
0.0
 70
     128
 71
-2
 72
1
 73
4
  0
SEQEND
  0
POLYLINE
 8
d3
 66
     1
10
0.0
 20
 0.0
 30
0.0
70
    64
71
4
72
   1
  0
VERTEX
  8
d3
10
0.0688563822617392
20
-135.44197759641074
30
3.0
 70
     192
  0
VERTEX
  8
d3
10
0.7294901687515768
20
-138.09016994374946
30
0.0
 70
     192
  0
VERTEX
  8
d3
10
0.7294901687515768
20
-138.09016994374946
30
3.0
 70
     192
  0
VERTEX
  8
d3
10
0.0688563822617392
20
-135.44197759641074
30
0.0
 70
     192
  0
VERTEX
  8
d3
10
0.0
 20
 0.0
 30
0.0
 70
     128
 71
-1
 72
2
 73
3
  0
VERTEX
  8
d3
10
0.0
 20
 0.0
 30
0.0
 70
     128
 71
-2
 72
1
 73
4
  0
SEQEND
  0
POLYLINE
 8
d3
 66
     1
10
0.0
 20
 0.0
 30
0.0
70
    64
71
4
72
   1
  0
VERTEX
  8
d3
10
235.44197759641077
20
-0.06885638226174766
30
3.0
 70
     192
  0
VERTEX
  8
d3
10
238.09016994374946
20
-0.7294901687515739
30
0.0
 70
     192
  0
VERTEX
  8
d3
10
235.44197759641077
20
-0.06885638226174766
30
0.0
 70
     192
  0
VERTEX
  8
d3
10
238.09016994374946
20
-0.7294901687515739
30
3.0
 70
     192
  0
VERTEX
  8
d3
10
0.0
 20
 0.0
 30
0.0
 70
     128
 71
-1
 72
2
 73
3
  0
VERTEX
  8
d3
10
0.0
 20
 0.0
 30
0.0
 70
     128
 71
-2
 72
1
 73
4
  0
SEQEND
  0
POLYLINE
 8
d3
 66
     1
10
0.0
 20
 0.0
 30
0.0
70
    64
71
4
72
   1
  0
VERTEX
  8
d3
10
7.073170831492772
20
-146.77519644315853
30
3.0
 70
     192
  0
VERTEX
  8
d3
10
4.9999999999999964
20
-144.99999999999997
30
0.0
 70
     192
  0
VERTEX
  8
d3
10
7.073170831492772
20
-146.77519644315853
30
0.0
 70
     192
  0
VERTEX
  8
d3
10
4.9999999999999964
20
-144.99999999999997
30
3.0
 70
     192
  0
VERTEX
  8
d3
10
0.0
 20
 0.0
 30
0.0
 70
     128
 71
-1
 72
2
 73
3
  0
VERTEX
  8
d3
10
0.0
 20
 0.0
 30
0.0
 70
     128
 71
-2
 72
1
 73
4
  0
SEQEND
  0
POLYLINE
 8
d3
 66
     1
10
0.0
 20
 0.0
 30
0.0
70
    64
71
4
72
   1
  0
VERTEX
  8
d3
10
240.60510409351434
20
-1.7898985479629312
30
3.0
 70
     192
  0
VERTEX
  8
d3
10
242.92682916850723
20
-3.2248035568414264
30
0.0
 70
     192
  0
VERTEX
  8
d3
10
240.60510409351434
20
-1.7898985479629312
30
0.0
 70
     192
  0
VERTEX
  8
d3
10
242.92682916850723
20
-3.2248035568414264
30
3.0
 70
     192
  0
VERTEX
  8
d3
10
0.0
 20
 0.0
 30
0.0
 70
     128
 71
-1
 72
2
 73
3
  0
VERTEX
  8
d3
10
0.0
 20
 0.0
 30
0.0
 70
     128
 71
-2
 72
1
 73
4
  0
SEQEND
  0
POLYLINE
 8
d3
 66
     1
10
0.0
 20
 0.0
 30
0.0
70
    64
71
4
72
   1
  0
VERTEX
  8
d3
10
246.77519644315856
20
-7.073170831492766
30
0.0
 70
     192
  0
VERTEX
  8
d3
10
248.21010145203707
20
-9.394895906485635
30
3.0
 70
     192
  0
VERTEX
  8
d3
10
248.21010145203707
20
-9.394895906485635
30
0.0
 70
     192
  0
VERTEX
  8
d3
10
246.77519644315856
20
-7.073170831492766
30
3.0
 70
     192
  0
VERTEX
  8
d3
10
0.0
 20
 0.0
 30
0.0
 70
     128
 71
-1
 72
2
 73
3
  0
VERTEX
  8
d3
10
0.0
 20
 0.0
 30
0.0
 70
     128
 71
-2
 72
1
 73
4
  0
SEQEND
  0
POLYLINE
 8
d3
 66
     1
10
0.0
 20
 0.0
 30
0.0
70
    64
71
4
72
   1
  0
VERTEX
  8
d3
10
15.66453815646985
20
-150.0
30
3.0
 70
     192
  0
VERTEX
  8
d3
10
15.321651384583761
20
-150.0
30
0.0
 70
     192
  0
VERTEX
  8
d3
10
15.66453815646985
20
-150.0
30
0.0
 70
     192
  0
VERTEX
  8
d3
10
15.321651384583761
20
-150.0
30
3.0
 70
     192
  0
VERTEX
  8
d3
10
0.0
 20
 0.0
 30
0.0
 70
     128
 71
-1
 72
2
 73
3
  0
VERTEX
  8
d3
10
0.0
 20
 0.0
 30
0.0
 70
     128
 71
-2
 72
1
 73
4
  0
SEQEND
  0
POLYLINE
 8
d3
 66
     1
10
0.0
 20
 0.0
 30
0.0
70
    64
71
4
72
   1
  0
VERTEX
  8
d3
10
20.000000000000004
20
-55.0
30
3.0
 70
     192
  0
VERTEX
  8
d3
10
20.0
20
-95.0
30
0.0
 70
     192
  0
VERTEX
  8
d3
10
20.0
20
-95.0
30
3.0
 70
     192
  0
VERTEX
  8
d3
10
20.000000000000004
20
-55.0
30
0.0
 70
     192
  0
VERTEX
  8
d3
10
0.0
 20
 0.0
 30
0.0
 70
     128
 71
-1
 72
2
 73
3
  0
VERTEX
  8
d3
10
0.0
 20
 0.0
 30
0.0
 70
     128
 71
-2
 72
1
 73
4
  0
SEQEND
  0
POLYLINE
 8
d3
 66
     1
10
0.0
 20
 0.0
 30
0.0
70
    64
71
4
72
   1
  0
VERTEX
  8
d3
10
0.0
20
-20.000000000000007
30
3.0
 70
     192
  0
VERTEX
  8
d3
10
0.0
20
-55.0
30
0.0
 70
     192
  0
VERTEX
  8
d3
10
0.0
20
-55.0
30
3.0
 70
     192
  0
VERTEX
  8
d3
10
0.0
20
-20.000000000000007
30
0.0
 70
     192
  0
VERTEX
  8
d3
10
0.0
 20
 0.0
 30
0.0
 70
     128
 71
-1
 72
2
 73
3
  0
VERTEX
  8
d3
10
0.0
 20
 0.0
 30
0.0
 70
     128
 71
-2
 72
1
 73
4
  0
SEQEND
  0
POLYLINE
 8
d3
 66
     1
10
0.0
 20
 0.0
 30
0.0
70
    64
71
4
72
   1
  0
VERTEX
  8
d3
10
11.909830056250525
20
-0.7294901687515739
30
3.0
 70
     192
  0
VERTEX
  8
d3
10
14.558022403589245
20
-0.06885638226174766
30
0.0
 70
     192
  0
VERTEX
  8
d3
10
11.909830056250525
20
-0.7294901687515739
30
0.0
 70
     192
  0
VERTEX
  8
d3
10
14.558022403589245
20
-0.06885638226174766
30
3.0
 70
     192
  0
VERTEX
  8
d3
10
0.0
 20
 0.0
 30
0.0
 70
     128
 71
-1
 72
2
 73
3
  0
VERTEX
  8
d3
10
0.0
 20
 0.0
 30
0.0
 70
     128
 71
-2
 72
1
 73
4
  0
SEQEND
  0
POLYLINE
 8
d3
 66
     1
10
0.0
 20
 0.0
 30
0.0
70
    64
71
4
72
   1
  0
VERTEX
  8
d3
10
20.0
20
0.0
30
3.0
 70
     192
  0
VERTEX
  8
d3
10
104.99999999999999
20
0.0
30
0.0
 70
     192
  0
VERTEX
  8
d3
10
20.0
20
0.0
30
0.0
 70
     192
  0
VERTEX
  8
d3
10
104.99999999999999
20
0.0
30
3.0
 70
     192
  0
VERTEX
  8
d3
10
0.0
 20
 0.0
 30
0.0
 70
     128
 71
-1
 72
2
 73
3
  0
VERTEX
  8
d3
10
0.0
 20
 0.0
 30
0.0
 70
     128
 71
-2
 72
1
 73
4
  0
SEQEND
  0
POLYLINE
 8
d3
 66
     1
10
0.0
 20
 0.0
 30
0.0
70
    64
71
4
72
   1
  0
VERTEX
  8
d3
10
229.99999999999997
20
-55.0
30
0.0
 70
     192
  0
VERTEX
  8
d3
10
229.99999999999997
20
-95.0
30
3.0
 70
     192
  0
VERTEX
  8
d3
10
229.99999999999997
20
-95.0
30
0.0
 70
     192
  0
VERTEX
  8
d3
10
229.99999999999997
20
-55.0
30
3.0
 70
     192
  0
VERTEX
  8
d3
10
0.0
 20
 0.0
 30
0.0
 70
     128
 71
-1
 72
2
 73
3
  0
VERTEX
  8
d3
10
0.0
 20
 0.0
 30
0.0
 70
     128
 71
-2
 72
1
 73
4
  0
SEQEND
  0
POLYLINE
 8
d3
 66
     1
10
0.0
 20
 0.0
 30
0.0
70
    64
71
4
72
   1
  0
VERTEX
  8
d3
10
104.99999999999999
20
-130.0
30
0.0
 70
     192
  0
VERTEX
  8
d3
10
104.99999999999999
20
-150.0
30
3.0
 70
     192
  0
VERTEX
  8
d3
10
104.99999999999999
20
-150.0
30
0.0
 70
     192
  0
VERTEX
  8
d3
10
104.99999999999999
20
-130.0
30
3.0
 70
     192
  0
VERTEX
  8
d3
10
0.0
 20
 0.0
 30
0.0
 70
     128
 71
-1
 72
2
 73
3
  0
VERTEX
  8
d3
10
0.0
 20
 0.0
 30
0.0
 70
     128
 71
-2
 72
1
 73
4
  0
SEQEND
  0
POLYLINE
 8
d3
 66
     1
10
0.0
 20
 0.0
 30
0.0
70
    64
71
4
72
   1
  0
VERTEX
  8
d3
10
3.224803556841435
20
-142.9268291685072
30
3.0
 70
     192
  0
VERTEX
  8
d3
10
4.9999999999999964
20
-144.99999999999997
30
0.0
 70
     192
  0
VERTEX
  8
d3
10
4.9999999999999964
20
-144.99999999999997
30
3.0
 70
     192
  0
VERTEX
  8
d3
10
3.224803556841435
20
-142.9268291685072
30
0.0
 70
     192
  0
VERTEX
  8
d3
10
0.0
 20
 0.0
 30
0.0
 70
     128
 71
-1
 72
2
 73
3
  0
VERTEX
  8
d3
10
0.0
 20
 0.0
 30
0.0
 70
     128
 71
-2
 72
1
 73
4
  0
SEQEND
  0
POLYLINE
 8
d3
 66
     1
10
0.0
 20
 0.0
 30
0.0
70
    64
71
4
72
   1
  0
VERTEX
  8
d3
10
3.2248035568414295
20
-7.073170831492766
30
3.0
 70
     192
  0
VERTEX
  8
d3
10
1.789898547962937
20
-9.394895906485658
30
0.0
 70
     192
  0
VERTEX
  8
d3
10
1.789898547962937
20
-9.394895906485658
30
3.0
 70
     192
  0
VERTEX
  8
d3
10
3.2248035568414295
20
-7.073170831492766
30
0.0
 70
     192
  0
VERTEX
  8
d3
10
0.0
 20
 0.0
 30
0.0
 70
     128
 71
-1
 72
2
 73
3
  0
VERTEX
  8
d3
10
0.0
 20
 0.0
 30
0.0
 70
     128
 71
-2
 72
1
 73
4
  0
SEQEND
  0
POLYLINE
 8
d3
 66
     1
10
0.0
 20
 0.0
 30
0.0
70
    64
71
4
72
   1
  0
VERTEX
  8
d3
10
9.394895906485647
20
-1.7898985479629312
30
3.0
 70
     192
  0
VERTEX
  8
d3
10
11.909830056250525
20
-0.7294901687515739
30
0.0
 70
     192
  0
VERTEX
  8
d3
10
9.394895906485647
20
-1.7898985479629312
30
0.0
 70
     192
  0
VERTEX
  8
d3
10
11.909830056250525
20
-0.7294901687515739
30
3.0
 70
     192
  0
VERTEX
  8
d3
10
0.0
 20
 0.0
 30
0.0
 70
     128
 71
-1
 72
2
 73
3
  0
VERTEX
  8
d3
10
0.0
 20
 0.0
 30
0.0
 70
     128
 71
-2
 72
1
 73
4
  0
SEQEND
  0
POLYLINE
 8
d3
 66
     1
10
0.0
 20
 0.0
 30
0.0
70
    64
71
4
72
   1
  0
VERTEX
  8
d3
10
15.321651384583761
20
-150.0
30
3.0
 70
     192
  0
VERTEX
  8
d3
10
14.558022403589247
20
-149.93114361773826
30
0.0
 70
     192
  0
VERTEX
  8
d3
10
15.321651384583761
20
-150.0
30
0.0
 70
     192
  0
VERTEX
  8
d3
10
14.558022403589247
20
-149.93114361773826
30
3.0
 70
     192
  0
VERTEX
  8
d3
10
0.0
 20
 0.0
 30
0.0
 70
     128
 71
-1
 72
2
 73
3
  0
VERTEX
  8
d3
10
0.0
 20
 0.0
 30
0.0
 70
     128
 71
-2
 72
1
 73
4
  0
SEQEND
  0
POLYLINE
 8
d3
 66
     1
10
0.0
 20
 0.0
 30
0.0
70
    64
71
4
72
   1
  0
VERTEX
  8
d3
10
1.789898547962937
20
-9.394895906485658
30
3.0
 70
     192
  0
VERTEX
  8
d3
10
0.7294901687515739
20
-11.909830056250533
30
0.0
 70
     192
  0
VERTEX
  8
d3
10
0.7294901687515739
20
-11.909830056250533
30
3.0
 70
     192
  0
VERTEX
  8
d3
10
1.789898547962937
20
-9.394895906485658
30
0.0
 70
     192
  0
VERTEX
  8
d3
10
0.0
 20
 0.0
 30
0.0
 70
     128
 71
-1
 72
2
 73
3
  0
VERTEX
  8
d3
10
0.0
 20
 0.0
 30
0.0
 70
     128
 71
-2
 72
1
 73
4
  0
SEQEND
  0
POLYLINE
 8
d3
 66
     1
10
0.0
 20
 0.0
 30
0.0
70
    64
71
4
72
   1
  0
VERTEX
  8
d3
10
7.073170831492771
20
-3.2248035568414264
30
3.0
 70
     192
  0
VERTEX
  8
d3
10
9.394895906485647
20
-1.7898985479629312
30
0.0
 70
     192
  0
VERTEX
  8
d3
10
7.073170831492771
20
-3.2248035568414264
30
0.0
 70
     192
  0
VERTEX
  8
d3
10
9.394895906485647
20
-1.7898985479629312
30
3.0
 70
     192
  0
VERTEX
  8
d3
10
0.0
 20
 0.0
 30
0.0
 70
     128
 71
-1
 72
2
 73
3
  0
VERTEX
  8
d3
10
0.0
 20
 0.0
 30
0.0
 70
     128
 71
-2
 72
1
 73
4
  0
SEQEND
  0
POLYLINE
 8
d3
 66
     1
10
0.0
 20
 0.0
 30
0.0
70
    64
71
4
72
   1
  0
VERTEX
  8
d3
10
104.99999999999999
20
0.0
30
0.0
 70
     192
  0
VERTEX
  8
d3
10
104.99999999999999
20
-20.000000000000007
30
3.0
 70
     192
  0
VERTEX
  8
d3
10
104.99999999999999
20
-20.000000000000007
30
0.0
 70
     192
  0
VERTEX
  8
d3
10
104.99999999999999
20
0.0
30
3.0
 70
     192
  0
VERTEX
  8
d3
10
0.0
 20
 0.0
 30
0.0
 70
     128
 71
-1
 72
2
 73
3
  0
VERTEX
  8
d3
10
0.0
 20
 0.0
 30
0.0
 70
     128
 71
-2
 72
1
 73
4
  0
SEQEND
  0
POLYLINE
 8
d3
 66
     1
10
0.0
 20
 0.0
 30
0.0
70
    64
71
4
72
   1
  0
VERTEX
  8
d3
10
9.394895906485646
20
-148.21010145203707
30
3.0
 70
     192
  0
VERTEX
  8
d3
10
7.073170831492772
20
-146.77519644315853
30
0.0
 70
     192
  0
VERTEX
  8
d3
10
9.394895906485646
20
-148.21010145203707
30
0.0
 70
     192
  0
VERTEX
  8
d3
10
7.073170831492772
20
-146.77519644315853
30
3.0
 70
     192
  0
VERTEX
  8
d3
10
0.0
 20
 0.0
 30
0.0
 70
     128
 71
-1
 72
2
 73
3
  0
VERTEX
  8
d3
10
0.0
 20
 0.0
 30
0.0
 70
     128
 71
-2
 72
1
 73
4
  0
SEQEND
  0
POLYLINE
 8
d3
 66
     1
10
0.0
 20
 0.0
 30
0.0
70
    64
71
4
72
   1
  0
VERTEX
  8
d3
10
4.999999999999995
20
-4.999999999999991
30
3.0
 70
     192
  0
VERTEX
  8
d3
10
3.2248035568414295
20
-7.073170831492766
30
0.0
 70
     192
  0
VERTEX
  8
d3
10
3.2248035568414295
20
-7.073170831492766
30
3.0
 70
     192
  0
VERTEX
  8
d3
10
4.999999999999995
20
-4.999999999999991
30
0.0
 70
     192
  0
VERTEX
  8
d3
10
0.0
 20
 0.0
 30
0.0
 70
     128
 71
-1
 72
2
 73
3
  0
VERTEX
  8
d3
10
0.0
 20
 0.0
 30
0.0
 70
     128
 71
-2
 72
1
 73
4
  0
SEQEND
  0
POLYLINE
 8
d3
 66
     1
10
0.0
 20
 0.0
 30
0.0
70
    64
71
4
72
   1
  0
VERTEX
  8
d3
10
4.999999999999995
20
-4.999999999999991
30
3.0
 70
     192
  0
VERTEX
  8
d3
10
7.073170831492771
20
-3.2248035568414264
30
0.0
 70
     192
  0
VERTEX
  8
d3
10
4.999999999999995
20
-4.999999999999991
30
0.0
 70
     192
  0
VERTEX
  8
d3
10
7.073170831492771
20
-3.2248035568414264
30
3.0
 70
     192
  0
VERTEX
  8
d3
10
0.0
 20
 0.0
 30
0.0
 70
     128
 71
-1
 72
2
 73
3
  0
VERTEX
  8
d3
10
0.0
 20
 0.0
 30
0.0
 70
     128
 71
-2
 72
1
 73
4
  0
SEQEND
  0
POLYLINE
 8
d3
 66
     1
10
0.0
 20
 0.0
 30
0.0
70
    64
71
4
72
   1
  0
VERTEX
  8
d3
10
104.99999999999999
20
-20.000000000000007
30
3.0
 70
     192
  0
VERTEX
  8
d3
10
145.0
20
-20.000000000000007
30
0.0
 70
     192
  0
VERTEX
  8
d3
10
104.99999999999999
20
-20.000000000000007
30
0.0
 70
     192
  0
VERTEX
  8
d3
10
145.0
20
-20.000000000000007
30
3.0
 70
     192
  0
VERTEX
  8
d3
10
0.0
 20
 0.0
 30
0.0
 70
     128
 71
-1
 72
2
 73
3
  0
VERTEX
  8
d3
10
0.0
 20
 0.0
 30
0.0
 70
     128
 71
-2
 72
1
 73
4
  0
SEQEND
  0
POLYLINE
 8
d3
 66
     1
10
0.0
 20
 0.0
 30
0.0
70
    64
71
4
72
   1
  0
VERTEX
  8
d3
10
234.67834861541624
20
0.0
30
3.0
 70
     192
  0
VERTEX
  8
d3
10
235.44197759641077
20
-0.06885638226174766
30
0.0
 70
     192
  0
VERTEX
  8
d3
10
234.67834861541624
20
0.0
30
0.0
 70
     192
  0
VERTEX
  8
d3
10
235.44197759641077
20
-0.06885638226174766
30
3.0
 70
     192
  0
VERTEX
  8
d3
10
0.0
 20
 0.0
 30
0.0
 70
     128
 71
-1
 72
2
 73
3
  0
VERTEX
  8
d3
10
0.0
 20
 0.0
 30
0.0
 70
     128
 71
-2
 72
1
 73
4
  0
SEQEND
  0
POLYLINE
 8
d3
 66
     1
10
0.0
 20
 0.0
 30
0.0
70
    64
71
4
72
   1
  0
VERTEX
  8
d3
10
250.0
20
-130.0
30
0.0
 70
     192
  0
VERTEX
  8
d3
10
250.0
20
-134.67834861541655
30
3.0
 70
     192
  0
VERTEX
  8
d3
10
250.0
20
-134.67834861541655
30
0.0
 70
     192
  0
VERTEX
  8
d3
10
250.0
20
-130.0
30
3.0
 70
     192
  0
VERTEX
  8
d3
10
0.0
 20
 0.0
 30
0.0
 70
     128
 71
-1
 72
2
 73
3
  0
VERTEX
  8
d3
10
0.0
 20
 0.0
 30
0.0
 70
     128
 71
-2
 72
1
 73
4
  0
SEQEND
  0
POLYLINE
 8
d3
 66
     1
10
0.0
 20
 0.0
 30
0.0
70
    64
71
4
72
   1
  0
VERTEX
  8
d3
10
0.0
20
-134.67834861541627
30
3.0
 70
     192
  0
VERTEX
  8
d3
10
0.0688563822617392
20
-135.44197759641074
30
0.0
 70
     192
  0
VERTEX
  8
d3
10
0.0688563822617392
20
-135.44197759641074
30
3.0
 70
     192
  0
VERTEX
  8
d3
10
0.0
20
-134.67834861541627
30
0.0
 70
     192
  0
VERTEX
  8
d3
10
0.0
 20
 0.0
 30
0.0
 70
     128
 71
-1
 72
2
 73
3
  0
VERTEX
  8
d3
10
0.0
 20
 0.0
 30
0.0
 70
     128
 71
-2
 72
1
 73
4
  0
SEQEND
  0
POLYLINE
 8
d3
 66
     1
10
0.0
 20
 0.0
 30
0.0
70
    64
71
4
72
   1
  0
VERTEX
  8
d3
10
229.99999999999997
20
0.0
30
3.0
 70
     192
  0
VERTEX
  8
d3
10
234.67834861541624
20
0.0
30
0.0
 70
     192
  0
VERTEX
  8
d3
10
229.99999999999997
20
0.0
30
0.0
 70
     192
  0
VERTEX
  8
d3
10
234.67834861541624
20
0.0
30
3.0
 70
     192
  0
VERTEX
  8
d3
10
0.0
 20
 0.0
 30
0.0
 70
     128
 71
-1
 72
2
 73
3
  0
VERTEX
  8
d3
10
0.0
 20
 0.0
 30
0.0
 70
     128
 71
-2
 72
1
 73
4
  0
SEQEND
  0
POLYLINE
 8
d3
 66
     1
10
0.0
 20
 0.0
 30
0.0
70
    64
71
4
72
   1
  0
VERTEX
  8
d3
10
104.99999999999999
20
-150.0
30
3.0
 70
     192
  0
VERTEX
  8
d3
10
20.0
20
-150.0
30
0.0
 70
     192
  0
VERTEX
  8
d3
10
104.99999999999999
20
-150.0
30
0.0
 70
     192
  0
VERTEX
  8
d3
10
20.0
20
-150.0
30
3.0
 70
     192
  0
VERTEX
  8
d3
10
0.0
 20
 0.0
 30
0.0
 70
     128
 71
-1
 72
2
 73
3
  0
VERTEX
  8
d3
10
0.0
 20
 0.0
 30
0.0
 70
     128
 71
-2
 72
1
 73
4
  0
SEQEND
  0
POLYLINE
 8
d3
 66
     1
10
0.0
 20
 0.0
 30
0.0
70
    64
71
4
72
   1
  0
VERTEX
  8
d3
10
14.558022403589247
20
-149.93114361773826
30
3.0
 70
     192
  0
VERTEX
  8
d3
10
11.909830056250525
20
-149.27050983124843
30
0.0
 70
     192
  0
VERTEX
  8
d3
10
14.558022403589247
20
-149.93114361773826
30
0.0
 70
     192
  0
VERTEX
  8
d3
10
11.909830056250525
20
-149.27050983124843
30
3.0
 70
     192
  0
VERTEX
  8
d3
10
0.0
 20
 0.0
 30
0.0
 70
     128
 71
-1
 72
2
 73
3
  0
VERTEX
  8
d3
10
0.0
 20
 0.0
 30
0.0
 70
     128
 71
-2
 72
1
 73
4
  0
SEQEND
  0
POLYLINE
 8
d3
 66
     1
10
0.0
 20
 0.0
 30
0.0
70
    64
71
4
72
   1
  0
VERTEX
  8
d3
10
0.0
20
-95.0
30
3.0
 70
     192
  0
VERTEX
  8
d3
10
20.0
20
-95.0
30
0.0
 70
     192
  0
VERTEX
  8
d3
10
0.0
20
-95.0
30
0.0
 70
     192
  0
VERTEX
  8
d3
10
20.0
20
-95.0
30
3.0
 70
     192
  0
VERTEX
  8
d3
10
0.0
 20
 0.0
 30
0.0
 70
     128
 71
-1
 72
2
 73
3
  0
VERTEX
  8
d3
10
0.0
 20
 0.0
 30
0.0
 70
     128
 71
-2
 72
1
 73
4
  0
SEQEND
  0
POLYLINE
 8
d3
 66
     1
10
0.0
 20
 0.0
 30
0.0
70
    64
71
4
72
   1
  0
VERTEX
  8
d3
10
0.0
20
-15.32165138458372
30
3.0
 70
     192
  0
VERTEX
  8
d3
10
0.0
20
-20.000000000000007
30
0.0
 70
     192
  0
VERTEX
  8
d3
10
0.0
20
-20.000000000000007
30
3.0
 70
     192
  0
VERTEX
  8
d3
10
0.0
20
-15.32165138458372
30
0.0
 70
     192
  0
VERTEX
  8
d3
10
0.0
 20
 0.0
 30
0.0
 70
     128
 71
-1
 72
2
 73
3
  0
VERTEX
  8
d3
10
0.0
 20
 0.0
 30
0.0
 70
     128
 71
-2
 72
1
 73
4
  0
SEQEND
  0
POLYLINE
 8
d3
 66
     1
10
0.0
 20
 0.0
 30
0.0
70
    64
71
4
72
   1
  0
VERTEX
  8
d3
10
15.321651384583719
20
0.0
30
3.0
 70
     192
  0
VERTEX
  8
d3
10
20.0
20
0.0
30
0.0
 70
     192
  0
VERTEX
  8
d3
10
15.321651384583719
20
0.0
30
0.0
 70
     192
  0
VERTEX
  8
d3
10
20.0
20
0.0
30
3.0
 70
     192
  0
VERTEX
  8
d3
10
0.0
 20
 0.0
 30
0.0
 70
     128
 71
-1
 72
2
 73
3
  0
VERTEX
  8
d3
10
0.0
 20
 0.0
 30
0.0
 70
     128
 71
-2
 72
1
 73
4
  0
SEQEND
  0
POLYLINE
 8
d3
 66
     1
10
0.0
 20
 0.0
 30
0.0
70
    64
71
4
72
   1
  0
VERTEX
  8
d3
10
20.0
20
-150.0
30
3.0
 70
     192
  0
VERTEX
  8
d3
10
15.66453815646985
20
-150.0
30
0.0
 70
     192
  0
VERTEX
  8
d3
10
20.0
20
-150.0
30
0.0
 70
     192
  0
VERTEX
  8
d3
10
15.66453815646985
20
-150.0
30
3.0
 70
     192
  0
VERTEX
  8
d3
10
0.0
 20
 0.0
 30
0.0
 70
     128
 71
-1
 72
2
 73
3
  0
VERTEX
  8
d3
10
0.0
 20
 0.0
 30
0.0
 70
     128
 71
-2
 72
1
 73
4
  0
SEQEND
  0
POLYLINE
 8
d3
 66
     1
10
0.0
 20
 0.0
 30
0.0
70
    64
71
4
72
   1
  0
VERTEX
  8
d3
10
0.7294901687515768
20
-138.09016994374946
30
3.0
 70
     192
  0
VERTEX
  8
d3
10
1.7898985479629426
20
-140.60510409351434
30
0.0
 70
     192
  0
VERTEX
  8
d3
10
1.7898985479629426
20
-140.60510409351434
30
3.0
 70
     192
  0
VERTEX
  8
d3
10
0.7294901687515768
20
-138.09016994374946
30
0.0
 70
     192
  0
VERTEX
  8
d3
10
0.0
 20
 0.0
 30
0.0
 70
     128
 71
-1
 72
2
 73
3
  0
VERTEX
  8
d3
10
0.0
 20
 0.0
 30
0.0
 70
     128
 71
-2
 72
1
 73
4
  0
SEQEND
  0
POLYLINE
 8
d3
 66
     1
10
0.0
 20
 0.0
 30
0.0
70
    64
71
4
72
   1
  0
VERTEX
  8
d3
10
1.7898985479629426
20
-140.60510409351434
30
3.0
 70
     192
  0
VERTEX
  8
d3
10
3.224803556841435
20
-142.9268291685072
30
0.0
 70
     192
  0
VERTEX
  8
d3
10
3.224803556841435
20
-142.9268291685072
30
3.0
 70
     192
  0
VERTEX
  8
d3
10
1.7898985479629426
20
-140.60510409351434
30
0.0
 70
     192
  0
VERTEX
  8
d3
10
0.0
 20
 0.0
 30
0.0
 70
     128
 71
-1
 72
2
 73
3
  0
VERTEX
  8
d3
10
0.0
 20
 0.0
 30
0.0
 70
     128
 71
-2
 72
1
 73
4
  0
SEQEND
  0
POLYLINE
 8
d3
 66
     1
10
0.0
 20
 0.0
 30
0.0
70
    64
71
4
72
   1
  0
VERTEX
  8
d3
10
0.0
20
-130.0
30
3.0
 70
     192
  0
VERTEX
  8
d3
10
0.0
20
-134.33546184353017
30
0.0
 70
     192
  0
VERTEX
  8
d3
10
0.0
20
-134.33546184353017
30
3.0
 70
     192
  0
VERTEX
  8
d3
10
0.0
20
-130.0
30
0.0
 70
     192
  0
VERTEX
  8
d3
10
0.0
 20
 0.0
 30
0.0
 70
     128
 71
-1
 72
2
 73
3
  0
VERTEX
  8
d3
10
0.0
 20
 0.0
 30
0.0
 70
     128
 71
-2
 72
1
 73
4
  0
SEQEND
  0
POLYLINE
 8
d3
 66
     1
10
0.0
 20
 0.0
 30
0.0
70
    64
71
4
72
   1
  0
VERTEX
  8
d3
10
20.000000000000004
20
-55.0
30
3.0
 70
     192
  0
VERTEX
  8
d3
10
0.0
20
-55.0
30
0.0
 70
     192
  0
VERTEX
  8
d3
10
20.000000000000004
20
-55.0
30
0.0
 70
     192
  0
VERTEX
  8
d3
10
0.0
20
-55.0
30
3.0
 70
     192
  0
VERTEX
  8
d3
10
0.0
 20
 0.0
 30
0.0
 70
     128
 71
-1
 72
2
 73
3
  0
VERTEX
  8
d3
10
0.0
 20
 0.0
 30
0.0
 70
     128
 71
-2
 72
1
 73
4
  0
SEQEND
  0
POLYLINE
 8
d3
 66
     1
10
0.0
 20
 0.0
 30
0.0
70
    64
71
4
72
   1
  0
VERTEX
  8
d3
10
14.558022403589245
20
-0.06885638226174766
30
3.0
 70
     192
  0
VERTEX
  8
d3
10
15.321651384583719
20
0.0
30
0.0
 70
     192
  0
VERTEX
  8
d3
10
14.558022403589245
20
-0.06885638226174766
30
0.0
 70
     192
  0
VERTEX
  8
d3
10
15.321651384583719
20
0.0
30
3.0
 70
     192
  0
VERTEX
  8
d3
10
0.0
 20
 0.0
 30
0.0
 70
     128
 71
-1
 72
2
 73
3
  0
VERTEX
  8
d3
10
0.0
 20
 0.0
 30
0.0
 70
     128
 71
-2
 72
1
 73
4
  0
SEQEND
  0
POLYLINE
 8
d3
 66
     1
10
0.0
 20
 0.0
 30
0.0
70
    64
71
4
72
   1
  0
VERTEX
  8
d3
10
145.0
20
0.0
30
3.0
 70
     192
  0
VERTEX
  8
d3
10
145.0
20
-20.000000000000007
30
0.0
 70
     192
  0
VERTEX
  8
d3
10
145.0
20
-20.000000000000007
30
3.0
 70
     192
  0
VERTEX
  8
d3
10
145.0
20
0.0
30
0.0
 70
     192
  0
VERTEX
  8
d3
10
0.0
 20
 0.0
 30
0.0
 70
     128
 71
-1
 72
2
 73
3
  0
VERTEX
  8
d3
10
0.0
 20
 0.0
 30
0.0
 70
     128
 71
-2
 72
1
 73
4
  0
SEQEND
  0
POLYLINE
 8
d3
 66
     1
10
0.0
 20
 0.0
 30
0.0
70
    64
71
4
72
   1
  0
VERTEX
  8
d3
10
0.7294901687515739
20
-11.909830056250533
30
3.0
 70
     192
  0
VERTEX
  8
d3
10
0.0688563822617392
20
-14.558022403589254
30
0.0
 70
     192
  0
VERTEX
  8
d3
10
0.0688563822617392
20
-14.558022403589254
30
3.0
 70
     192
  0
VERTEX
  8
d3
10
0.7294901687515739
20
-11.909830056250533
30
0.0
 70
     192
  0
VERTEX
  8
d3
10
0.0
 20
 0.0
 30
0.0
 70
     128
 71
-1
 72
2
 73
3
  0
VERTEX
  8
d3
10
0.0
 20
 0.0
 30
0.0
 70
     128
 71
-2
 72
1
 73
4
  0
SEQEND
  0
POLYLINE
 8
d3
 66
     1
10
0.0
 20
 0.0
 30
0.0
70
    64
71
4
72
   1
  0
VERTEX
  8
d3
10
245.0
20
-4.999999999999991
30
0.0
 70
     192
  0
VERTEX
  8
d3
10
246.77519644315856
20
-7.073170831492766
30
3.0
 70
     192
  0
VERTEX
  8
d3
10
246.77519644315856
20
-7.073170831492766
30
0.0
 70
     192
  0
VERTEX
  8
d3
10
245.0
20
-4.999999999999991
30
3.0
 70
     192
  0
VERTEX
  8
d3
10
0.0
 20
 0.0
 30
0.0
 70
     128
 71
-1
 72
2
 73
3
  0
VERTEX
  8
d3
10
0.0
 20
 0.0
 30
0.0
 70
     128
 71
-2
 72
1
 73
4
  0
SEQEND
  0
POLYLINE
 8
d3
 66
     1
10
0.0
 20
 0.0
 30
0.0
70
    64
71
4
72
   1
  0
VERTEX
  8
d3
10
145.0
20
-130.0
30
3.0
 70
     192
  0
VERTEX
  8
d3
10
104.99999999999999
20
-130.0
30
0.0
 70
     192
  0
VERTEX
  8
d3
10
145.0
20
-130.0
30
0.0
 70
     192
  0
VERTEX
  8
d3
10
104.99999999999999
20
-130.0
30
3.0
 70
     192
  0
VERTEX
  8
d3
10
0.0
 20
 0.0
 30
0.0
 70
     128
 71
-1
 72
2
 73
3
  0
VERTEX
  8
d3
10
0.0
 20
 0.0
 30
0.0
 70
     128
 71
-2
 72
1
 73
4
  0
SEQEND
  0
POLYLINE
 8
d3
 66
     1
10
0.0
 20
 0.0
 30
0.0
70
    64
71
4
72
   1
  0
VERTEX
  8
d3
10
11.909830056250525
20
-149.27050983124843
30
3.0
 70
     192
  0
VERTEX
  8
d3
10
9.394895906485646
20
-148.21010145203707
30
0.0
 70
     192
  0
VERTEX
  8
d3
10
11.909830056250525
20
-149.27050983124843
30
0.0
 70
     192
  0
VERTEX
  8
d3
10
9.394895906485646
20
-148.21010145203707
30
3.0
 70
     192
  0
VERTEX
  8
d3
10
0.0
 20
 0.0
 30
0.0
 70
     128
 71
-1
 72
2
 73
3
  0
VERTEX
  8
d3
10
0.0
 20
 0.0
 30
0.0
 70
     128
 71
-2
 72
1
 73
4
  0
SEQEND
  0
POLYLINE
 8
d3
 66
     1
10
0.0
 20
 0.0
 30
0.0
70
    64
71
4
72
   1
  0
VERTEX
  8
d3
10
145.0
20
0.0
30
3.0
 70
     192
  0
VERTEX
  8
d3
10
229.99999999999997
20
0.0
30
0.0
 70
     192
  0
VERTEX
  8
d3
10
145.0
20
0.0
30
0.0
 70
     192
  0
VERTEX
  8
d3
10
229.99999999999997
20
0.0
30
3.0
 70
     192
  0
VERTEX
  8
d3
10
0.0
 20
 0.0
 30
0.0
 70
     128
 71
-1
 72
2
 73
3
  0
VERTEX
  8
d3
10
0.0
 20
 0.0
 30
0.0
 70
     128
 71
-2
 72
1
 73
4
  0
SEQEND
  0
POLYLINE
 8
d3
 66
     1
10
0.0
 20
 0.0
 30
0.0
70
    64
71
4
72
   1
  0
VERTEX
  8
d3
10
248.21010145203707
20
-9.394895906485635
30
0.0
 70
     192
  0
VERTEX
  8
d3
10
249.27050983124846
20
-11.909830056250533
30
3.0
 70
     192
  0
VERTEX
  8
d3
10
249.27050983124846
20
-11.909830056250533
30
0.0
 70
     192
  0
VERTEX
  8
d3
10
248.21010145203707
20
-9.394895906485635
30
3.0
 70
     192
  0
VERTEX
  8
d3
10
0.0
 20
 0.0
 30
0.0
 70
     128
 71
-1
 72
2
 73
3
  0
VERTEX
  8
d3
10
0.0
 20
 0.0
 30
0.0
 70
     128
 71
-2
 72
1
 73
4
  0
SEQEND
  0
POLYLINE
 8
d3
 66
     1
10
0.0
 20
 0.0
 30
0.0
70
    64
71
4
72
   1
  0
VERTEX
  8
d3
10
249.93114361773826
20
-14.558022403589254
30
0.0
 70
     192
  0
VERTEX
  8
d3
10
250.0
20
-15.321651384583427
30
3.0
 70
     192
  0
VERTEX
  8
d3
10
250.0
20
-15.321651384583427
30
0.0
 70
     192
  0
VERTEX
  8
d3
10
249.93114361773826
20
-14.558022403589254
30
3.0
 70
     192
  0
VERTEX
  8
d3
10
0.0
 20
 0.0
 30
0.0
 70
     128
 71
-1
 72
2
 73
3
  0
VERTEX
  8
d3
10
0.0
 20
 0.0
 30
0.0
 70
     128
 71
-2
 72
1
 73
4
  0
SEQEND
  0
POLYLINE
 8
d3
 66
     1
10
0.0
 20
 0.0
 30
0.0
70
    64
71
4
72
   1
  0
VERTEX
  8
d3
10
250.0
20
-20.000000000000007
30
0.0
 70
     192
  0
VERTEX
  8
d3
10
250.0
20
-55.0
30
3.0
 70
     192
  0
VERTEX
  8
d3
10
250.0
20
-55.0
30
0.0
 70
     192
  0
VERTEX
  8
d3
10
250.0
20
-20.000000000000007
30
3.0
 70
     192
  0
VERTEX
  8
d3
10
0.0
 20
 0.0
 30
0.0
 70
     128
 71
-1
 72
2
 73
3
  0
VERTEX
  8
d3
10
0.0
 20
 0.0
 30
0.0
 70
     128
 71
-2
 72
1
 73
4
  0
SEQEND
  0
POLYLINE
 8
d3
 66
     1
10
0.0
 20
 0.0
 30
0.0
70
    64
71
4
72
   1
  0
VERTEX
  8
d3
10
229.99999999999997
20
-150.0
30
3.0
 70
     192
  0
VERTEX
  8
d3
10
145.0
20
-150.0
30
0.0
 70
     192
  0
VERTEX
  8
d3
10
229.99999999999997
20
-150.0
30
0.0
 70
     192
  0
VERTEX
  8
d3
10
145.0
20
-150.0
30
3.0
 70
     192
  0
VERTEX
  8
d3
10
0.0
 20
 0.0
 30
0.0
 70
     128
 71
-1
 72
2
 73
3
  0
VERTEX
  8
d3
10
0.0
 20
 0.0
 30
0.0
 70
     128
 71
-2
 72
1
 73
4
  0
SEQEND
  0
POLYLINE
 8
d3
 66
     1
10
0.0
 20
 0.0
 30
0.0
70
    64
71
4
72
   1
  0
VERTEX
  8
d3
10
139.14213562373095
20
-60.85786437626905
30
3.0
 70
     192
  0
VERTEX
  8
d3
10
142.3205080756888
20
-65.0
30
0.0
 70
     192
  0
VERTEX
  8
d3
10
142.3205080756888
20
-65.0
30
3.0
 70
     192
  0
VERTEX
  8
d3
10
139.14213562373095
20
-60.85786437626905
30
0.0
 70
     192
  0
VERTEX
  8
d3
10
0.0
 20
 0.0
 30
0.0
 70
     128
 71
-1
 72
2
 73
3
  0
VERTEX
  8
d3
10
0.0
 20
 0.0
 30
0.0
 70
     128
 71
-2
 72
1
 73
4
  0
SEQEND
  0
POLYLINE
 8
d3
 66
     1
10
0.0
 20
 0.0
 30
0.0
70
    64
71
4
72
   1
  0
VERTEX
  8
d3
10
125.0
20
-54.99999999999999
30
3.0
 70
     192
  0
VERTEX
  8
d3
10
119.82361909794959
20
-55.68148347421862
30
0.0
 70
     192
  0
VERTEX
  8
d3
10
125.0
20
-54.99999999999999
30
0.0
 70
     192
  0
VERTEX
  8
d3
10
119.82361909794959
20
-55.68148347421862
30
3.0
 70
     192
  0
VERTEX
  8
d3
10
0.0
 20
 0.0
 30
0.0
 70
     128
 71
-1
 72
2
 73
3
  0
VERTEX
  8
d3
10
0.0
 20
 0.0
 30
0.0
 70
     128
 71
-2
 72
1
 73
4
  0
SEQEND
  0
POLYLINE
 8
d3
 66
     1
10
0.0
 20
 0.0
 30
0.0
70
    64
71
4
72
   1
  0
VERTEX
  8
d3
10
144.31851652578138
20
-80.17638090205043
30
3.0
 70
     192
  0
VERTEX
  8
d3
10
142.3205080756888
20
-85.00000000000001
30
0.0
 70
     192
  0
VERTEX
  8
d3
10
142.3205080756888
20
-85.00000000000001
30
3.0
 70
     192
  0
VERTEX
  8
d3
10
144.31851652578138
20
-80.17638090205043
30
0.0
 70
     192
  0
VERTEX
  8
d3
10
0.0
 20
 0.0
 30
0.0
 70
     128
 71
-1
 72
2
 73
3
  0
VERTEX
  8
d3
10
0.0
 20
 0.0
 30
0.0
 70
     128
 71
-2
 72
1
 73
4
  0
SEQEND
  0
POLYLINE
 8
d3
 66
     1
10
0.0
 20
 0.0
 30
0.0
70
    64
71
4
72
   1
  0
VERTEX
  8
d3
10
105.68148347421862
20
-69.82361909794957
30
0.0
 70
     192
  0
VERTEX
  8
d3
10
104.99999999999999
20
-75.0
30
3.0
 70
     192
  0
VERTEX
  8
d3
10
104.99999999999999
20
-75.0
30
0.0
 70
     192
  0
VERTEX
  8
d3
10
105.68148347421862
20
-69.82361909794957
30
3.0
 70
     192
  0
VERTEX
  8
d3
10
0.0
 20
 0.0
 30
0.0
 70
     128
 71
-1
 72
2
 73
3
  0
VERTEX
  8
d3
10
0.0
 20
 0.0
 30
0.0
 70
     128
 71
-2
 72
1
 73
4
  0
SEQEND
  0
POLYLINE
 8
d3
 66
     1
10
0.0
 20
 0.0
 30
0.0
70
    64
71
4
72
   1
  0
VERTEX
  8
d3
10
142.3205080756888
20
-85.00000000000001
30
3.0
 70
     192
  0
VERTEX
  8
d3
10
139.14213562373095
20
-89.14213562373097
30
0.0
 70
     192
  0
VERTEX
  8
d3
10
139.14213562373095
20
-89.14213562373097
30
3.0
 70
     192
  0
VERTEX
  8
d3
10
142.3205080756888
20
-85.00000000000001
30
0.0
 70
     192
  0
VERTEX
  8
d3
10
0.0
 20
 0.0
 30
0.0
 70
     128
 71
-1
 72
2
 73
3
  0
VERTEX
  8
d3
10
0.0
 20
 0.0
 30
0.0
 70
     128
 71
-2
 72
1
 73
4
  0
SEQEND
  0
POLYLINE
 8
d3
 66
     1
10
0.0
 20
 0.0
 30
0.0
70
    64
71
4
72
   1
  0
VERTEX
  8
d3
10
234.67834861541624
20
-150.0
30
3.0
 70
     192
  0
VERTEX
  8
d3
10
229.99999999999997
20
-150.0
30
0.0
 70
     192
  0
VERTEX
  8
d3
10
234.67834861541624
20
-150.0
30
0.0
 70
     192
  0
VERTEX
  8
d3
10
229.99999999999997
20
-150.0
30
3.0
 70
     192
  0
VERTEX
  8
d3
10
0.0
 20
 0.0
 30
0.0
 70
     128
 71
-1
 72
2
 73
3
  0
VERTEX
  8
d3
10
0.0
 20
 0.0
 30
0.0
 70
     128
 71
-2
 72
1
 73
4
  0
SEQEND
  0
POLYLINE
 8
d3
 66
     1
10
0.0
 20
 0.0
 30
0.0
70
    64
71
4
72
   1
  0
VERTEX
  8
d3
10
119.82361909794956
20
-94.31851652578138
30
3.0
 70
     192
  0
VERTEX
  8
d3
10
125.0
20
-95.0
30
0.0
 70
     192
  0
VERTEX
  8
d3
10
119.82361909794956
20
-94.31851652578138
30
0.0
 70
     192
  0
VERTEX
  8
d3
10
125.0
20
-95.0
30
3.0
 70
     192
  0
VERTEX
  8
d3
10
0.0
 20
 0.0
 30
0.0
 70
     128
 71
-1
 72
2
 73
3
  0
VERTEX
  8
d3
10
0.0
 20
 0.0
 30
0.0
 70
     128
 71
-2
 72
1
 73
4
  0
SEQEND
  0
POLYLINE
 8
d3
 66
     1
10
0.0
 20
 0.0
 30
0.0
70
    64
71
4
72
   1
  0
VERTEX
  8
d3
10
238.09016994374946
20
-149.27050983124843
30
3.0
 70
     192
  0
VERTEX
  8
d3
10
235.44197759641077
20
-149.93114361773826
30
0.0
 70
     192
  0
VERTEX
  8
d3
10
238.09016994374946
20
-149.27050983124843
30
0.0
 70
     192
  0
VERTEX
  8
d3
10
235.44197759641077
20
-149.93114361773826
30
3.0
 70
     192
  0
VERTEX
  8
d3
10
0.0
 20
 0.0
 30
0.0
 70
     128
 71
-1
 72
2
 73
3
  0
VERTEX
  8
d3
10
0.0
 20
 0.0
 30
0.0
 70
     128
 71
-2
 72
1
 73
4
  0
SEQEND
  0
POLYLINE
 8
d3
 66
     1
10
0.0
 20
 0.0
 30
0.0
70
    64
71
4
72
   1
  0
VERTEX
  8
d3
10
107.67949192431121
20
-64.99999999999999
30
0.0
 70
     192
  0
VERTEX
  8
d3
10
105.68148347421862
20
-69.82361909794957
30
3.0
 70
     192
  0
VERTEX
  8
d3
10
105.68148347421862
20
-69.82361909794957
30
0.0
 70
     192
  0
VERTEX
  8
d3
10
107.67949192431121
20
-64.99999999999999
30
3.0
 70
     192
  0
VERTEX
  8
d3
10
0.0
 20
 0.0
 30
0.0
 70
     128
 71
-1
 72
2
 73
3
  0
VERTEX
  8
d3
10
0.0
 20
 0.0
 30
0.0
 70
     128
 71
-2
 72
1
 73
4
  0
SEQEND
  0
POLYLINE
 8
d3
 66
     1
10
0.0
 20
 0.0
 30
0.0
70
    64
71
4
72
   1
  0
VERTEX
  8
d3
10
240.60510409351434
20
-148.21010145203707
30
3.0
 70
     192
  0
VERTEX
  8
d3
10
238.09016994374946
20
-149.27050983124843
30
0.0
 70
     192
  0
VERTEX
  8
d3
10
240.60510409351434
20
-148.21010145203707
30
0.0
 70
     192
  0
VERTEX
  8
d3
10
238.09016994374946
20
-149.27050983124843
30
3.0
 70
     192
  0
VERTEX
  8
d3
10
0.0
 20
 0.0
 30
0.0
 70
     128
 71
-1
 72
2
 73
3
  0
VERTEX
  8
d3
10
0.0
 20
 0.0
 30
0.0
 70
     128
 71
-2
 72
1
 73
4
  0
SEQEND
  0
POLYLINE
 8
d3
 66
     1
10
0.0
 20
 0.0
 30
0.0
70
    64
71
4
72
   1
  0
VERTEX
  8
d3
10
145.0
20
-75.0
30
3.0
 70
     192
  0
VERTEX
  8
d3
10
144.31851652578138
20
-80.17638090205043
30
0.0
 70
     192
  0
VERTEX
  8
d3
10
144.31851652578138
20
-80.17638090205043
30
3.0
 70
     192
  0
VERTEX
  8
d3
10
145.0
20
-75.0
30
0.0
 70
     192
  0
VERTEX
  8
d3
10
0.0
 20
 0.0
 30
0.0
 70
     128
 71
-1
 72
2
 73
3
  0
VERTEX
  8
d3
10
0.0
 20
 0.0
 30
0.0
 70
     128
 71
-2
 72
1
 73
4
  0
SEQEND
  0
POLYLINE
 8
d3
 66
     1
10
0.0
 20
 0.0
 30
0.0
70
    64
71
4
72
   1
  0
VERTEX
  8
d3
10
104.99999999999999
20
-75.0
30
0.0
 70
     192
  0
VERTEX
  8
d3
10
105.68148347421862
20
-80.17638090205041
30
3.0
 70
     192
  0
VERTEX
  8
d3
10
105.68148347421862
20
-80.17638090205041
30
0.0
 70
     192
  0
VERTEX
  8
d3
10
104.99999999999999
20
-75.0
30
3.0
 70
     192
  0
VERTEX
  8
d3
10
0.0
 20
 0.0
 30
0.0
 70
     128
 71
-1
 72
2
 73
3
  0
VERTEX
  8
d3
10
0.0
 20
 0.0
 30
0.0
 70
     128
 71
-2
 72
1
 73
4
  0
SEQEND
  0
POLYLINE
 8
d3
 66
     1
10
0.0
 20
 0.0
 30
0.0
70
    64
71
4
72
   1
  0
VERTEX
  8
d3
10
145.0
20
-130.0
30
3.0
 70
     192
  0
VERTEX
  8
d3
10
145.0
20
-150.0
30
0.0
 70
     192
  0
VERTEX
  8
d3
10
145.0
20
-150.0
30
3.0
 70
     192
  0
VERTEX
  8
d3
10
145.0
20
-130.0
30
0.0
 70
     192
  0
VERTEX
  8
d3
10
0.0
 20
 0.0
 30
0.0
 70
     128
 71
-1
 72
2
 73
3
  0
VERTEX
  8
d3
10
0.0
 20
 0.0
 30
0.0
 70
     128
 71
-2
 72
1
 73
4
  0
SEQEND
  0
POLYLINE
 8
d3
 66
     1
10
0.0
 20
 0.0
 30
0.0
70
    64
71
4
72
   1
  0
VERTEX
  8
d3
10
110.85786437626903
20
-89.14213562373095
30
3.0
 70
     192
  0
VERTEX
  8
d3
10
114.99999999999999
20
-92.32050807568876
30
0.0
 70
     192
  0
VERTEX
  8
d3
10
110.85786437626903
20
-89.14213562373095
30
0.0
 70
     192
  0
VERTEX
  8
d3
10
114.99999999999999
20
-92.32050807568876
30
3.0
 70
     192
  0
VERTEX
  8
d3
10
0.0
 20
 0.0
 30
0.0
 70
     128
 71
-1
 72
2
 73
3
  0
VERTEX
  8
d3
10
0.0
 20
 0.0
 30
0.0
 70
     128
 71
-2
 72
1
 73
4
  0
SEQEND
  0
POLYLINE
 8
d3
 66
     1
10
0.0
 20
 0.0
 30
0.0
70
    64
71
4
72
   1
  0
VERTEX
  8
d3
10
114.99999999999999
20
-92.32050807568876
30
3.0
 70
     192
  0
VERTEX
  8
d3
10
119.82361909794956
20
-94.31851652578138
30
0.0
 70
     192
  0
VERTEX
  8
d3
10
114.99999999999999
20
-92.32050807568876
30
0.0
 70
     192
  0
VERTEX
  8
d3
10
119.82361909794956
20
-94.31851652578138
30
3.0
 70
     192
  0
VERTEX
  8
d3
10
0.0
 20
 0.0
 30
0.0
 70
     128
 71
-1
 72
2
 73
3
  0
VERTEX
  8
d3
10
0.0
 20
 0.0
 30
0.0
 70
     128
 71
-2
 72
1
 73
4
  0
SEQEND
  0
POLYLINE
 8
d3
 66
     1
10
0.0
 20
 0.0
 30
0.0
70
    64
71
4
72
   1
  0
VERTEX
  8
d3
10
134.99999999999997
20
-92.32050807568878
30
3.0
 70
     192
  0
VERTEX
  8
d3
10
139.14213562373095
20
-89.14213562373097
30
0.0
 70
     192
  0
VERTEX
  8
d3
10
134.99999999999997
20
-92.32050807568878
30
0.0
 70
     192
  0
VERTEX
  8
d3
10
139.14213562373095
20
-89.14213562373097
30
3.0
 70
     192
  0
VERTEX
  8
d3
10
0.0
 20
 0.0
 30
0.0
 70
     128
 71
-1
 72
2
 73
3
  0
VERTEX
  8
d3
10
0.0
 20
 0.0
 30
0.0
 70
     128
 71
-2
 72
1
 73
4
  0
SEQEND
  0
POLYLINE
 8
d3
 66
     1
10
0.0
 20
 0.0
 30
0.0
70
    64
71
4
72
   1
  0
VERTEX
  8
d3
10
130.1763809020504
20
-55.68148347421862
30
3.0
 70
     192
  0
VERTEX
  8
d3
10
125.0
20
-54.99999999999999
30
0.0
 70
     192
  0
VERTEX
  8
d3
10
130.1763809020504
20
-55.68148347421862
30
0.0
 70
     192
  0
VERTEX
  8
d3
10
125.0
20
-54.99999999999999
30
3.0
 70
     192
  0
VERTEX
  8
d3
10
0.0
 20
 0.0
 30
0.0
 70
     128
 71
-1
 72
2
 73
3
  0
VERTEX
  8
d3
10
0.0
 20
 0.0
 30
0.0
 70
     128
 71
-2
 72
1
 73
4
  0
SEQEND
  0
POLYLINE
 8
d3
 66
     1
10
0.0
 20
 0.0
 30
0.0
70
    64
71
4
72
   1
  0
VERTEX
  8
d3
10
135.0
20
-57.679491924311215
30
3.0
 70
     192
  0
VERTEX
  8
d3
10
130.1763809020504
20
-55.68148347421862
30
0.0
 70
     192
  0
VERTEX
  8
d3
10
135.0
20
-57.679491924311215
30
0.0
 70
     192
  0
VERTEX
  8
d3
10
130.1763809020504
20
-55.68148347421862
30
3.0
 70
     192
  0
VERTEX
  8
d3
10
0.0
 20
 0.0
 30
0.0
 70
     128
 71
-1
 72
2
 73
3
  0
VERTEX
  8
d3
10
0.0
 20
 0.0
 30
0.0
 70
     128
 71
-2
 72
1
 73
4
  0
SEQEND
  0
POLYLINE
 8
d3
 66
     1
10
0.0
 20
 0.0
 30
0.0
70
    64
71
4
72
   1
  0
VERTEX
  8
d3
10
107.67949192431121
20
-85.0
30
0.0
 70
     192
  0
VERTEX
  8
d3
10
110.85786437626903
20
-89.14213562373095
30
3.0
 70
     192
  0
VERTEX
  8
d3
10
110.85786437626903
20
-89.14213562373095
30
0.0
 70
     192
  0
VERTEX
  8
d3
10
107.67949192431121
20
-85.0
30
3.0
 70
     192
  0
VERTEX
  8
d3
10
0.0
 20
 0.0
 30
0.0
 70
     128
 71
-1
 72
2
 73
3
  0
VERTEX
  8
d3
10
0.0
 20
 0.0
 30
0.0
 70
     128
 71
-2
 72
1
 73
4
  0
SEQEND
  0
POLYLINE
 8
d3
 66
     1
10
0.0
 20
 0.0
 30
0.0
70
    64
71
4
72
   1
  0
VERTEX
  8
d3
10
114.99999999999999
20
-57.679491924311215
30
3.0
 70
     192
  0
VERTEX
  8
d3
10
110.85786437626903
20
-60.857864376269035
30
0.0
 70
     192
  0
VERTEX
  8
d3
10
114.99999999999999
20
-57.679491924311215
30
0.0
 70
     192
  0
VERTEX
  8
d3
10
110.85786437626903
20
-60.857864376269035
30
3.0
 70
     192
  0
VERTEX
  8
d3
10
0.0
 20
 0.0
 30
0.0
 70
     128
 71
-1
 72
2
 73
3
  0
VERTEX
  8
d3
10
0.0
 20
 0.0
 30
0.0
 70
     128
 71
-2
 72
1
 73
4
  0
SEQEND
  0
POLYLINE
 8
d3
 66
     1
10
0.0
 20
 0.0
 30
0.0
70
    64
71
4
72
   1
  0
VERTEX
  8
d3
10
110.85786437626903
20
-60.857864376269035
30
0.0
 70
     192
  0
VERTEX
  8
d3
10
107.67949192431121
20
-64.99999999999999
30
3.0
 70
     192
  0
VERTEX
  8
d3
10
107.67949192431121
20
-64.99999999999999
30
0.0
 70
     192
  0
VERTEX
  8
d3
10
110.85786437626903
20
-60.857864376269035
30
3.0
 70
     192
  0
VERTEX
  8
d3
10
0.0
 20
 0.0
 30
0.0
 70
     128
 71
-1
 72
2
 73
3
  0
VERTEX
  8
d3
10
0.0
 20
 0.0
 30
0.0
 70
     128
 71
-2
 72
1
 73
4
  0
SEQEND
  0
POLYLINE
 8
d3
 66
     1
10
0.0
 20
 0.0
 30
0.0
70
    64
71
4
72
   1
  0
VERTEX
  8
d3
10
105.68148347421862
20
-80.17638090205041
30
0.0
 70
     192
  0
VERTEX
  8
d3
10
107.67949192431121
20
-85.0
30
3.0
 70
     192
  0
VERTEX
  8
d3
10
107.67949192431121
20
-85.0
30
0.0
 70
     192
  0
VERTEX
  8
d3
10
105.68148347421862
20
-80.17638090205041
30
3.0
 70
     192
  0
VERTEX
  8
d3
10
0.0
 20
 0.0
 30
0.0
 70
     128
 71
-1
 72
2
 73
3
  0
VERTEX
  8
d3
10
0.0
 20
 0.0
 30
0.0
 70
     128
 71
-2
 72
1
 73
4
  0
SEQEND
  0
POLYLINE
 8
d3
 66
     1
10
0.0
 20
 0.0
 30
0.0
70
    64
71
4
72
   1
  0
VERTEX
  8
d3
10
130.1763809020504
20
-94.31851652578138
30
3.0
 70
     192
  0
VERTEX
  8
d3
10
134.99999999999997
20
-92.32050807568878
30
0.0
 70
     192
  0
VERTEX
  8
d3
10
130.1763809020504
20
-94.31851652578138
30
0.0
 70
     192
  0
VERTEX
  8
d3
10
134.99999999999997
20
-92.32050807568878
30
3.0
 70
     192
  0
VERTEX
  8
d3
10
0.0
 20
 0.0
 30
0.0
 70
     128
 71
-1
 72
2
 73
3
  0
VERTEX
  8
d3
10
0.0
 20
 0.0
 30
0.0
 70
     128
 71
-2
 72
1
 73
4
  0
SEQEND
  0
POLYLINE
 8
d3
 66
     1
10
0.0
 20
 0.0
 30
0.0
70
    64
71
4
72
   1
  0
VERTEX
  8
d3
10
242.92682916850723
20
-146.77519644315856
30
3.0
 70
     192
  0
VERTEX
  8
d3
10
240.60510409351434
20
-148.21010145203707
30
0.0
 70
     192
  0
VERTEX
  8
d3
10
242.92682916850723
20
-146.77519644315856
30
0.0
 70
     192
  0
VERTEX
  8
d3
10
240.60510409351434
20
-148.21010145203707
30
3.0
 70
     192
  0
VERTEX
  8
d3
10
0.0
 20
 0.0
 30
0.0
 70
     128
 71
-1
 72
2
 73
3
  0
VERTEX
  8
d3
10
0.0
 20
 0.0
 30
0.0
 70
     128
 71
-2
 72
1
 73
4
  0
SEQEND
  0
POLYLINE
 8
d3
 66
     1
10
0.0
 20
 0.0
 30
0.0
70
    64
71
4
72
   1
  0
VERTEX
  8
d3
10
142.3205080756888
20
-65.0
30
3.0
 70
     192
  0
VERTEX
  8
d3
10
144.31851652578138
20
-69.82361909794957
30
0.0
 70
     192
  0
VERTEX
  8
d3
10
144.31851652578138
20
-69.82361909794957
30
3.0
 70
     192
  0
VERTEX
  8
d3
10
142.3205080756888
20
-65.0
30
0.0
 70
     192
  0
VERTEX
  8
d3
10
0.0
 20
 0.0
 30
0.0
 70
     128
 71
-1
 72
2
 73
3
  0
VERTEX
  8
d3
10
0.0
 20
 0.0
 30
0.0
 70
     128
 71
-2
 72
1
 73
4
  0
SEQEND
  0
POLYLINE
 8
d3
 66
     1
10
0.0
 20
 0.0
 30
0.0
70
    64
71
4
72
   1
  0
VERTEX
  8
d3
10
139.14213562373095
20
-60.85786437626905
30
3.0
 70
     192
  0
VERTEX
  8
d3
10
135.0
20
-57.679491924311215
30
0.0
 70
     192
  0
VERTEX
  8
d3
10
139.14213562373095
20
-60.85786437626905
30
0.0
 70
     192
  0
VERTEX
  8
d3
10
135.0
20
-57.679491924311215
30
3.0
 70
     192
  0
VERTEX
  8
d3
10
0.0
 20
 0.0
 30
0.0
 70
     128
 71
-1
 72
2
 73
3
  0
VERTEX
  8
d3
10
0.0
 20
 0.0
 30
0.0
 70
     128
 71
-2
 72
1
 73
4
  0
SEQEND
  0
POLYLINE
 8
d3
 66
     1
10
0.0
 20
 0.0
 30
0.0
70
    64
71
4
72
   1
  0
VERTEX
  8
d3
10
144.31851652578138
20
-69.82361909794957
30
3.0
 70
     192
  0
VERTEX
  8
d3
10
145.0
20
-75.0
30
0.0
 70
     192
  0
VERTEX
  8
d3
10
145.0
20
-75.0
30
3.0
 70
     192
  0
VERTEX
  8
d3
10
144.31851652578138
20
-69.82361909794957
30
0.0
 70
     192
  0
VERTEX
  8
d3
10
0.0
 20
 0.0
 30
0.0
 70
     128
 71
-1
 72
2
 73
3
  0
VERTEX
  8
d3
10
0.0
 20
 0.0
 30
0.0
 70
     128
 71
-2
 72
1
 73
4
  0
SEQEND
  0
POLYLINE
 8
d3
 66
     1
10
0.0
 20
 0.0
 30
0.0
70
    64
71
4
72
   1
  0
VERTEX
  8
d3
10
235.44197759641077
20
-149.93114361773826
30
3.0
 70
     192
  0
VERTEX
  8
d3
10
234.67834861541624
20
-150.0
30
0.0
 70
     192
  0
VERTEX
  8
d3
10
235.44197759641077
20
-149.93114361773826
30
0.0
 70
     192
  0
VERTEX
  8
d3
10
234.67834861541624
20
-150.0
30
3.0
 70
     192
  0
VERTEX
  8
d3
10
0.0
 20
 0.0
 30
0.0
 70
     128
 71
-1
 72
2
 73
3
  0
VERTEX
  8
d3
10
0.0
 20
 0.0
 30
0.0
 70
     128
 71
-2
 72
1
 73
4
  0
SEQEND
  0
POLYLINE
 8
d3
 66
     1
10
0.0
 20
 0.0
 30
0.0
70
    64
71
4
72
   1
  0
VERTEX
  8
d3
10
125.0
20
-95.0
30
3.0
 70
     192
  0
VERTEX
  8
d3
10
130.1763809020504
20
-94.31851652578138
30
0.0
 70
     192
  0
VERTEX
  8
d3
10
125.0
20
-95.0
30
0.0
 70
     192
  0
VERTEX
  8
d3
10
130.1763809020504
20
-94.31851652578138
30
3.0
 70
     192
  0
VERTEX
  8
d3
10
0.0
 20
 0.0
 30
0.0
 70
     128
 71
-1
 72
2
 73
3
  0
VERTEX
  8
d3
10
0.0
 20
 0.0
 30
0.0
 70
     128
 71
-2
 72
1
 73
4
  0
SEQEND
  0
POLYLINE
 8
d3
 66
     1
10
0.0
 20
 0.0
 30
0.0
70
    64
71
4
72
   1
  0
VERTEX
  8
d3
10
119.82361909794959
20
-55.68148347421862
30
3.0
 70
     192
  0
VERTEX
  8
d3
10
114.99999999999999
20
-57.679491924311215
30
0.0
 70
     192
  0
VERTEX
  8
d3
10
119.82361909794959
20
-55.68148347421862
30
0.0
 70
     192
  0
VERTEX
  8
d3
10
114.99999999999999
20
-57.679491924311215
30
3.0
 70
     192
  0
VERTEX
  8
d3
10
0.0
 20
 0.0
 30
0.0
 70
     128
 71
-1
 72
2
 73
3
  0
VERTEX
  8
d3
10
0.0
 20
 0.0
 30
0.0
 70
     128
 71
-2
 72
1
 73
4
  0
SEQEND
  0
POLYLINE
 8
d3
 66
     1
10
0.0
 20
 0.0
 30
0.0
70
    64
71
3
72
   1
  0
VERTEX
  8
d3
10
20.0
20
0.0
30
0.0
 70
     192
  0
VERTEX
  8
d3
10
15.321651384583719
20
0.0
30
0.0
 70
     192
  0
VERTEX
  8
d3
10
17.276345468910645
20
0.17625465563119533
30
0.0
 70
     192
  0
VERTEX
  8
d3
10
0.0
 20
 0.0
 30
0.0
 70
     128
 71
1
 72
2
 73
3
  0
SEQEND
  0
POLYLINE
 8
d3
 66
     1
10
0.0
 20
 0.0
 30
0.0
70
    64
71
3
72
   1
  0
VERTEX
  8
d3
10
0.0
20
-134.33546184353017
30
0.0
 70
     192
  0
VERTEX
  8
d3
10
-0.15572750294303148
20
-132.7177639262809
30
0.0
 70
     192
  0
VERTEX
  8
d3
10
0.0
20
-130.0
30
0.0
 70
     192
  0
VERTEX
  8
d3
10
0.0
 20
 0.0
 30
0.0
 70
     128
 71
1
 72
2
 73
3
  0
SEQEND
  0
POLYLINE
 8
d3
 66
     1
10
0.0
 20
 0.0
 30
0.0
70
    64
71
3
72
   1
  0
VERTEX
  8
d3
10
0.0
20
-134.67834861541627
30
0.0
 70
     192
  0
VERTEX
  8
d3
10
-0.15572750294303148
20
-132.7177639262809
30
0.0
 70
     192
  0
VERTEX
  8
d3
10
0.0
20
-134.33546184353017
30
0.0
 70
     192
  0
VERTEX
  8
d3
10
0.0
 20
 0.0
 30
0.0
 70
     128
 71
1
 72
2
 73
3
  0
SEQEND
  0
POLYLINE
 8
d3
 66
     1
10
0.0
 20
 0.0
 30
0.0
70
    64
71
3
72
   1
  0
VERTEX
  8
d3
10
0.0
20
-20.000000000000007
30
0.0
 70
     192
  0
VERTEX
  8
d3
10
-0.17625465563118686
20
-17.276345468910655
30
0.0
 70
     192
  0
VERTEX
  8
d3
10
0.0
20
-15.32165138458372
30
0.0
 70
     192
  0
VERTEX
  8
d3
10
0.0
 20
 0.0
 30
0.0
 70
     128
 71
1
 72
2
 73
3
  0
SEQEND
  0
POLYLINE
 8
d3
 66
     1
10
0.0
 20
 0.0
 30
0.0
70
    64
71
3
72
   1
  0
VERTEX
  8
d3
10
20.0
20
-150.0
30
0.0
 70
     192
  0
VERTEX
  8
d3
10
17.282236073719098
20
-150.15572750294302
30
0.0
 70
     192
  0
VERTEX
  8
d3
10
15.66453815646985
20
-150.0
30
0.0
 70
     192
  0
VERTEX
  8
d3
10
0.0
 20
 0.0
 30
0.0
 70
     128
 71
1
 72
2
 73
3
  0
SEQEND
  0
POLYLINE
 8
d3
 66
     1
10
0.0
 20
 0.0
 30
0.0
70
    64
71
3
72
   1
  0
VERTEX
  8
d3
10
250.17625465563123
20
-17.276345468910655
30
0.0
 70
     192
  0
VERTEX
  8
d3
10
250.0
20
-20.000000000000007
30
0.0
 70
     192
  0
VERTEX
  8
d3
10
250.0
20
-15.321651384583427
30
0.0
 70
     192
  0
VERTEX
  8
d3
10
0.0
 20
 0.0
 30
0.0
 70
     128
 71
1
 72
2
 73
3
  0
SEQEND
  0
POLYLINE
 8
d3
 66
     1
10
0.0
 20
 0.0
 30
0.0
70
    64
71
3
72
   1
  0
VERTEX
  8
d3
10
234.67834861541624
20
0.0
30
0.0
 70
     192
  0
VERTEX
  8
d3
10
229.99999999999997
20
0.0
30
0.0
 70
     192
  0
VERTEX
  8
d3
10
232.72365453108935
20
0.17625465563119533
30
0.0
 70
     192
  0
VERTEX
  8
d3
10
0.0
 20
 0.0
 30
0.0
 70
     128
 71
1
 72
2
 73
3
  0
SEQEND
  0
POLYLINE
 8
d3
 66
     1
10
0.0
 20
 0.0
 30
0.0
70
    64
71
3
72
   1
  0
VERTEX
  8
d3
10
234.67834861541624
20
-150.0
30
0.0
 70
     192
  0
VERTEX
  8
d3
10
232.72365453108935
20
-150.1762546556312
30
0.0
 70
     192
  0
VERTEX
  8
d3
10
229.99999999999997
20
-150.0
30
0.0
 70
     192
  0
VERTEX
  8
d3
10
0.0
 20
 0.0
 30
0.0
 70
     128
 71
1
 72
2
 73
3
  0
SEQEND
  0
POLYLINE
 8
d3
 66
     1
10
0.0
 20
 0.0
 30
0.0
70
    64
71
3
72
   1
  0
VERTEX
  8
d3
10
250.17625465563123
20
-132.72365453108935
30
0.0
 70
     192
  0
VERTEX
  8
d3
10
250.0
20
-134.67834861541655
30
0.0
 70
     192
  0
VERTEX
  8
d3
10
250.0
20
-130.0
30
0.0
 70
     192
  0
VERTEX
  8
d3
10
0.0
 20
 0.0
 30
0.0
 70
     128
 71
1
 72
2
 73
3
  0
SEQEND
 0
ENDSEC
 0
EOF
