 0
SECTION
 2
ENTITIES
  0
LINE
 8
d3
10
0.0
20
-15.32165138458372
30
0.0
11
0.0
21
0.0
31
0.0
  0
3DFACE
 8
d3
10
0.0688563822617392
20
-14.558022403589254
30
0.0
11
0.0
21
-20.000000000000007
31
0.0
12
0.0
22
-15.32165138458372
32
0.0
13
0.0
23
-15.32165138458372
33
0.0
70
1
  0
3DFACE
 8
d3
10
0.0
20
-20.000000000000007
30
0.0
11
0.0688563822617392
21
-14.558022403589254
31
0.0
12
0.0
22
-55.0
32
0.0
13
0.0
23
-55.0
33
0.0
70
3
  0
3DFACE
 8
d3
10
0.0
20
-55.0
30
0.0
11
0.0688563822617392
21
-14.558022403589254
31
0.0
12
20.000000000000004
22
-55.0
32
0.0
13
20.000000000000004
23
-55.0
33
0.0
70
3
  0
3DFACE
 8
d3
10
20.000000000000004
20
-55.0
30
0.0
11
0.0688563822617392
21
-14.558022403589254
31
0.0
12
0.7294901687515739
22
-11.909830056250533
32
0.0
13
0.7294901687515739
23
-11.909830056250533
33
0.0
70
13
  0
3DFACE
 8
d3
10
20.000000000000004
20
-55.0
30
0.0
11
0.7294901687515739
21
-11.909830056250533
31
0.0
12
1.789898547962937
22
-9.394895906485658
32
0.0
13
1.789898547962937
23
-9.394895906485658
33
0.0
70
13
  0
3DFACE
 8
d3
10
20.000000000000004
20
-55.0
30
0.0
11
1.789898547962937
21
-9.394895906485658
31
0.0
12
3.2248035568414295
22
-7.073170831492766
32
0.0
13
3.2248035568414295
23
-7.073170831492766
33
0.0
70
13
  0
3DFACE
 8
d3
10
20.000000000000004
20
-55.0
30
0.0
11
3.2248035568414295
21
-7.073170831492766
31
0.0
12
4.999999999999995
22
-4.999999999999991
32
0.0
13
4.999999999999995
23
-4.999999999999991
33
0.0
70
13
  0
3DFACE
 8
d3
10
20.000000000000004
20
-55.0
30
0.0
11
4.999999999999995
21
-4.999999999999991
31
0.0
12
7.073170831492771
22
-3.2248035568414264
32
0.0
13
7.073170831492771
23
-3.2248035568414264
33
0.0
70
13
  0
3DFACE
 8
d3
10
20.000000000000004
20
-55.0
30
0.0
11
7.073170831492771
21
-3.2248035568414264
31
0.0
12
9.394895906485647
22
-1.7898985479629312
32
0.0
13
9.394895906485647
23
-1.7898985479629312
33
0.0
70
13
  0
3DFACE
 8
d3
10
20.000000000000004
20
-55.0
30
0.0
11
9.394895906485647
21
-1.7898985479629312
31
0.0
12
11.909830056250525
22
-0.7294901687515739
32
0.0
13
11.909830056250525
23
-0.7294901687515739
33
0.0
70
13
  0
3DFACE
 8
d3
10
20.000000000000004
20
-55.0
30
0.0
11
11.909830056250525
21
-0.7294901687515739
31
0.0
12
14.558022403589245
22
-0.06885638226174766
32
0.0
13
14.558022403589245
23
-0.06885638226174766
33
0.0
70
13
  0
3DFACE
 8
d3
10
20.000000000000004
20
-55.0
30
0.0
11
14.558022403589245
21
-0.06885638226174766
31
0.0
12
15.321651384583719
22
0.0
32
0.0
13
15.321651384583719
23
0.0
33
0.0
70
13
  0
3DFACE
 8
d3
10
20.000000000000004
20
-55.0
30
0.0
11
15.321651384583719
21
0.0
31
0.0
12
20.0
22
0.0
32
0.0
13
20.0
23
0.0
33
0.0
70
13
  0
3DFACE
 8
d3
10
20.000000000000004
20
-55.0
30
0.0
11
20.0
21
0.0
31
0.0
12
104.99999999999999
22
0.0
32
0.0
13
104.99999999999999
23
0.0
33
0.0
70
13
  0
3DFACE
 8
d3
10
234.67834861541624
20
0.0
30
0.0
11
229.99999999999997
21
-55.0
31
0.0
12
229.99999999999997
22
0.0
32
0.0
13
229.99999999999997
23
0.0
33
0.0
70
3
  0
3DFACE
 8
d3
10
229.99999999999997
20
-55.0
30
0.0
11
234.67834861541624
21
0.0
31
0.0
12
250.0
22
-55.0
32
0.0
13
250.0
23
-55.0
33
0.0
70
3
  0
3DFACE
 8
d3
10
250.0
20
-55.0
30
0.0
11
234.67834861541624
21
0.0
31
0.0
12
235.44197759641077
22
-0.06885638226174766
32
0.0
13
235.44197759641077
23
-0.06885638226174766
33
0.0
70
13
  0
3DFACE
 8
d3
10
250.0
20
-55.0
30
0.0
11
235.44197759641077
21
-0.06885638226174766
31
0.0
12
238.09016994374946
22
-0.7294901687515739
32
0.0
13
238.09016994374946
23
-0.7294901687515739
33
0.0
70
13
  0
3DFACE
 8
d3
10
250.0
20
-55.0
30
0.0
11
238.09016994374946
21
-0.7294901687515739
31
0.0
12
240.60510409351434
22
-1.7898985479629312
32
0.0
13
240.60510409351434
23
-1.7898985479629312
33
0.0
70
13
  0
3DFACE
 8
d3
10
250.0
20
-55.0
30
0.0
11
240.60510409351434
21
-1.7898985479629312
31
0.0
12
242.92682916850723
22
-3.2248035568414264
32
0.0
13
242.92682916850723
23
-3.2248035568414264
33
0.0
70
13
  0
3DFACE
 8
d3
10
250.0
20
-55.0
30
0.0
11
242.92682916850723
21
-3.2248035568414264
31
0.0
12
245.0
22
-4.999999999999991
32
0.0
13
245.0
23
-4.999999999999991
33
0.0
70
13
  0
3DFACE
 8
d3
10
250.0
20
-55.0
30
0.0
11
245.0
21
-4.999999999999991
31
0.0
12
246.77519644315856
22
-7.073170831492766
32
0.0
13
246.77519644315856
23
-7.073170831492766
33
0.0
70
13
  0
3DFACE
 8
d3
10
250.0
20
-55.0
30
0.0
11
246.77519644315856
21
-7.073170831492766
31
0.0
12
248.21010145203707
22
-9.394895906485635
32
0.0
13
248.21010145203707
23
-9.394895906485635
33
0.0
70
13
  0
3DFACE
 8
d3
10
250.0
20
-55.0
30
0.0
11
248.21010145203707
21
-9.394895906485635
31
0.0
12
249.27050983124846
22
-11.909830056250533
32
0.0
13
249.27050983124846
23
-11.909830056250533
33
0.0
70
13
  0
3DFACE
 8
d3
10
250.0
20
-55.0
30
0.0
11
249.27050983124846
21
-11.909830056250533
31
0.0
12
249.93114361773826
22
-14.558022403589254
32
0.0
13
249.93114361773826
23
-14.558022403589254
33
0.0
70
13
  0
3DFACE
 8
d3
10
250.0
20
-55.0
30
0.0
11
249.93114361773826
21
-14.558022403589254
31
0.0
12
250.0
22
-15.321651384583427
32
0.0
13
250.0
23
-15.321651384583427
33
0.0
70
13
  0
3DFACE
 8
d3
10
250.0
20
-55.0
30
0.0
11
250.0
21
-15.321651384583427
31
0.0
12
250.0
22
-20.000000000000007
32
0.0
13
250.0
23
-20.000000000000007
33
0.0
70
1
  0
3DFACE
 8
d3
10
229.99999999999997
20
0.0
30
0.0
11
145.0
21
-20.000000000000007
31
0.0
12
145.0
22
0.0
32
0.0
13
145.0
23
0.0
33
0.0
70
1
  0
3DFACE
 8
d3
10
145.0
20
-20.000000000000007
30
0.0
11
229.99999999999997
21
0.0
31
0.0
12
145.0
22
-75.0
32
0.0
13
145.0
23
-75.0
33
0.0
70
15
  0
3DFACE
 8
d3
10
145.0
20
-75.0
30
0.0
11
229.99999999999997
21
0.0
31
0.0
12
145.0
22
-130.0
32
0.0
13
145.0
23
-130.0
33
0.0
70
15
  0
3DFACE
 8
d3
10
145.0
20
-130.0
30
0.0
11
229.99999999999997
21
0.0
31
0.0
12
145.0
22
-150.0
32
0.0
13
145.0
23
-150.0
33
0.0
70
3
  0
3DFACE
 8
d3
10
145.0
20
-150.0
30
0.0
11
229.99999999999997
21
0.0
31
0.0
12
229.99999999999997
22
-150.0
32
0.0
13
229.99999999999997
23
-150.0
33
0.0
70
3
  0
3DFACE
 8
d3
10
229.99999999999997
20
-150.0
30
0.0
11
229.99999999999997
21
0.0
31
0.0
12
229.99999999999997
22
-55.0
32
0.0
13
229.99999999999997
23
-55.0
33
0.0
70
15
  0
3DFACE
 8
d3
10
229.99999999999997
20
-150.0
30
0.0
11
229.99999999999997
21
-55.0
31
0.0
12
229.99999999999997
22
-95.0
32
0.0
13
229.99999999999997
23
-95.0
33
0.0
70
13
  0
3DFACE
 8
d3
10
229.99999999999997
20
-150.0
30
0.0
11
229.99999999999997
21
-95.0
31
0.0
12
250.0
22
-95.0
32
0.0
13
250.0
23
-95.0
33
0.0
70
13
  0
3DFACE
 8
d3
10
229.99999999999997
20
-150.0
30
0.0
11
250.0
21
-95.0
31
0.0
12
234.67834861541624
22
-150.0
32
0.0
13
234.67834861541624
23
-150.0
33
0.0
70
3
  0
3DFACE
 8
d3
10
234.67834861541624
20
-150.0
30
0.0
11
250.0
21
-95.0
31
0.0
12
235.44197759641077
22
-149.93114361773826
32
0.0
13
235.44197759641077
23
-149.93114361773826
33
0.0
70
3
  0
3DFACE
 8
d3
10
235.44197759641077
20
-149.93114361773826
30
0.0
11
250.0
21
-95.0
31
0.0
12
238.09016994374946
22
-149.27050983124843
32
0.0
13
238.09016994374946
23
-149.27050983124843
33
0.0
70
3
  0
3DFACE
 8
d3
10
238.09016994374946
20
-149.27050983124843
30
0.0
11
250.0
21
-95.0
31
0.0
12
240.60510409351434
22
-148.21010145203707
32
0.0
13
240.60510409351434
23
-148.21010145203707
33
0.0
70
3
  0
3DFACE
 8
d3
10
240.60510409351434
20
-148.21010145203707
30
0.0
11
250.0
21
-95.0
31
0.0
12
242.92682916850723
22
-146.77519644315856
32
0.0
13
242.92682916850723
23
-146.77519644315856
33
0.0
70
3
  0
3DFACE
 8
d3
10
242.92682916850723
20
-146.77519644315856
30
0.0
11
250.0
21
-95.0
31
0.0
12
245.0
22
-145.0
32
0.0
13
245.0
23
-145.0
33
0.0
70
3
  0
3DFACE
 8
d3
10
245.0
20
-145.0
30
0.0
11
250.0
21
-95.0
31
0.0
12
246.77519644315856
22
-142.92682916850723
32
0.0
13
246.77519644315856
23
-142.92682916850723
33
0.0
70
3
  0
3DFACE
 8
d3
10
246.77519644315856
20
-142.92682916850723
30
0.0
11
250.0
21
-95.0
31
0.0
12
248.21010145203707
22
-140.60510409351434
32
0.0
13
248.21010145203707
23
-140.60510409351434
33
0.0
70
3
  0
3DFACE
 8
d3
10
248.21010145203707
20
-140.60510409351434
30
0.0
11
250.0
21
-95.0
31
0.0
12
249.27050983124846
22
-138.09016994374946
32
0.0
13
249.27050983124846
23
-138.09016994374946
33
0.0
70
3
  0
3DFACE
 8
d3
10
249.27050983124846
20
-138.09016994374946
30
0.0
11
250.0
21
-95.0
31
0.0
12
249.93114361773826
22
-135.44197759641074
32
0.0
13
249.93114361773826
23
-135.44197759641074
33
0.0
70
3
  0
3DFACE
 8
d3
10
249.93114361773826
20
-135.44197759641074
30
0.0
11
250.0
21
-95.0
31
0.0
12
250.0
22
-134.67834861541655
32
0.0
13
250.0
23
-134.67834861541655
33
0.0
70
3
  0
3DFACE
 8
d3
10
250.0
20
-134.67834861541655
30
0.0
11
250.0
21
-95.0
31
0.0
12
250.0
22
-130.0
32
0.0
13
250.0
23
-130.0
33
0.0
70
1
  0
3DFACE
 8
d3
10
105.68148347421862
20
-80.17638090205041
30
0.0
11
104.99999999999999
21
-130.0
31
0.0
12
104.99999999999999
22
-75.0
32
0.0
13
104.99999999999999
23
-75.0
33
0.0
70
3
  0
3DFACE
 8
d3
10
104.99999999999999
20
-130.0
30
0.0
11
105.68148347421862
21
-80.17638090205041
31
0.0
12
107.67949192431121
22
-85.0
32
0.0
13
107.67949192431121
23
-85.0
33
0.0
70
13
  0
3DFACE
 8
d3
10
104.99999999999999
20
-130.0
30
0.0
11
107.67949192431121
21
-85.0
31
0.0
12
110.85786437626903
22
-89.14213562373095
32
0.0
13
110.85786437626903
23
-89.14213562373095
33
0.0
70
13
  0
3DFACE
 8
d3
10
104.99999999999999
20
-130.0
30
0.0
11
110.85786437626903
21
-89.14213562373095
31
0.0
12
145.0
22
-130.0
32
0.0
13
145.0
23
-130.0
33
0.0
70
3
  0
3DFACE
 8
d3
10
145.0
20
-130.0
30
0.0
11
110.85786437626903
21
-89.14213562373095
31
0.0
12
114.99999999999999
22
-92.32050807568876
32
0.0
13
114.99999999999999
23
-92.32050807568876
33
0.0
70
13
  0
3DFACE
 8
d3
10
145.0
20
-130.0
30
0.0
11
114.99999999999999
21
-92.32050807568876
31
0.0
12
119.82361909794956
22
-94.31851652578138
32
0.0
13
119.82361909794956
23
-94.31851652578138
33
0.0
70
13
  0
3DFACE
 8
d3
10
145.0
20
-130.0
30
0.0
11
119.82361909794956
21
-94.31851652578138
31
0.0
12
125.0
22
-95.0
32
0.0
13
125.0
23
-95.0
33
0.0
70
13
  0
3DFACE
 8
d3
10
145.0
20
-130.0
30
0.0
11
125.0
21
-95.0
31
0.0
12
130.1763809020504
22
-94.31851652578138
32
0.0
13
130.1763809020504
23
-94.31851652578138
33
0.0
70
13
  0
3DFACE
 8
d3
10
145.0
20
-130.0
30
0.0
11
130.1763809020504
21
-94.31851652578138
31
0.0
12
134.99999999999997
22
-92.32050807568878
32
0.0
13
134.99999999999997
23
-92.32050807568878
33
0.0
70
13
  0
3DFACE
 8
d3
10
145.0
20
-130.0
30
0.0
11
134.99999999999997
21
-92.32050807568878
31
0.0
12
139.14213562373095
22
-89.14213562373097
32
0.0
13
139.14213562373095
23
-89.14213562373097
33
0.0
70
13
  0
3DFACE
 8
d3
10
145.0
20
-130.0
30
0.0
11
139.14213562373095
21
-89.14213562373097
31
0.0
12
142.3205080756888
22
-85.00000000000001
32
0.0
13
142.3205080756888
23
-85.00000000000001
33
0.0
70
13
  0
3DFACE
 8
d3
10
145.0
20
-130.0
30
0.0
11
142.3205080756888
21
-85.00000000000001
31
0.0
12
144.31851652578138
22
-80.17638090205043
32
0.0
13
144.31851652578138
23
-80.17638090205043
33
0.0
70
13
  0
3DFACE
 8
d3
10
145.0
20
-130.0
30
0.0
11
144.31851652578138
21
-80.17638090205043
31
0.0
12
145.0
22
-75.0
32
0.0
13
145.0
23
-75.0
33
0.0
70
13
  0
3DFACE
 8
d3
10
104.99999999999999
20
-20.000000000000007
30
0.0
11
105.68148347421862
21
-69.82361909794957
31
0.0
12
104.99999999999999
22
-75.0
32
0.0
13
104.99999999999999
23
-75.0
33
0.0
70
13
  0
3DFACE
 8
d3
10
105.68148347421862
20
-69.82361909794957
30
0.0
11
104.99999999999999
21
-20.000000000000007
31
0.0
12
107.67949192431121
22
-64.99999999999999
32
0.0
13
107.67949192431121
23
-64.99999999999999
33
0.0
70
3
  0
3DFACE
 8
d3
10
107.67949192431121
20
-64.99999999999999
30
0.0
11
104.99999999999999
21
-20.000000000000007
31
0.0
12
110.85786437626903
22
-60.857864376269035
32
0.0
13
110.85786437626903
23
-60.857864376269035
33
0.0
70
3
  0
3DFACE
 8
d3
10
110.85786437626903
20
-60.857864376269035
30
0.0
11
104.99999999999999
21
-20.000000000000007
31
0.0
12
145.0
22
-20.000000000000007
32
0.0
13
145.0
23
-20.000000000000007
33
0.0
70
13
  0
3DFACE
 8
d3
10
110.85786437626903
20
-60.857864376269035
30
0.0
11
145.0
21
-20.000000000000007
31
0.0
12
114.99999999999999
22
-57.679491924311215
32
0.0
13
114.99999999999999
23
-57.679491924311215
33
0.0
70
3
  0
3DFACE
 8
d3
10
114.99999999999999
20
-57.679491924311215
30
0.0
11
145.0
21
-20.000000000000007
31
0.0
12
119.82361909794959
22
-55.68148347421862
32
0.0
13
119.82361909794959
23
-55.68148347421862
33
0.0
70
3
  0
3DFACE
 8
d3
10
119.82361909794959
20
-55.68148347421862
30
0.0
11
145.0
21
-20.000000000000007
31
0.0
12
125.0
22
-54.99999999999999
32
0.0
13
125.0
23
-54.99999999999999
33
0.0
70
3
  0
3DFACE
 8
d3
10
125.0
20
-54.99999999999999
30
0.0
11
145.0
21
-20.000000000000007
31
0.0
12
130.1763809020504
22
-55.68148347421862
32
0.0
13
130.1763809020504
23
-55.68148347421862
33
0.0
70
3
  0
3DFACE
 8
d3
10
130.1763809020504
20
-55.68148347421862
30
0.0
11
145.0
21
-20.000000000000007
31
0.0
12
135.0
22
-57.679491924311215
32
0.0
13
135.0
23
-57.679491924311215
33
0.0
70
3
  0
3DFACE
 8
d3
10
135.0
20
-57.679491924311215
30
0.0
11
145.0
21
-20.000000000000007
31
0.0
12
139.14213562373095
22
-60.85786437626905
32
0.0
13
139.14213562373095
23
-60.85786437626905
33
0.0
70
3
  0
3DFACE
 8
d3
10
139.14213562373095
20
-60.85786437626905
30
0.0
11
145.0
21
-20.000000000000007
31
0.0
12
142.3205080756888
22
-65.0
32
0.0
13
142.3205080756888
23
-65.0
33
0.0
70
3
  0
3DFACE
 8
d3
10
142.3205080756888
20
-65.0
30
0.0
11
145.0
21
-20.000000000000007
31
0.0
12
144.31851652578138
22
-69.82361909794957
32
0.0
13
144.31851652578138
23
-69.82361909794957
33
0.0
70
3
  0
3DFACE
 8
d3
10
144.31851652578138
20
-69.82361909794957
30
0.0
11
145.0
21
-20.000000000000007
31
0.0
12
145.0
22
-75.0
32
0.0
13
145.0
23
-75.0
33
0.0
70
3
  0
3DFACE
 8
d3
10
20.0
20
-95.0
30
0.0
11
0.0
21
-130.0
31
0.0
12
0.0
22
-95.0
32
0.0
13
0.0
23
-95.0
33
0.0
70
1
  0
3DFACE
 8
d3
10
0.0
20
-130.0
30
0.0
11
20.0
21
-95.0
31
0.0
12
0.0
22
-134.33546184353017
32
0.0
13
0.0
23
-134.33546184353017
33
0.0
70
3
  0
3DFACE
 8
d3
10
0.0
20
-134.33546184353017
30
0.0
11
20.0
21
-95.0
31
0.0
12
0.0
22
-134.67834861541627
32
0.0
13
0.0
23
-134.67834861541627
33
0.0
70
3
  0
3DFACE
 8
d3
10
0.0
20
-134.67834861541627
30
0.0
11
20.0
21
-95.0
31
0.0
12
0.0688563822617392
22
-135.44197759641074
32
0.0
13
0.0688563822617392
23
-135.44197759641074
33
0.0
70
3
  0
3DFACE
 8
d3
10
0.0688563822617392
20
-135.44197759641074
30
0.0
11
20.0
21
-95.0
31
0.0
12
0.7294901687515768
22
-138.09016994374946
32
0.0
13
0.7294901687515768
23
-138.09016994374946
33
0.0
70
3
  0
3DFACE
 8
d3
10
0.7294901687515768
20
-138.09016994374946
30
0.0
11
20.0
21
-95.0
31
0.0
12
1.7898985479629426
22
-140.60510409351434
32
0.0
13
1.7898985479629426
23
-140.60510409351434
33
0.0
70
3
  0
3DFACE
 8
d3
10
1.7898985479629426
20
-140.60510409351434
30
0.0
11
20.0
21
-95.0
31
0.0
12
3.224803556841435
22
-142.9268291685072
32
0.0
13
3.224803556841435
23
-142.9268291685072
33
0.0
70
3
  0
3DFACE
 8
d3
10
3.224803556841435
20
-142.9268291685072
30
0.0
11
20.0
21
-95.0
31
0.0
12
4.9999999999999964
22
-144.99999999999997
32
0.0
13
4.9999999999999964
23
-144.99999999999997
33
0.0
70
3
  0
3DFACE
 8
d3
10
4.9999999999999964
20
-144.99999999999997
30
0.0
11
20.0
21
-95.0
31
0.0
12
7.073170831492772
22
-146.77519644315853
32
0.0
13
7.073170831492772
23
-146.77519644315853
33
0.0
70
3
  0
3DFACE
 8
d3
10
7.073170831492772
20
-146.77519644315853
30
0.0
11
20.0
21
-95.0
31
0.0
12
9.394895906485646
22
-148.21010145203707
32
0.0
13
9.394895906485646
23
-148.21010145203707
33
0.0
70
3
  0
3DFACE
 8
d3
10
9.394895906485646
20
-148.21010145203707
30
0.0
11
20.0
21
-95.0
31
0.0
12
11.909830056250525
22
-149.27050983124843
32
0.0
13
11.909830056250525
23
-149.27050983124843
33
0.0
70
3
  0
3DFACE
 8
d3
10
11.909830056250525
20
-149.27050983124843
30
0.0
11
20.0
21
-95.0
31
0.0
12
14.558022403589247
22
-149.93114361773826
32
0.0
13
14.558022403589247
23
-149.93114361773826
33
0.0
70
3
  0
3DFACE
 8
d3
10
14.558022403589247
20
-149.93114361773826
30
0.0
11
20.0
21
-95.0
31
0.0
12
15.321651384583761
22
-150.0
32
0.0
13
15.321651384583761
23
-150.0
33
0.0
70
3
  0
3DFACE
 8
d3
10
15.321651384583761
20
-150.0
30
0.0
11
20.0
21
-95.0
31
0.0
12
15.66453815646985
22
-150.0
32
0.0
13
15.66453815646985
23
-150.0
33
0.0
70
3
  0
3DFACE
 8
d3
10
15.66453815646985
20
-150.0
30
0.0
11
20.0
21
-95.0
31
0.0
12
20.0
22
-150.0
32
0.0
13
20.0
23
-150.0
33
0.0
70
3
  0
3DFACE
 8
d3
10
20.0
20
-150.0
30
0.0
11
20.0
21
-95.0
31
0.0
12
20.000000000000004
22
-55.0
32
0.0
13
20.000000000000004
23
-55.0
33
0.0
70
13
  0
3DFACE
 8
d3
10
20.0
20
-150.0
30
0.0
11
20.000000000000004
21
-55.0
31
0.0
12
104.99999999999999
22
-150.0
32
0.0
13
104.99999999999999
23
-150.0
33
0.0
70
3
  0
3DFACE
 8
d3
10
104.99999999999999
20
-150.0
30
0.0
11
20.000000000000004
21
-55.0
31
0.0
12
104.99999999999999
22
0.0
32
0.0
13
104.99999999999999
23
0.0
33
0.0
70
15
  0
3DFACE
 8
d3
10
104.99999999999999
20
-150.0
30
0.0
11
104.99999999999999
21
0.0
31
0.0
12
104.99999999999999
22
-20.000000000000007
32
0.0
13
104.99999999999999
23
-20.000000000000007
33
0.0
70
13
  0
3DFACE
 8
d3
10
104.99999999999999
20
-150.0
30
0.0
11
104.99999999999999
21
-20.000000000000007
31
0.0
12
104.99999999999999
22
-75.0
32
0.0
13
104.99999999999999
23
-75.0
33
0.0
70
15
  0
3DFACE
 8
d3
10
104.99999999999999
20
-150.0
30
0.0
11
104.99999999999999
21
-75.0
31
0.0
12
104.99999999999999
22
-130.0
32
0.0
13
104.99999999999999
23
-130.0
33
0.0
70
3
  0
3DFACE
 8
d3
10
250.0
20
-55.0
30
3.0
11
229.99999999999997
21
-55.0
31
0.0
12
250.0
22
-55.0
32
0.0
13
250.0
23
-55.0
33
0.0
70
1
  0
3DFACE
 8
d3
10
229.99999999999997
20
-55.0
30
0.0
11
250.0
21
-55.0
31
3.0
12
229.99999999999997
22
-55.0
32
3.0
13
229.99999999999997
23
-55.0
33
3.0
70
1
  0
3DFACE
 8
d3
10
229.99999999999997
20
-95.0
30
3.0
11
250.0
21
-95.0
31
0.0
12
229.99999999999997
22
-95.0
32
0.0
13
229.99999999999997
23
-95.0
33
0.0
70
1
  0
3DFACE
 8
d3
10
250.0
20
-95.0
30
0.0
11
229.99999999999997
21
-95.0
31
3.0
12
250.0
22
-95.0
32
3.0
13
250.0
23
-95.0
33
3.0
70
1
  0
3DFACE
 8
d3
10
0.0688563822617392
20
-135.44197759641074
30
3.0
11
0.0
21
-134.33546184353017
31
3.0
12
0.0
22
-134.67834861541627
32
3.0
13
0.0
23
-134.67834861541627
33
3.0
70
1
  0
3DFACE
 8
d3
10
0.0
20
-134.33546184353017
30
3.0
11
0.0688563822617392
21
-135.44197759641074
31
3.0
12
0.0
22
-130.0
32
3.0
13
0.0
23
-130.0
33
3.0
70
3
  0
3DFACE
 8
d3
10
0.0
20
-130.0
30
3.0
11
0.0688563822617392
21
-135.44197759641074
31
3.0
12
0.0
22
-95.0
32
3.0
13
0.0
23
-95.0
33
3.0
70
3
  0
3DFACE
 8
d3
10
0.0
20
-95.0
30
3.0
11
0.0688563822617392
21
-135.44197759641074
31
3.0
12
20.0
22
-95.0
32
3.0
13
20.0
23
-95.0
33
3.0
70
3
  0
3DFACE
 8
d3
10
20.0
20
-95.0
30
3.0
11
0.0688563822617392
21
-135.44197759641074
31
3.0
12
0.7294901687515768
22
-138.09016994374946
32
3.0
13
0.7294901687515768
23
-138.09016994374946
33
3.0
70
13
  0
3DFACE
 8
d3
10
20.0
20
-95.0
30
3.0
11
0.7294901687515768
21
-138.09016994374946
31
3.0
12
1.7898985479629426
22
-140.60510409351434
32
3.0
13
1.7898985479629426
23
-140.60510409351434
33
3.0
70
13
  0
3DFACE
 8
d3
10
20.0
20
-95.0
30
3.0
11
1.7898985479629426
21
-140.60510409351434
31
3.0
12
3.224803556841435
22
-142.9268291685072
32
3.0
13
3.224803556841435
23
-142.9268291685072
33
3.0
70
13
  0
3DFACE
 8
d3
10
20.0
20
-95.0
30
3.0
11
3.224803556841435
21
-142.9268291685072
31
3.0
12
4.9999999999999964
22
-144.99999999999997
32
3.0
13
4.9999999999999964
23
-144.99999999999997
33
3.0
70
13
  0
3DFACE
 8
d3
10
20.0
20
-95.0
30
3.0
11
4.9999999999999964
21
-144.99999999999997
31
3.0
12
7.073170831492772
22
-146.77519644315853
32
3.0
13
7.073170831492772
23
-146.77519644315853
33
3.0
70
13
  0
3DFACE
 8
d3
10
20.0
20
-95.0
30
3.0
11
7.073170831492772
21
-146.77519644315853
31
3.0
12
9.394895906485646
22
-148.21010145203707
32
3.0
13
9.394895906485646
23
-148.21010145203707
33
3.0
70
13
  0
3DFACE
 8
d3
10
20.0
20
-95.0
30
3.0
11
9.394895906485646
21
-148.21010145203707
31
3.0
12
11.909830056250525
22
-149.27050983124843
32
3.0
13
11.909830056250525
23
-149.27050983124843
33
3.0
70
13
  0
3DFACE
 8
d3
10
20.0
20
-95.0
30
3.0
11
11.909830056250525
21
-149.27050983124843
31
3.0
12
14.558022403589247
22
-149.93114361773826
32
3.0
13
14.558022403589247
23
-149.93114361773826
33
3.0
70
13
  0
3DFACE
 8
d3
10
20.0
20
-95.0
30
3.0
11
14.558022403589247
21
-149.93114361773826
31
3.0
12
15.321651384583761
22
-150.0
32
3.0
13
15.321651384583761
23
-150.0
33
3.0
70
13
  0
3DFACE
 8
d3
10
20.0
20
-95.0
30
3.0
11
15.321651384583761
21
-150.0
31
3.0
12
15.66453815646985
22
-150.0
32
3.0
13
15.66453815646985
23
-150.0
33
3.0
70
13
  0
3DFACE
 8
d3
10
20.0
20
-95.0
30
3.0
11
15.66453815646985
21
-150.0
31
3.0
12
20.0
22
-150.0
32
3.0
13
20.0
23
-150.0
33
3.0
70
13
  0
3DFACE
 8
d3
10
20.0
20
-95.0
30
3.0
11
20.0
21
-150.0
31
3.0
12
104.99999999999999
22
-150.0
32
3.0
13
104.99999999999999
23
-150.0
33
3.0
70
13
  0
3DFACE
 8
d3
10
20.0
20
-95.0
30
3.0
11
104.99999999999999
21
-150.0
31
3.0
12
20.000000000000004
22
-55.0
32
3.0
13
20.000000000000004
23
-55.0
33
3.0
70
3
  0
3DFACE
 8
d3
10
234.67834861541624
20
-150.0
30
3.0
11
229.99999999999997
21
-95.0
31
3.0
12
229.99999999999997
22
-150.0
32
3.0
13
229.99999999999997
23
-150.0
33
3.0
70
3
  0
3DFACE
 8
d3
10
229.99999999999997
20
-95.0
30
3.0
11
234.67834861541624
21
-150.0
31
3.0
12
250.0
22
-95.0
32
3.0
13
250.0
23
-95.0
33
3.0
70
3
  0
3DFACE
 8
d3
10
250.0
20
-95.0
30
3.0
11
234.67834861541624
21
-150.0
31
3.0
12
235.44197759641077
22
-149.93114361773826
32
3.0
13
235.44197759641077
23
-149.93114361773826
33
3.0
70
13
  0
3DFACE
 8
d3
10
250.0
20
-95.0
30
3.0
11
235.44197759641077
21
-149.93114361773826
31
3.0
12
238.09016994374946
22
-149.27050983124843
32
3.0
13
238.09016994374946
23
-149.27050983124843
33
3.0
70
13
  0
3DFACE
 8
d3
10
250.0
20
-95.0
30
3.0
11
238.09016994374946
21
-149.27050983124843
31
3.0
12
240.60510409351434
22
-148.21010145203707
32
3.0
13
240.60510409351434
23
-148.21010145203707
33
3.0
70
13
  0
3DFACE
 8
d3
10
250.0
20
-95.0
30
3.0
11
240.60510409351434
21
-148.21010145203707
31
3.0
12
242.92682916850723
22
-146.77519644315856
32
3.0
13
242.92682916850723
23
-146.77519644315856
33
3.0
70
13
  0
3DFACE
 8
d3
10
250.0
20
-95.0
30
3.0
11
242.92682916850723
21
-146.77519644315856
31
3.0
12
245.0
22
-145.0
32
3.0
13
245.0
23
-145.0
33
3.0
70
13
  0
3DFACE
 8
d3
10
250.0
20
-95.0
30
3.0
11
245.0
21
-145.0
31
3.0
12
246.77519644315856
22
-142.92682916850723
32
3.0
13
246.77519644315856
23
-142.92682916850723
33
3.0
70
13
  0
3DFACE
 8
d3
10
250.0
20
-95.0
30
3.0
11
246.77519644315856
21
-142.92682916850723
31
3.0
12
248.21010145203707
22
-140.60510409351434
32
3.0
13
248.21010145203707
23
-140.60510409351434
33
3.0
70
13
  0
3DFACE
 8
d3
10
250.0
20
-95.0
30
3.0
11
248.21010145203707
21
-140.60510409351434
31
3.0
12
249.27050983124846
22
-138.09016994374946
32
3.0
13
249.27050983124846
23
-138.09016994374946
33
3.0
70
13
  0
3DFACE
 8
d3
10
250.0
20
-95.0
30
3.0
11
249.27050983124846
21
-138.09016994374946
31
3.0
12
249.93114361773826
22
-135.44197759641074
32
3.0
13
249.93114361773826
23
-135.44197759641074
33
3.0
70
13
  0
3DFACE
 8
d3
10
250.0
20
-95.0
30
3.0
11
249.93114361773826
21
-135.44197759641074
31
3.0
12
250.0
22
-134.67834861541655
32
3.0
13
250.0
23
-134.67834861541655
33
3.0
70
13
  0
3DFACE
 8
d3
10
250.0
20
-95.0
30
3.0
11
250.0
21
-134.67834861541655
31
3.0
12
250.0
22
-130.0
32
3.0
13
250.0
23
-130.0
33
3.0
70
1
  0
3DFACE
 8
d3
10
229.99999999999997
20
-150.0
30
3.0
11
145.0
21
-130.0
31
3.0
12
145.0
22
-150.0
32
3.0
13
145.0
23
-150.0
33
3.0
70
1
  0
3DFACE
 8
d3
10
145.0
20
-130.0
30
3.0
11
229.99999999999997
21
-150.0
31
3.0
12
145.0
22
-75.0
32
3.0
13
145.0
23
-75.0
33
3.0
70
15
  0
3DFACE
 8
d3
10
145.0
20
-75.0
30
3.0
11
229.99999999999997
21
-150.0
31
3.0
12
145.0
22
-20.000000000000007
32
3.0
13
145.0
23
-20.000000000000007
33
3.0
70
15
  0
3DFACE
 8
d3
10
145.0
20
-20.000000000000007
30
3.0
11
229.99999999999997
21
-150.0
31
3.0
12
145.0
22
0.0
32
3.0
13
145.0
23
0.0
33
3.0
70
3
  0
3DFACE
 8
d3
10
145.0
20
0.0
30
3.0
11
229.99999999999997
21
-150.0
31
3.0
12
229.99999999999997
22
0.0
32
3.0
13
229.99999999999997
23
0.0
33
3.0
70
3
  0
3DFACE
 8
d3
10
229.99999999999997
20
0.0
30
3.0
11
229.99999999999997
21
-150.0
31
3.0
12
229.99999999999997
22
-95.0
32
3.0
13
229.99999999999997
23
-95.0
33
3.0
70
15
  0
3DFACE
 8
d3
10
229.99999999999997
20
0.0
30
3.0
11
229.99999999999997
21
-95.0
31
3.0
12
229.99999999999997
22
-55.0
32
3.0
13
229.99999999999997
23
-55.0
33
3.0
70
13
  0
3DFACE
 8
d3
10
229.99999999999997
20
0.0
30
3.0
11
229.99999999999997
21
-55.0
31
3.0
12
250.0
22
-55.0
32
3.0
13
250.0
23
-55.0
33
3.0
70
13
  0
3DFACE
 8
d3
10
229.99999999999997
20
0.0
30
3.0
11
250.0
21
-55.0
31
3.0
12
234.67834861541624
22
0.0
32
3.0
13
234.67834861541624
23
0.0
33
3.0
70
3
  0
3DFACE
 8
d3
10
234.67834861541624
20
0.0
30
3.0
11
250.0
21
-55.0
31
3.0
12
235.44197759641077
22
-0.06885638226174766
32
3.0
13
235.44197759641077
23
-0.06885638226174766
33
3.0
70
3
  0
3DFACE
 8
d3
10
235.44197759641077
20
-0.06885638226174766
30
3.0
11
250.0
21
-55.0
31
3.0
12
238.09016994374946
22
-0.7294901687515739
32
3.0
13
238.09016994374946
23
-0.7294901687515739
33
3.0
70
3
  0
3DFACE
 8
d3
10
238.09016994374946
20
-0.7294901687515739
30
3.0
11
250.0
21
-55.0
31
3.0
12
240.60510409351434
22
-1.7898985479629312
32
3.0
13
240.60510409351434
23
-1.7898985479629312
33
3.0
70
3
  0
3DFACE
 8
d3
10
240.60510409351434
20
-1.7898985479629312
30
3.0
11
250.0
21
-55.0
31
3.0
12
242.92682916850723
22
-3.2248035568414264
32
3.0
13
242.92682916850723
23
-3.2248035568414264
33
3.0
70
3
  0
3DFACE
 8
d3
10
242.92682916850723
20
-3.2248035568414264
30
3.0
11
250.0
21
-55.0
31
3.0
12
245.0
22
-4.999999999999991
32
3.0
13
245.0
23
-4.999999999999991
33
3.0
70
3
  0
3DFACE
 8
d3
10
245.0
20
-4.999999999999991
30
3.0
11
250.0
21
-55.0
31
3.0
12
246.77519644315856
22
-7.073170831492766
32
3.0
13
246.77519644315856
23
-7.073170831492766
33
3.0
70
3
  0
3DFACE
 8
d3
10
246.77519644315856
20
-7.073170831492766
30
3.0
11
250.0
21
-55.0
31
3.0
12
248.21010145203707
22
-9.394895906485635
32
3.0
13
248.21010145203707
23
-9.394895906485635
33
3.0
70
3
  0
3DFACE
 8
d3
10
248.21010145203707
20
-9.394895906485635
30
3.0
11
250.0
21
-55.0
31
3.0
12
249.27050983124846
22
-11.909830056250533
32
3.0
13
249.27050983124846
23
-11.909830056250533
33
3.0
70
3
  0
3DFACE
 8
d3
10
249.27050983124846
20
-11.909830056250533
30
3.0
11
250.0
21
-55.0
31
3.0
12
249.93114361773826
22
-14.558022403589254
32
3.0
13
249.93114361773826
23
-14.558022403589254
33
3.0
70
3
  0
3DFACE
 8
d3
10
249.93114361773826
20
-14.558022403589254
30
3.0
11
250.0
21
-55.0
31
3.0
12
250.0
22
-15.321651384583427
32
3.0
13
250.0
23
-15.321651384583427
33
3.0
70
3
  0
3DFACE
 8
d3
10
250.0
20
-15.321651384583427
30
3.0
11
250.0
21
-55.0
31
3.0
12
250.0
22
-20.000000000000007
32
3.0
13
250.0
23
-20.000000000000007
33
3.0
70
1
  0
3DFACE
 8
d3
10
105.68148347421862
20
-69.82361909794957
30
3.0
11
104.99999999999999
21
-20.000000000000007
31
3.0
12
104.99999999999999
22
-75.0
32
3.0
13
104.99999999999999
23
-75.0
33
3.0
70
3
  0
3DFACE
 8
d3
10
104.99999999999999
20
-20.000000000000007
30
3.0
11
105.68148347421862
21
-69.82361909794957
31
3.0
12
107.67949192431121
22
-64.99999999999999
32
3.0
13
107.67949192431121
23
-64.99999999999999
33
3.0
70
13
  0
3DFACE
 8
d3
10
104.99999999999999
20
-20.000000000000007
30
3.0
11
107.67949192431121
21
-64.99999999999999
31
3.0
12
110.85786437626903
22
-60.857864376269035
32
3.0
13
110.85786437626903
23
-60.857864376269035
33
3.0
70
13
  0
3DFACE
 8
d3
10
104.99999999999999
20
-20.000000000000007
30
3.0
11
110.85786437626903
21
-60.857864376269035
31
3.0
12
145.0
22
-20.000000000000007
32
3.0
13
145.0
23
-20.000000000000007
33
3.0
70
3
  0
3DFACE
 8
d3
10
145.0
20
-20.000000000000007
30
3.0
11
110.85786437626903
21
-60.857864376269035
31
3.0
12
114.99999999999999
22
-57.679491924311215
32
3.0
13
114.99999999999999
23
-57.679491924311215
33
3.0
70
13
  0
3DFACE
 8
d3
10
145.0
20
-20.000000000000007
30
3.0
11
114.99999999999999
21
-57.679491924311215
31
3.0
12
119.82361909794959
22
-55.68148347421862
32
3.0
13
119.82361909794959
23
-55.68148347421862
33
3.0
70
13
  0
3DFACE
 8
d3
10
145.0
20
-20.000000000000007
30
3.0
11
119.82361909794959
21
-55.68148347421862
31
3.0
12
125.0
22
-54.99999999999999
32
3.0
13
125.0
23
-54.99999999999999
33
3.0
70
13
  0
3DFACE
 8
d3
10
145.0
20
-20.000000000000007
30
3.0
11
125.0
21
-54.99999999999999
31
3.0
12
130.1763809020504
22
-55.68148347421862
32
3.0
13
130.1763809020504
23
-55.68148347421862
33
3.0
70
13
  0
3DFACE
 8
d3
10
145.0
20
-20.000000000000007
30
3.0
11
130.1763809020504
21
-55.68148347421862
31
3.0
12
135.0
22
-57.679491924311215
32
3.0
13
135.0
23
-57.679491924311215
33
3.0
70
13
  0
3DFACE
 8
d3
10
145.0
20
-20.000000000000007
30
3.0
11
135.0
21
-57.679491924311215
31
3.0
12
139.14213562373095
22
-60.85786437626905
32
3.0
13
139.14213562373095
23
-60.85786437626905
33
3.0
70
13
  0
3DFACE
 8
d3
10
145.0
20
-20.000000000000007
30
3.0
11
139.14213562373095
21
-60.85786437626905
31
3.0
12
142.3205080756888
22
-65.0
32
3.0
13
142.3205080756888
23
-65.0
33
3.0
70
13
  0
3DFACE
 8
d3
10
145.0
20
-20.000000000000007
30
3.0
11
142.3205080756888
21
-65.0
31
3.0
12
144.31851652578138
22
-69.82361909794957
32
3.0
13
144.31851652578138
23
-69.82361909794957
33
3.0
70
13
  0
3DFACE
 8
d3
10
145.0
20
-20.000000000000007
30
3.0
11
144.31851652578138
21
-69.82361909794957
31
3.0
12
145.0
22
-75.0
32
3.0
13
145.0
23
-75.0
33
3.0
70
13
  0
3DFACE
 8
d3
10
104.99999999999999
20
-130.0
30
3.0
11
105.68148347421862
21
-80.17638090205041
31
3.0
12
104.99999999999999
22
-75.0
32
3.0
13
104.99999999999999
23
-75.0
33
3.0
70
13
  0
3DFACE
 8
d3
10
105.68148347421862
20
-80.17638090205041
30
3.0
11
104.99999999999999
21
-130.0
31
3.0
12
107.67949192431121
22
-85.0
32
3.0
13
107.67949192431121
23
-85.0
33
3.0
70
3
  0
3DFACE
 8
d3
10
107.67949192431121
20
-85.0
30
3.0
11
104.99999999999999
21
-130.0
31
3.0
12
110.85786437626903
22
-89.14213562373095
32
3.0
13
110.85786437626903
23
-89.14213562373095
33
3.0
70
3
  0
3DFACE
 8
d3
10
110.85786437626903
20
-89.14213562373095
30
3.0
11
104.99999999999999
21
-130.0
31
3.0
12
145.0
22
-130.0
32
3.0
13
145.0
23
-130.0
33
3.0
70
13
  0
3DFACE
 8
d3
10
110.85786437626903
20
-89.14213562373095
30
3.0
11
145.0
21
-130.0
31
3.0
12
114.99999999999999
22
-92.32050807568876
32
3.0
13
114.99999999999999
23
-92.32050807568876
33
3.0
70
3
  0
3DFACE
 8
d3
10
114.99999999999999
20
-92.32050807568876
30
3.0
11
145.0
21
-130.0
31
3.0
12
119.82361909794956
22
-94.31851652578138
32
3.0
13
119.82361909794956
23
-94.31851652578138
33
3.0
70
3
  0
3DFACE
 8
d3
10
119.82361909794956
20
-94.31851652578138
30
3.0
11
145.0
21
-130.0
31
3.0
12
125.0
22
-95.0
32
3.0
13
125.0
23
-95.0
33
3.0
70
3
  0
3DFACE
 8
d3
10
125.0
20
-95.0
30
3.0
11
145.0
21
-130.0
31
3.0
12
130.1763809020504
22
-94.31851652578138
32
3.0
13
130.1763809020504
23
-94.31851652578138
33
3.0
70
3
  0
3DFACE
 8
d3
10
130.1763809020504
20
-94.31851652578138
30
3.0
11
145.0
21
-130.0
31
3.0
12
134.99999999999997
22
-92.32050807568878
32
3.0
13
134.99999999999997
23
-92.32050807568878
33
3.0
70
3
  0
3DFACE
 8
d3
10
134.99999999999997
20
-92.32050807568878
30
3.0
11
145.0
21
-130.0
31
3.0
12
139.14213562373095
22
-89.14213562373097
32
3.0
13
139.14213562373095
23
-89.14213562373097
33
3.0
70
3
  0
3DFACE
 8
d3
10
139.14213562373095
20
-89.14213562373097
30
3.0
11
145.0
21
-130.0
31
3.0
12
142.3205080756888
22
-85.00000000000001
32
3.0
13
142.3205080756888
23
-85.00000000000001
33
3.0
70
3
  0
3DFACE
 8
d3
10
142.3205080756888
20
-85.00000000000001
30
3.0
11
145.0
21
-130.0
31
3.0
12
144.31851652578138
22
-80.17638090205043
32
3.0
13
144.31851652578138
23
-80.17638090205043
33
3.0
70
3
  0
3DFACE
 8
d3
10
144.31851652578138
20
-80.17638090205043
30
3.0
11
145.0
21
-130.0
31
3.0
12
145.0
22
-75.0
32
3.0
13
145.0
23
-75.0
33
3.0
70
3
  0
3DFACE
 8
d3
10
20.000000000000004
20
-55.0
30
3.0
11
0.0
21
-20.000000000000007
31
3.0
12
0.0
22
-55.0
32
3.0
13
0.0
23
-55.0
33
3.0
70
1
  0
3DFACE
 8
d3
10
0.0
20
-20.000000000000007
30
3.0
11
20.000000000000004
21
-55.0
31
3.0
12
0.0
22
-15.32165138458372
32
3.0
13
0.0
23
-15.32165138458372
33
3.0
70
3
  0
3DFACE
 8
d3
10
0.0
20
-15.32165138458372
30
3.0
11
20.000000000000004
21
-55.0
31
3.0
12
0.0688563822617392
22
-14.558022403589254
32
3.0
13
0.0688563822617392
23
-14.558022403589254
33
3.0
70
3
  0
3DFACE
 8
d3
10
0.0688563822617392
20
-14.558022403589254
30
3.0
11
20.000000000000004
21
-55.0
31
3.0
12
0.7294901687515739
22
-11.909830056250533
32
3.0
13
0.7294901687515739
23
-11.909830056250533
33
3.0
70
3
  0
3DFACE
 8
d3
10
0.7294901687515739
20
-11.909830056250533
30
3.0
11
20.000000000000004
21
-55.0
31
3.0
12
1.789898547962937
22
-9.394895906485658
32
3.0
13
1.789898547962937
23
-9.394895906485658
33
3.0
70
3
  0
3DFACE
 8
d3
10
1.789898547962937
20
-9.394895906485658
30
3.0
11
20.000000000000004
21
-55.0
31
3.0
12
3.2248035568414295
22
-7.073170831492766
32
3.0
13
3.2248035568414295
23
-7.073170831492766
33
3.0
70
3
  0
3DFACE
 8
d3
10
3.2248035568414295
20
-7.073170831492766
30
3.0
11
20.000000000000004
21
-55.0
31
3.0
12
4.999999999999995
22
-4.999999999999991
32
3.0
13
4.999999999999995
23
-4.999999999999991
33
3.0
70
3
  0
3DFACE
 8
d3
10
4.999999999999995
20
-4.999999999999991
30
3.0
11
20.000000000000004
21
-55.0
31
3.0
12
7.073170831492771
22
-3.2248035568414264
32
3.0
13
7.073170831492771
23
-3.2248035568414264
33
3.0
70
3
  0
3DFACE
 8
d3
10
7.073170831492771
20
-3.2248035568414264
30
3.0
11
20.000000000000004
21
-55.0
31
3.0
12
9.394895906485647
22
-1.7898985479629312
32
3.0
13
9.394895906485647
23
-1.7898985479629312
33
3.0
70
3
  0
3DFACE
 8
d3
10
9.394895906485647
20
-1.7898985479629312
30
3.0
11
20.000000000000004
21
-55.0
31
3.0
12
11.909830056250525
22
-0.7294901687515739
32
3.0
13
11.909830056250525
23
-0.7294901687515739
33
3.0
70
3
  0
3DFACE
 8
d3
10
11.909830056250525
20
-0.7294901687515739
30
3.0
11
20.000000000000004
21
-55.0
31
3.0
12
14.558022403589245
22
-0.06885638226174766
32
3.0
13
14.558022403589245
23
-0.06885638226174766
33
3.0
70
3
  0
3DFACE
 8
d3
10
14.558022403589245
20
-0.06885638226174766
30
3.0
11
20.000000000000004
21
-55.0
31
3.0
12
15.321651384583719
22
0.0
32
3.0
13
15.321651384583719
23
0.0
33
3.0
70
3
  0
3DFACE
 8
d3
10
15.321651384583719
20
0.0
30
3.0
11
20.000000000000004
21
-55.0
31
3.0
12
20.0
22
0.0
32
3.0
13
20.0
23
0.0
33
3.0
70
3
  0
3DFACE
 8
d3
10
20.0
20
0.0
30
3.0
11
20.000000000000004
21
-55.0
31
3.0
12
104.99999999999999
22
0.0
32
3.0
13
104.99999999999999
23
0.0
33
3.0
70
3
  0
3DFACE
 8
d3
10
104.99999999999999
20
0.0
30
3.0
11
20.000000000000004
21
-55.0
31
3.0
12
104.99999999999999
22
-150.0
32
3.0
13
104.99999999999999
23
-150.0
33
3.0
70
15
  0
3DFACE
 8
d3
10
104.99999999999999
20
0.0
30
3.0
11
104.99999999999999
21
-150.0
31
3.0
12
104.99999999999999
22
-130.0
32
3.0
13
104.99999999999999
23
-130.0
33
3.0
70
13
  0
3DFACE
 8
d3
10
104.99999999999999
20
0.0
30
3.0
11
104.99999999999999
21
-130.0
31
3.0
12
104.99999999999999
22
-75.0
32
3.0
13
104.99999999999999
23
-75.0
33
3.0
70
15
  0
3DFACE
 8
d3
10
104.99999999999999
20
0.0
30
3.0
11
104.99999999999999
21
-75.0
31
3.0
12
104.99999999999999
22
-20.000000000000007
32
3.0
13
104.99999999999999
23
-20.000000000000007
33
3.0
70
3
  0
3DFACE
 8
d3
10
250.0
20
-95.0
30
0.0
11
250.0
21
-130.0
31
3.0
12
250.0
22
-130.0
32
0.0
13
250.0
23
-130.0
33
0.0
70
1
  0
3DFACE
 8
d3
10
250.0
20
-130.0
30
3.0
11
250.0
21
-95.0
31
0.0
12
250.0
22
-95.0
32
3.0
13
250.0
23
-95.0
33
3.0
70
1
  0
3DFACE
 8
d3
10
249.27050983124846
20
-11.909830056250533
30
0.0
11
249.93114361773826
21
-14.558022403589254
31
3.0
12
249.93114361773826
22
-14.558022403589254
32
0.0
13
249.93114361773826
23
-14.558022403589254
33
0.0
70
1
  0
3DFACE
 8
d3
10
249.93114361773826
20
-14.558022403589254
30
3.0
11
249.27050983124846
21
-11.909830056250533
31
0.0
12
249.27050983124846
22
-11.909830056250533
32
3.0
13
249.27050983124846
23
-11.909830056250533
33
3.0
70
1
  0
3DFACE
 8
d3
10
242.92682916850723
20
-3.2248035568414264
30
3.0
11
245.0
21
-4.999999999999991
31
0.0
12
242.92682916850723
22
-3.2248035568414264
32
0.0
13
242.92682916850723
23
-3.2248035568414264
33
0.0
70
1
  0
3DFACE
 8
d3
10
245.0
20
-4.999999999999991
30
0.0
11
242.92682916850723
21
-3.2248035568414264
31
3.0
12
245.0
22
-4.999999999999991
32
3.0
13
245.0
23
-4.999999999999991
33
3.0
70
1
  0
3DFACE
 8
d3
10
250.0
20
-134.67834861541655
30
0.0
11
249.93114361773826
21
-135.44197759641074
31
3.0
12
249.93114361773826
22
-135.44197759641074
32
0.0
13
249.93114361773826
23
-135.44197759641074
33
0.0
70
1
  0
3DFACE
 8
d3
10
249.93114361773826
20
-135.44197759641074
30
3.0
11
250.0
21
-134.67834861541655
31
0.0
12
250.0
22
-134.67834861541655
32
3.0
13
250.0
23
-134.67834861541655
33
3.0
70
1
  0
3DFACE
 8
d3
10
250.0
20
-15.321651384583427
30
0.0
11
250.0
21
-20.000000000000007
31
3.0
12
250.0
22
-20.000000000000007
32
0.0
13
250.0
23
-20.000000000000007
33
0.0
70
1
  0
3DFACE
 8
d3
10
250.0
20
-20.000000000000007
30
3.0
11
250.0
21
-15.321651384583427
31
0.0
12
250.0
22
-15.321651384583427
32
3.0
13
250.0
23
-15.321651384583427
33
3.0
70
1
  0
3DFACE
 8
d3
10
249.93114361773826
20
-135.44197759641074
30
0.0
11
249.27050983124846
21
-138.09016994374946
31
3.0
12
249.27050983124846
22
-138.09016994374946
32
0.0
13
249.27050983124846
23
-138.09016994374946
33
0.0
70
1
  0
3DFACE
 8
d3
10
249.27050983124846
20
-138.09016994374946
30
3.0
11
249.93114361773826
21
-135.44197759641074
31
0.0
12
249.93114361773826
22
-135.44197759641074
32
3.0
13
249.93114361773826
23
-135.44197759641074
33
3.0
70
1
  0
3DFACE
 8
d3
10
0.0
20
-134.33546184353017
30
3.0
11
0.0
21
-134.67834861541627
31
0.0
12
0.0
22
-134.67834861541627
32
3.0
13
0.0
23
-134.67834861541627
33
3.0
70
1
  0
3DFACE
 8
d3
10
0.0
20
-134.67834861541627
30
0.0
11
0.0
21
-134.33546184353017
31
3.0
12
0.0
22
-134.33546184353017
32
0.0
13
0.0
23
-134.33546184353017
33
0.0
70
1
  0
3DFACE
 8
d3
10
249.27050983124846
20
-138.09016994374946
30
0.0
11
248.21010145203707
21
-140.60510409351434
31
3.0
12
248.21010145203707
22
-140.60510409351434
32
0.0
13
248.21010145203707
23
-140.60510409351434
33
0.0
70
1
  0
3DFACE
 8
d3
10
248.21010145203707
20
-140.60510409351434
30
3.0
11
249.27050983124846
21
-138.09016994374946
31
0.0
12
249.27050983124846
22
-138.09016994374946
32
3.0
13
249.27050983124846
23
-138.09016994374946
33
3.0
70
1
  0
3DFACE
 8
d3
10
248.21010145203707
20
-140.60510409351434
30
0.0
11
246.77519644315856
21
-142.92682916850723
31
3.0
12
246.77519644315856
22
-142.92682916850723
32
0.0
13
246.77519644315856
23
-142.92682916850723
33
0.0
70
1
  0
3DFACE
 8
d3
10
246.77519644315856
20
-142.92682916850723
30
3.0
11
248.21010145203707
21
-140.60510409351434
31
0.0
12
248.21010145203707
22
-140.60510409351434
32
3.0
13
248.21010145203707
23
-140.60510409351434
33
3.0
70
1
  0
3DFACE
 8
d3
10
246.77519644315856
20
-142.92682916850723
30
0.0
11
245.0
21
-145.0
31
3.0
12
245.0
22
-145.0
32
0.0
13
245.0
23
-145.0
33
0.0
70
1
  0
3DFACE
 8
d3
10
245.0
20
-145.0
30
3.0
11
246.77519644315856
21
-142.92682916850723
31
0.0
12
246.77519644315856
22
-142.92682916850723
32
3.0
13
246.77519644315856
23
-142.92682916850723
33
3.0
70
1
  0
3DFACE
 8
d3
10
245.0
20
-145.0
30
3.0
11
242.92682916850723
21
-146.77519644315856
31
0.0
12
245.0
22
-145.0
32
0.0
13
245.0
23
-145.0
33
0.0
70
1
  0
3DFACE
 8
d3
10
242.92682916850723
20
-146.77519644315856
30
0.0
11
245.0
21
-145.0
31
3.0
12
242.92682916850723
22
-146.77519644315856
32
3.0
13
242.92682916850723
23
-146.77519644315856
33
3.0
70
1
  0
3DFACE
 8
d3
10
238.09016994374946
20
-0.7294901687515739
30
3.0
11
240.60510409351434
21
-1.7898985479629312
31
0.0
12
238.09016994374946
22
-0.7294901687515739
32
0.0
13
238.09016994374946
23
-0.7294901687515739
33
0.0
70
1
  0
3DFACE
 8
d3
10
240.60510409351434
20
-1.7898985479629312
30
0.0
11
238.09016994374946
21
-0.7294901687515739
31
3.0
12
240.60510409351434
22
-1.7898985479629312
32
3.0
13
240.60510409351434
23
-1.7898985479629312
33
3.0
70
1
  0
3DFACE
 8
d3
10
0.0
20
-95.0
30
3.0
11
0.0
21
-130.0
31
0.0
12
0.0
22
-130.0
32
3.0
13
0.0
23
-130.0
33
3.0
70
1
  0
3DFACE
 8
d3
10
0.0
20
-130.0
30
0.0
11
0.0
21
-95.0
31
3.0
12
0.0
22
-95.0
32
0.0
13
0.0
23
-95.0
33
0.0
70
1
  0
3DFACE
 8
d3
10
0.0688563822617392
20
-14.558022403589254
30
3.0
11
0.0
21
-15.32165138458372
31
0.0
12
0.0
22
-15.32165138458372
32
3.0
13
0.0
23
-15.32165138458372
33
3.0
70
1
  0
3DFACE
 8
d3
10
0.0
20
-15.32165138458372
30
0.0
11
0.0688563822617392
21
-14.558022403589254
31
3.0
12
0.0688563822617392
22
-14.558022403589254
32
0.0
13
0.0688563822617392
23
-14.558022403589254
33
0.0
70
1
  0
3DFACE
 8
d3
10
0.0688563822617392
20
-135.44197759641074
30
3.0
11
0.7294901687515768
21
-138.09016994374946
31
0.0
12
0.7294901687515768
22
-138.09016994374946
32
3.0
13
0.7294901687515768
23
-138.09016994374946
33
3.0
70
1
  0
3DFACE
 8
d3
10
0.7294901687515768
20
-138.09016994374946
30
0.0
11
0.0688563822617392
21
-135.44197759641074
31
3.0
12
0.0688563822617392
22
-135.44197759641074
32
0.0
13
0.0688563822617392
23
-135.44197759641074
33
0.0
70
1
  0
3DFACE
 8
d3
10
235.44197759641077
20
-0.06885638226174766
30
3.0
11
238.09016994374946
21
-0.7294901687515739
31
0.0
12
235.44197759641077
22
-0.06885638226174766
32
0.0
13
235.44197759641077
23
-0.06885638226174766
33
0.0
70
1
  0
3DFACE
 8
d3
10
238.09016994374946
20
-0.7294901687515739
30
0.0
11
235.44197759641077
21
-0.06885638226174766
31
3.0
12
238.09016994374946
22
-0.7294901687515739
32
3.0
13
238.09016994374946
23
-0.7294901687515739
33
3.0
70
1
  0
3DFACE
 8
d3
10
7.073170831492772
20
-146.77519644315853
30
3.0
11
4.9999999999999964
21
-144.99999999999997
31
0.0
12
7.073170831492772
22
-146.77519644315853
32
0.0
13
7.073170831492772
23
-146.77519644315853
33
0.0
70
1
  0
3DFACE
 8
d3
10
4.9999999999999964
20
-144.99999999999997
30
0.0
11
7.073170831492772
21
-146.77519644315853
31
3.0
12
4.9999999999999964
22
-144.99999999999997
32
3.0
13
4.9999999999999964
23
-144.99999999999997
33
3.0
70
1
  0
3DFACE
 8
d3
10
240.60510409351434
20
-1.7898985479629312
30
3.0
11
242.92682916850723
21
-3.2248035568414264
31
0.0
12
240.60510409351434
22
-1.7898985479629312
32
0.0
13
240.60510409351434
23
-1.7898985479629312
33
0.0
70
1
  0
3DFACE
 8
d3
10
242.92682916850723
20
-3.2248035568414264
30
0.0
11
240.60510409351434
21
-1.7898985479629312
31
3.0
12
242.92682916850723
22
-3.2248035568414264
32
3.0
13
242.92682916850723
23
-3.2248035568414264
33
3.0
70
1
  0
3DFACE
 8
d3
10
246.77519644315856
20
-7.073170831492766
30
0.0
11
248.21010145203707
21
-9.394895906485635
31
3.0
12
248.21010145203707
22
-9.394895906485635
32
0.0
13
248.21010145203707
23
-9.394895906485635
33
0.0
70
1
  0
3DFACE
 8
d3
10
248.21010145203707
20
-9.394895906485635
30
3.0
11
246.77519644315856
21
-7.073170831492766
31
0.0
12
246.77519644315856
22
-7.073170831492766
32
3.0
13
246.77519644315856
23
-7.073170831492766
33
3.0
70
1
  0
3DFACE
 8
d3
10
15.66453815646985
20
-150.0
30
3.0
11
15.321651384583761
21
-150.0
31
0.0
12
15.66453815646985
22
-150.0
32
0.0
13
15.66453815646985
23
-150.0
33
0.0
70
1
  0
3DFACE
 8
d3
10
15.321651384583761
20
-150.0
30
0.0
11
15.66453815646985
21
-150.0
31
3.0
12
15.321651384583761
22
-150.0
32
3.0
13
15.321651384583761
23
-150.0
33
3.0
70
1
  0
3DFACE
 8
d3
10
20.000000000000004
20
-55.0
30
3.0
11
20.0
21
-95.0
31
0.0
12
20.0
22
-95.0
32
3.0
13
20.0
23
-95.0
33
3.0
70
1
  0
3DFACE
 8
d3
10
20.0
20
-95.0
30
0.0
11
20.000000000000004
21
-55.0
31
3.0
12
20.000000000000004
22
-55.0
32
0.0
13
20.000000000000004
23
-55.0
33
0.0
70
1
  0
3DFACE
 8
d3
10
0.0
20
-20.000000000000007
30
3.0
11
0.0
21
-55.0
31
0.0
12
0.0
22
-55.0
32
3.0
13
0.0
23
-55.0
33
3.0
70
1
  0
3DFACE
 8
d3
10
0.0
20
-55.0
30
0.0
11
0.0
21
-20.000000000000007
31
3.0
12
0.0
22
-20.000000000000007
32
0.0
13
0.0
23
-20.000000000000007
33
0.0
70
1
  0
3DFACE
 8
d3
10
11.909830056250525
20
-0.7294901687515739
30
3.0
11
14.558022403589245
21
-0.06885638226174766
31
0.0
12
11.909830056250525
22
-0.7294901687515739
32
0.0
13
11.909830056250525
23
-0.7294901687515739
33
0.0
70
1
  0
3DFACE
 8
d3
10
14.558022403589245
20
-0.06885638226174766
30
0.0
11
11.909830056250525
21
-0.7294901687515739
31
3.0
12
14.558022403589245
22
-0.06885638226174766
32
3.0
13
14.558022403589245
23
-0.06885638226174766
33
3.0
70
1
  0
3DFACE
 8
d3
10
20.0
20
0.0
30
3.0
11
104.99999999999999
21
0.0
31
0.0
12
20.0
22
0.0
32
0.0
13
20.0
23
0.0
33
0.0
70
1
  0
3DFACE
 8
d3
10
104.99999999999999
20
0.0
30
0.0
11
20.0
21
0.0
31
3.0
12
104.99999999999999
22
0.0
32
3.0
13
104.99999999999999
23
0.0
33
3.0
70
1
  0
3DFACE
 8
d3
10
229.99999999999997
20
-55.0
30
0.0
11
229.99999999999997
21
-95.0
31
3.0
12
229.99999999999997
22
-95.0
32
0.0
13
229.99999999999997
23
-95.0
33
0.0
70
1
  0
3DFACE
 8
d3
10
229.99999999999997
20
-95.0
30
3.0
11
229.99999999999997
21
-55.0
31
0.0
12
229.99999999999997
22
-55.0
32
3.0
13
229.99999999999997
23
-55.0
33
3.0
70
1
  0
3DFACE
 8
d3
10
104.99999999999999
20
-130.0
30
0.0
11
104.99999999999999
21
-150.0
31
3.0
12
104.99999999999999
22
-150.0
32
0.0
13
104.99999999999999
23
-150.0
33
0.0
70
1
  0
3DFACE
 8
d3
10
104.99999999999999
20
-150.0
30
3.0
11
104.99999999999999
21
-130.0
31
0.0
12
104.99999999999999
22
-130.0
32
3.0
13
104.99999999999999
23
-130.0
33
3.0
70
1
  0
3DFACE
 8
d3
10
3.224803556841435
20
-142.9268291685072
30
3.0
11
4.9999999999999964
21
-144.99999999999997
31
0.0
12
4.9999999999999964
22
-144.99999999999997
32
3.0
13
4.9999999999999964
23
-144.99999999999997
33
3.0
70
1
  0
3DFACE
 8
d3
10
4.9999999999999964
20
-144.99999999999997
30
0.0
11
3.224803556841435
21
-142.9268291685072
31
3.0
12
3.224803556841435
22
-142.9268291685072
32
0.0
13
3.224803556841435
23
-142.9268291685072
33
0.0
70
1
  0
3DFACE
 8
d3
10
3.2248035568414295
20
-7.073170831492766
30
3.0
11
1.789898547962937
21
-9.394895906485658
31
0.0
12
1.789898547962937
22
-9.394895906485658
32
3.0
13
1.789898547962937
23
-9.394895906485658
33
3.0
70
1
  0
3DFACE
 8
d3
10
1.789898547962937
20
-9.394895906485658
30
0.0
11
3.2248035568414295
21
-7.073170831492766
31
3.0
12
3.2248035568414295
22
-7.073170831492766
32
0.0
13
3.2248035568414295
23
-7.073170831492766
33
0.0
70
1
  0
3DFACE
 8
d3
10
9.394895906485647
20
-1.7898985479629312
30
3.0
11
11.909830056250525
21
-0.7294901687515739
31
0.0
12
9.394895906485647
22
-1.7898985479629312
32
0.0
13
9.394895906485647
23
-1.7898985479629312
33
0.0
70
1
  0
3DFACE
 8
d3
10
11.909830056250525
20
-0.7294901687515739
30
0.0
11
9.394895906485647
21
-1.7898985479629312
31
3.0
12
11.909830056250525
22
-0.7294901687515739
32
3.0
13
11.909830056250525
23
-0.7294901687515739
33
3.0
70
1
  0
3DFACE
 8
d3
10
15.321651384583761
20
-150.0
30
3.0
11
14.558022403589247
21
-149.93114361773826
31
0.0
12
15.321651384583761
22
-150.0
32
0.0
13
15.321651384583761
23
-150.0
33
0.0
70
1
  0
3DFACE
 8
d3
10
14.558022403589247
20
-149.93114361773826
30
0.0
11
15.321651384583761
21
-150.0
31
3.0
12
14.558022403589247
22
-149.93114361773826
32
3.0
13
14.558022403589247
23
-149.93114361773826
33
3.0
70
1
  0
3DFACE
 8
d3
10
1.789898547962937
20
-9.394895906485658
30
3.0
11
0.7294901687515739
21
-11.909830056250533
31
0.0
12
0.7294901687515739
22
-11.909830056250533
32
3.0
13
0.7294901687515739
23
-11.909830056250533
33
3.0
70
1
  0
3DFACE
 8
d3
10
0.7294901687515739
20
-11.909830056250533
30
0.0
11
1.789898547962937
21
-9.394895906485658
31
3.0
12
1.789898547962937
22
-9.394895906485658
32
0.0
13
1.789898547962937
23
-9.394895906485658
33
0.0
70
1
  0
3DFACE
 8
d3
10
7.073170831492771
20
-3.2248035568414264
30
3.0
11
9.394895906485647
21
-1.7898985479629312
31
0.0
12
7.073170831492771
22
-3.2248035568414264
32
0.0
13
7.073170831492771
23
-3.2248035568414264
33
0.0
70
1
  0
3DFACE
 8
d3
10
9.394895906485647
20
-1.7898985479629312
30
0.0
11
7.073170831492771
21
-3.2248035568414264
31
3.0
12
9.394895906485647
22
-1.7898985479629312
32
3.0
13
9.394895906485647
23
-1.7898985479629312
33
3.0
70
1
  0
3DFACE
 8
d3
10
104.99999999999999
20
0.0
30
0.0
11
104.99999999999999
21
-20.000000000000007
31
3.0
12
104.99999999999999
22
-20.000000000000007
32
0.0
13
104.99999999999999
23
-20.000000000000007
33
0.0
70
1
  0
3DFACE
 8
d3
10
104.99999999999999
20
-20.000000000000007
30
3.0
11
104.99999999999999
21
0.0
31
0.0
12
104.99999999999999
22
0.0
32
3.0
13
104.99999999999999
23
0.0
33
3.0
70
1
  0
3DFACE
 8
d3
10
9.394895906485646
20
-148.21010145203707
30
3.0
11
7.073170831492772
21
-146.77519644315853
31
0.0
12
9.394895906485646
22
-148.21010145203707
32
0.0
13
9.394895906485646
23
-148.21010145203707
33
0.0
70
1
  0
3DFACE
 8
d3
10
7.073170831492772
20
-146.77519644315853
30
0.0
11
9.394895906485646
21
-148.21010145203707
31
3.0
12
7.073170831492772
22
-146.77519644315853
32
3.0
13
7.073170831492772
23
-146.77519644315853
33
3.0
70
1
  0
3DFACE
 8
d3
10
4.999999999999995
20
-4.999999999999991
30
3.0
11
3.2248035568414295
21
-7.073170831492766
31
0.0
12
3.2248035568414295
22
-7.073170831492766
32
3.0
13
3.2248035568414295
23
-7.073170831492766
33
3.0
70
1
  0
3DFACE
 8
d3
10
3.2248035568414295
20
-7.073170831492766
30
0.0
11
4.999999999999995
21
-4.999999999999991
31
3.0
12
4.999999999999995
22
-4.999999999999991
32
0.0
13
4.999999999999995
23
-4.999999999999991
33
0.0
70
1
  0
3DFACE
 8
d3
10
4.999999999999995
20
-4.999999999999991
30
3.0
11
7.073170831492771
21
-3.2248035568414264
31
0.0
12
4.999999999999995
22
-4.999999999999991
32
0.0
13
4.999999999999995
23
-4.999999999999991
33
0.0
70
1
  0
3DFACE
 8
d3
10
7.073170831492771
20
-3.2248035568414264
30
0.0
11
4.999999999999995
21
-4.999999999999991
31
3.0
12
7.073170831492771
22
-3.2248035568414264
32
3.0
13
7.073170831492771
23
-3.2248035568414264
33
3.0
70
1
  0
3DFACE
 8
d3
10
104.99999999999999
20
-20.000000000000007
30
3.0
11
145.0
21
-20.000000000000007
31
0.0
12
104.99999999999999
22
-20.000000000000007
32
0.0
13
104.99999999999999
23
-20.000000000000007
33
0.0
70
1
  0
3DFACE
 8
d3
10
145.0
20
-20.000000000000007
30
0.0
11
104.99999999999999
21
-20.000000000000007
31
3.0
12
145.0
22
-20.000000000000007
32
3.0
13
145.0
23
-20.000000000000007
33
3.0
70
1
  0
3DFACE
 8
d3
10
234.67834861541624
20
0.0
30
3.0
11
235.44197759641077
21
-0.06885638226174766
31
0.0
12
234.67834861541624
22
0.0
32
0.0
13
234.67834861541624
23
0.0
33
0.0
70
1
  0
3DFACE
 8
d3
10
235.44197759641077
20
-0.06885638226174766
30
0.0
11
234.67834861541624
21
0.0
31
3.0
12
235.44197759641077
22
-0.06885638226174766
32
3.0
13
235.44197759641077
23
-0.06885638226174766
33
3.0
70
1
  0
3DFACE
 8
d3
10
250.0
20
-130.0
30
0.0
11
250.0
21
-134.67834861541655
31
3.0
12
250.0
22
-134.67834861541655
32
0.0
13
250.0
23
-134.67834861541655
33
0.0
70
1
  0
3DFACE
 8
d3
10
250.0
20
-134.67834861541655
30
3.0
11
250.0
21
-130.0
31
0.0
12
250.0
22
-130.0
32
3.0
13
250.0
23
-130.0
33
3.0
70
1
  0
3DFACE
 8
d3
10
0.0
20
-134.67834861541627
30
3.0
11
0.0688563822617392
21
-135.44197759641074
31
0.0
12
0.0688563822617392
22
-135.44197759641074
32
3.0
13
0.0688563822617392
23
-135.44197759641074
33
3.0
70
1
  0
3DFACE
 8
d3
10
0.0688563822617392
20
-135.44197759641074
30
0.0
11
0.0
21
-134.67834861541627
31
3.0
12
0.0
22
-134.67834861541627
32
0.0
13
0.0
23
-134.67834861541627
33
0.0
70
1
  0
3DFACE
 8
d3
10
229.99999999999997
20
0.0
30
3.0
11
234.67834861541624
21
0.0
31
0.0
12
229.99999999999997
22
0.0
32
0.0
13
229.99999999999997
23
0.0
33
0.0
70
1
  0
3DFACE
 8
d3
10
234.67834861541624
20
0.0
30
0.0
11
229.99999999999997
21
0.0
31
3.0
12
234.67834861541624
22
0.0
32
3.0
13
234.67834861541624
23
0.0
33
3.0
70
1
  0
3DFACE
 8
d3
10
104.99999999999999
20
-150.0
30
3.0
11
20.0
21
-150.0
31
0.0
12
104.99999999999999
22
-150.0
32
0.0
13
104.99999999999999
23
-150.0
33
0.0
70
1
  0
3DFACE
 8
d3
10
20.0
20
-150.0
30
0.0
11
104.99999999999999
21
-150.0
31
3.0
12
20.0
22
-150.0
32
3.0
13
20.0
23
-150.0
33
3.0
70
1
  0
3DFACE
 8
d3
10
14.558022403589247
20
-149.93114361773826
30
3.0
11
11.909830056250525
21
-149.27050983124843
31
0.0
12
14.558022403589247
22
-149.93114361773826
32
0.0
13
14.558022403589247
23
-149.93114361773826
33
0.0
70
1
  0
3DFACE
 8
d3
10
11.909830056250525
20
-149.27050983124843
30
0.0
11
14.558022403589247
21
-149.93114361773826
31
3.0
12
11.909830056250525
22
-149.27050983124843
32
3.0
13
11.909830056250525
23
-149.27050983124843
33
3.0
70
1
  0
3DFACE
 8
d3
10
0.0
20
-95.0
30
3.0
11
20.0
21
-95.0
31
0.0
12
0.0
22
-95.0
32
0.0
13
0.0
23
-95.0
33
0.0
70
1
  0
3DFACE
 8
d3
10
20.0
20
-95.0
30
0.0
11
0.0
21
-95.0
31
3.0
12
20.0
22
-95.0
32
3.0
13
20.0
23
-95.0
33
3.0
70
1
  0
3DFACE
 8
d3
10
0.0
20
-15.32165138458372
30
3.0
11
0.0
21
-20.000000000000007
31
0.0
12
0.0
22
-20.000000000000007
32
3.0
13
0.0
23
-20.000000000000007
33
3.0
70
1
  0
3DFACE
 8
d3
10
0.0
20
-20.000000000000007
30
0.0
11
0.0
21
-15.32165138458372
31
3.0
12
0.0
22
-15.32165138458372
32
0.0
13
0.0
23
-15.32165138458372
33
0.0
70
1
  0
3DFACE
 8
d3
10
15.321651384583719
20
0.0
30
3.0
11
20.0
21
0.0
31
0.0
12
15.321651384583719
22
0.0
32
0.0
13
15.321651384583719
23
0.0
33
0.0
70
1
  0
3DFACE
 8
d3
10
20.0
20
0.0
30
0.0
11
15.321651384583719
21
0.0
31
3.0
12
20.0
22
0.0
32
3.0
13
20.0
23
0.0
33
3.0
70
1
  0
3DFACE
 8
d3
10
20.0
20
-150.0
30
3.0
11
15.66453815646985
21
-150.0
31
0.0
12
20.0
22
-150.0
32
0.0
13
20.0
23
-150.0
33
0.0
70
1
  0
3DFACE
 8
d3
10
15.66453815646985
20
-150.0
30
0.0
11
20.0
21
-150.0
31
3.0
12
15.66453815646985
22
-150.0
32
3.0
13
15.66453815646985
23
-150.0
33
3.0
70
1
  0
3DFACE
 8
d3
10
0.7294901687515768
20
-138.09016994374946
30
3.0
11
1.7898985479629426
21
-140.60510409351434
31
0.0
12
1.7898985479629426
22
-140.60510409351434
32
3.0
13
1.7898985479629426
23
-140.60510409351434
33
3.0
70
1
  0
3DFACE
 8
d3
10
1.7898985479629426
20
-140.60510409351434
30
0.0
11
0.7294901687515768
21
-138.09016994374946
31
3.0
12
0.7294901687515768
22
-138.09016994374946
32
0.0
13
0.7294901687515768
23
-138.09016994374946
33
0.0
70
1
  0
3DFACE
 8
d3
10
1.7898985479629426
20
-140.60510409351434
30
3.0
11
3.224803556841435
21
-142.9268291685072
31
0.0
12
3.224803556841435
22
-142.9268291685072
32
3.0
13
3.224803556841435
23
-142.9268291685072
33
3.0
70
1
  0
3DFACE
 8
d3
10
3.224803556841435
20
-142.9268291685072
30
0.0
11
1.7898985479629426
21
-140.60510409351434
31
3.0
12
1.7898985479629426
22
-140.60510409351434
32
0.0
13
1.7898985479629426
23
-140.60510409351434
33
0.0
70
1
  0
3DFACE
 8
d3
10
0.0
20
-130.0
30
3.0
11
0.0
21
-134.33546184353017
31
0.0
12
0.0
22
-134.33546184353017
32
3.0
13
0.0
23
-134.33546184353017
33
3.0
70
1
  0
3DFACE
 8
d3
10
0.0
20
-134.33546184353017
30
0.0
11
0.0
21
-130.0
31
3.0
12
0.0
22
-130.0
32
0.0
13
0.0
23
-130.0
33
0.0
70
1
  0
3DFACE
 8
d3
10
20.000000000000004
20
-55.0
30
3.0
11
0.0
21
-55.0
31
0.0
12
20.000000000000004
22
-55.0
32
0.0
13
20.000000000000004
23
-55.0
33
0.0
70
1
  0
3DFACE
 8
d3
10
0.0
20
-55.0
30
0.0
11
20.000000000000004
21
-55.0
31
3.0
12
0.0
22
-55.0
32
3.0
13
0.0
23
-55.0
33
3.0
70
1
  0
3DFACE
 8
d3
10
14.558022403589245
20
-0.06885638226174766
30
3.0
11
15.321651384583719
21
0.0
31
0.0
12
14.558022403589245
22
-0.06885638226174766
32
0.0
13
14.558022403589245
23
-0.06885638226174766
33
0.0
70
1
  0
3DFACE
 8
d3
10
15.321651384583719
20
0.0
30
0.0
11
14.558022403589245
21
-0.06885638226174766
31
3.0
12
15.321651384583719
22
0.0
32
3.0
13
15.321651384583719
23
0.0
33
3.0
70
1
  0
3DFACE
 8
d3
10
145.0
20
0.0
30
3.0
11
145.0
21
-20.000000000000007
31
0.0
12
145.0
22
-20.000000000000007
32
3.0
13
145.0
23
-20.000000000000007
33
3.0
70
1
  0
3DFACE
 8
d3
10
145.0
20
-20.000000000000007
30
0.0
11
145.0
21
0.0
31
3.0
12
145.0
22
0.0
32
0.0
13
145.0
23
0.0
33
0.0
70
1
  0
3DFACE
 8
d3
10
0.7294901687515739
20
-11.909830056250533
30
3.0
11
0.0688563822617392
21
-14.558022403589254
31
0.0
12
0.0688563822617392
22
-14.558022403589254
32
3.0
13
0.0688563822617392
23
-14.558022403589254
33
3.0
70
1
  0
3DFACE
 8
d3
10
0.0688563822617392
20
-14.558022403589254
30
0.0
11
0.7294901687515739
21
-11.909830056250533
31
3.0
12
0.7294901687515739
22
-11.909830056250533
32
0.0
13
0.7294901687515739
23
-11.909830056250533
33
0.0
70
1
  0
3DFACE
 8
d3
10
245.0
20
-4.999999999999991
30
0.0
11
246.77519644315856
21
-7.073170831492766
31
3.0
12
246.77519644315856
22
-7.073170831492766
32
0.0
13
246.77519644315856
23
-7.073170831492766
33
0.0
70
1
  0
3DFACE
 8
d3
10
246.77519644315856
20
-7.073170831492766
30
3.0
11
245.0
21
-4.999999999999991
31
0.0
12
245.0
22
-4.999999999999991
32
3.0
13
245.0
23
-4.999999999999991
33
3.0
70
1
  0
3DFACE
 8
d3
10
145.0
20
-130.0
30
3.0
11
104.99999999999999
21
-130.0
31
0.0
12
145.0
22
-130.0
32
0.0
13
145.0
23
-130.0
33
0.0
70
1
  0
3DFACE
 8
d3
10
104.99999999999999
20
-130.0
30
0.0
11
145.0
21
-130.0
31
3.0
12
104.99999999999999
22
-130.0
32
3.0
13
104.99999999999999
23
-130.0
33
3.0
70
1
  0
3DFACE
 8
d3
10
11.909830056250525
20
-149.27050983124843
30
3.0
11
9.394895906485646
21
-148.21010145203707
31
0.0
12
11.909830056250525
22
-149.27050983124843
32
0.0
13
11.909830056250525
23
-149.27050983124843
33
0.0
70
1
  0
3DFACE
 8
d3
10
9.394895906485646
20
-148.21010145203707
30
0.0
11
11.909830056250525
21
-149.27050983124843
31
3.0
12
9.394895906485646
22
-148.21010145203707
32
3.0
13
9.394895906485646
23
-148.21010145203707
33
3.0
70
1
  0
3DFACE
 8
d3
10
145.0
20
0.0
30
3.0
11
229.99999999999997
21
0.0
31
0.0
12
145.0
22
0.0
32
0.0
13
145.0
23
0.0
33
0.0
70
1
  0
3DFACE
 8
d3
10
229.99999999999997
20
0.0
30
0.0
11
145.0
21
0.0
31
3.0
12
229.99999999999997
22
0.0
32
3.0
13
229.99999999999997
23
0.0
33
3.0
70
1
  0
3DFACE
 8
d3
10
248.21010145203707
20
-9.394895906485635
30
0.0
11
249.27050983124846
21
-11.909830056250533
31
3.0
12
249.27050983124846
22
-11.909830056250533
32
0.0
13
249.27050983124846
23
-11.909830056250533
33
0.0
70
1
  0
3DFACE
 8
d3
10
249.27050983124846
20
-11.909830056250533
30
3.0
11
248.21010145203707
21
-9.394895906485635
31
0.0
12
248.21010145203707
22
-9.394895906485635
32
3.0
13
248.21010145203707
23
-9.394895906485635
33
3.0
70
1
  0
3DFACE
 8
d3
10
249.93114361773826
20
-14.558022403589254
30
0.0
11
250.0
21
-15.321651384583427
31
3.0
12
250.0
22
-15.321651384583427
32
0.0
13
250.0
23
-15.321651384583427
33
0.0
70
1
  0
3DFACE
 8
d3
10
250.0
20
-15.321651384583427
30
3.0
11
249.93114361773826
21
-14.558022403589254
31
0.0
12
249.93114361773826
22
-14.558022403589254
32
3.0
13
249.93114361773826
23
-14.558022403589254
33
3.0
70
1
  0
3DFACE
 8
d3
10
250.0
20
-20.000000000000007
30
0.0
11
250.0
21
-55.0
31
3.0
12
250.0
22
-55.0
32
0.0
13
250.0
23
-55.0
33
0.0
70
1
  0
3DFACE
 8
d3
10
250.0
20
-55.0
30
3.0
11
250.0
21
-20.000000000000007
31
0.0
12
250.0
22
-20.000000000000007
32
3.0
13
250.0
23
-20.000000000000007
33
3.0
70
1
  0
3DFACE
 8
d3
10
229.99999999999997
20
-150.0
30
3.0
11
145.0
21
-150.0
31
0.0
12
229.99999999999997
22
-150.0
32
0.0
13
229.99999999999997
23
-150.0
33
0.0
70
1
  0
3DFACE
 8
d3
10
145.0
20
-150.0
30
0.0
11
229.99999999999997
21
-150.0
31
3.0
12
145.0
22
-150.0
32
3.0
13
145.0
23
-150.0
33
3.0
70
1
  0
3DFACE
 8
d3
10
139.14213562373095
20
-60.85786437626905
30
3.0
11
142.3205080756888
21
-65.0
31
0.0
12
142.3205080756888
22
-65.0
32
3.0
13
142.3205080756888
23
-65.0
33
3.0
70
1
  0
3DFACE
 8
d3
10
142.3205080756888
20
-65.0
30
0.0
11
139.14213562373095
21
-60.85786437626905
31
3.0
12
139.14213562373095
22
-60.85786437626905
32
0.0
13
139.14213562373095
23
-60.85786437626905
33
0.0
70
1
  0
3DFACE
 8
d3
10
125.0
20
-54.99999999999999
30
3.0
11
119.82361909794959
21
-55.68148347421862
31
0.0
12
125.0
22
-54.99999999999999
32
0.0
13
125.0
23
-54.99999999999999
33
0.0
70
1
  0
3DFACE
 8
d3
10
119.82361909794959
20
-55.68148347421862
30
0.0
11
125.0
21
-54.99999999999999
31
3.0
12
119.82361909794959
22
-55.68148347421862
32
3.0
13
119.82361909794959
23
-55.68148347421862
33
3.0
70
1
  0
3DFACE
 8
d3
10
144.31851652578138
20
-80.17638090205043
30
3.0
11
142.3205080756888
21
-85.00000000000001
31
0.0
12
142.3205080756888
22
-85.00000000000001
32
3.0
13
142.3205080756888
23
-85.00000000000001
33
3.0
70
1
  0
3DFACE
 8
d3
10
142.3205080756888
20
-85.00000000000001
30
0.0
11
144.31851652578138
21
-80.17638090205043
31
3.0
12
144.31851652578138
22
-80.17638090205043
32
0.0
13
144.31851652578138
23
-80.17638090205043
33
0.0
70
1
  0
3DFACE
 8
d3
10
105.68148347421862
20
-69.82361909794957
30
0.0
11
104.99999999999999
21
-75.0
31
3.0
12
104.99999999999999
22
-75.0
32
0.0
13
104.99999999999999
23
-75.0
33
0.0
70
1
  0
3DFACE
 8
d3
10
104.99999999999999
20
-75.0
30
3.0
11
105.68148347421862
21
-69.82361909794957
31
0.0
12
105.68148347421862
22
-69.82361909794957
32
3.0
13
105.68148347421862
23
-69.82361909794957
33
3.0
70
1
  0
3DFACE
 8
d3
10
142.3205080756888
20
-85.00000000000001
30
3.0
11
139.14213562373095
21
-89.14213562373097
31
0.0
12
139.14213562373095
22
-89.14213562373097
32
3.0
13
139.14213562373095
23
-89.14213562373097
33
3.0
70
1
  0
3DFACE
 8
d3
10
139.14213562373095
20
-89.14213562373097
30
0.0
11
142.3205080756888
21
-85.00000000000001
31
3.0
12
142.3205080756888
22
-85.00000000000001
32
0.0
13
142.3205080756888
23
-85.00000000000001
33
0.0
70
1
  0
3DFACE
 8
d3
10
234.67834861541624
20
-150.0
30
3.0
11
229.99999999999997
21
-150.0
31
0.0
12
234.67834861541624
22
-150.0
32
0.0
13
234.67834861541624
23
-150.0
33
0.0
70
1
  0
3DFACE
 8
d3
10
229.99999999999997
20
-150.0
30
0.0
11
234.67834861541624
21
-150.0
31
3.0
12
229.99999999999997
22
-150.0
32
3.0
13
229.99999999999997
23
-150.0
33
3.0
70
1
  0
3DFACE
 8
d3
10
119.82361909794956
20
-94.31851652578138
30
3.0
11
125.0
21
-95.0
31
0.0
12
119.82361909794956
22
-94.31851652578138
32
0.0
13
119.82361909794956
23
-94.31851652578138
33
0.0
70
1
  0
3DFACE
 8
d3
10
125.0
20
-95.0
30
0.0
11
119.82361909794956
21
-94.31851652578138
31
3.0
12
125.0
22
-95.0
32
3.0
13
125.0
23
-95.0
33
3.0
70
1
  0
3DFACE
 8
d3
10
238.09016994374946
20
-149.27050983124843
30
3.0
11
235.44197759641077
21
-149.93114361773826
31
0.0
12
238.09016994374946
22
-149.27050983124843
32
0.0
13
238.09016994374946
23
-149.27050983124843
33
0.0
70
1
  0
3DFACE
 8
d3
10
235.44197759641077
20
-149.93114361773826
30
0.0
11
238.09016994374946
21
-149.27050983124843
31
3.0
12
235.44197759641077
22
-149.93114361773826
32
3.0
13
235.44197759641077
23
-149.93114361773826
33
3.0
70
1
  0
3DFACE
 8
d3
10
107.67949192431121
20
-64.99999999999999
30
0.0
11
105.68148347421862
21
-69.82361909794957
31
3.0
12
105.68148347421862
22
-69.82361909794957
32
0.0
13
105.68148347421862
23
-69.82361909794957
33
0.0
70
1
  0
3DFACE
 8
d3
10
105.68148347421862
20
-69.82361909794957
30
3.0
11
107.67949192431121
21
-64.99999999999999
31
0.0
12
107.67949192431121
22
-64.99999999999999
32
3.0
13
107.67949192431121
23
-64.99999999999999
33
3.0
70
1
  0
3DFACE
 8
d3
10
240.60510409351434
20
-148.21010145203707
30
3.0
11
238.09016994374946
21
-149.27050983124843
31
0.0
12
240.60510409351434
22
-148.21010145203707
32
0.0
13
240.60510409351434
23
-148.21010145203707
33
0.0
70
1
  0
3DFACE
 8
d3
10
238.09016994374946
20
-149.27050983124843
30
0.0
11
240.60510409351434
21
-148.21010145203707
31
3.0
12
238.09016994374946
22
-149.27050983124843
32
3.0
13
238.09016994374946
23
-149.27050983124843
33
3.0
70
1
  0
3DFACE
 8
d3
10
145.0
20
-75.0
30
3.0
11
144.31851652578138
21
-80.17638090205043
31
0.0
12
144.31851652578138
22
-80.17638090205043
32
3.0
13
144.31851652578138
23
-80.17638090205043
33
3.0
70
1
  0
3DFACE
 8
d3
10
144.31851652578138
20
-80.17638090205043
30
0.0
11
145.0
21
-75.0
31
3.0
12
145.0
22
-75.0
32
0.0
13
145.0
23
-75.0
33
0.0
70
1
  0
3DFACE
 8
d3
10
104.99999999999999
20
-75.0
30
0.0
11
105.68148347421862
21
-80.17638090205041
31
3.0
12
105.68148347421862
22
-80.17638090205041
32
0.0
13
105.68148347421862
23
-80.17638090205041
33
0.0
70
1
  0
3DFACE
 8
d3
10
105.68148347421862
20
-80.17638090205041
30
3.0
11
104.99999999999999
21
-75.0
31
0.0
12
104.99999999999999
22
-75.0
32
3.0
13
104.99999999999999
23
-75.0
33
3.0
70
1
  0
3DFACE
 8
d3
10
145.0
20
-130.0
30
3.0
11
145.0
21
-150.0
31
0.0
12
145.0
22
-150.0
32
3.0
13
145.0
23
-150.0
33
3.0
70
1
  0
3DFACE
 8
d3
10
145.0
20
-150.0
30
0.0
11
145.0
21
-130.0
31
3.0
12
145.0
22
-130.0
32
0.0
13
145.0
23
-130.0
33
0.0
70
1
  0
3DFACE
 8
d3
10
110.85786437626903
20
-89.14213562373095
30
3.0
11
114.99999999999999
21
-92.32050807568876
31
0.0
12
110.85786437626903
22
-89.14213562373095
32
0.0
13
110.85786437626903
23
-89.14213562373095
33
0.0
70
1
  0
3DFACE
 8
d3
10
114.99999999999999
20
-92.32050807568876
30
0.0
11
110.85786437626903
21
-89.14213562373095
31
3.0
12
114.99999999999999
22
-92.32050807568876
32
3.0
13
114.99999999999999
23
-92.32050807568876
33
3.0
70
1
  0
3DFACE
 8
d3
10
114.99999999999999
20
-92.32050807568876
30
3.0
11
119.82361909794956
21
-94.31851652578138
31
0.0
12
114.99999999999999
22
-92.32050807568876
32
0.0
13
114.99999999999999
23
-92.32050807568876
33
0.0
70
1
  0
3DFACE
 8
d3
10
119.82361909794956
20
-94.31851652578138
30
0.0
11
114.99999999999999
21
-92.32050807568876
31
3.0
12
119.82361909794956
22
-94.31851652578138
32
3.0
13
119.82361909794956
23
-94.31851652578138
33
3.0
70
1
  0
3DFACE
 8
d3
10
134.99999999999997
20
-92.32050807568878
30
3.0
11
139.14213562373095
21
-89.14213562373097
31
0.0
12
134.99999999999997
22
-92.32050807568878
32
0.0
13
134.99999999999997
23
-92.32050807568878
33
0.0
70
1
  0
3DFACE
 8
d3
10
139.14213562373095
20
-89.14213562373097
30
0.0
11
134.99999999999997
21
-92.32050807568878
31
3.0
12
139.14213562373095
22
-89.14213562373097
32
3.0
13
139.14213562373095
23
-89.14213562373097
33
3.0
70
1
  0
3DFACE
 8
d3
10
130.1763809020504
20
-55.68148347421862
30
3.0
11
125.0
21
-54.99999999999999
31
0.0
12
130.1763809020504
22
-55.68148347421862
32
0.0
13
130.1763809020504
23
-55.68148347421862
33
0.0
70
1
  0
3DFACE
 8
d3
10
125.0
20
-54.99999999999999
30
0.0
11
130.1763809020504
21
-55.68148347421862
31
3.0
12
125.0
22
-54.99999999999999
32
3.0
13
125.0
23
-54.99999999999999
33
3.0
70
1
  0
3DFACE
 8
d3
10
135.0
20
-57.679491924311215
30
3.0
11
130.1763809020504
21
-55.68148347421862
31
0.0
12
135.0
22
-57.679491924311215
32
0.0
13
135.0
23
-57.679491924311215
33
0.0
70
1
  0
3DFACE
 8
d3
10
130.1763809020504
20
-55.68148347421862
30
0.0
11
135.0
21
-57.679491924311215
31
3.0
12
130.1763809020504
22
-55.68148347421862
32
3.0
13
130.1763809020504
23
-55.68148347421862
33
3.0
70
1
  0
3DFACE
 8
d3
10
107.67949192431121
20
-85.0
30
0.0
11
110.85786437626903
21
-89.14213562373095
31
3.0
12
110.85786437626903
22
-89.14213562373095
32
0.0
13
110.85786437626903
23
-89.14213562373095
33
0.0
70
1
  0
3DFACE
 8
d3
10
110.85786437626903
20
-89.14213562373095
30
3.0
11
107.67949192431121
21
-85.0
31
0.0
12
107.67949192431121
22
-85.0
32
3.0
13
107.67949192431121
23
-85.0
33
3.0
70
1
  0
3DFACE
 8
d3
10
114.99999999999999
20
-57.679491924311215
30
3.0
11
110.85786437626903
21
-60.857864376269035
31
0.0
12
114.99999999999999
22
-57.679491924311215
32
0.0
13
114.99999999999999
23
-57.679491924311215
33
0.0
70
1
  0
3DFACE
 8
d3
10
110.85786437626903
20
-60.857864376269035
30
0.0
11
114.99999999999999
21
-57.679491924311215
31
3.0
12
110.85786437626903
22
-60.857864376269035
32
3.0
13
110.85786437626903
23
-60.857864376269035
33
3.0
70
1
  0
3DFACE
 8
d3
10
110.85786437626903
20
-60.857864376269035
30
0.0
11
107.67949192431121
21
-64.99999999999999
31
3.0
12
107.67949192431121
22
-64.99999999999999
32
0.0
13
107.67949192431121
23
-64.99999999999999
33
0.0
70
1
  0
3DFACE
 8
d3
10
107.67949192431121
20
-64.99999999999999
30
3.0
11
110.85786437626903
21
-60.857864376269035
31
0.0
12
110.85786437626903
22
-60.857864376269035
32
3.0
13
110.85786437626903
23
-60.857864376269035
33
3.0
70
1
  0
3DFACE
 8
d3
10
105.68148347421862
20
-80.17638090205041
30
0.0
11
107.67949192431121
21
-85.0
31
3.0
12
107.67949192431121
22
-85.0
32
0.0
13
107.67949192431121
23
-85.0
33
0.0
70
1
  0
3DFACE
 8
d3
10
107.67949192431121
20
-85.0
30
3.0
11
105.68148347421862
21
-80.17638090205041
31
0.0
12
105.68148347421862
22
-80.17638090205041
32
3.0
13
105.68148347421862
23
-80.17638090205041
33
3.0
70
1
  0
3DFACE
 8
d3
10
130.1763809020504
20
-94.31851652578138
30
3.0
11
134.99999999999997
21
-92.32050807568878
31
0.0
12
130.1763809020504
22
-94.31851652578138
32
0.0
13
130.1763809020504
23
-94.31851652578138
33
0.0
70
1
  0
3DFACE
 8
d3
10
134.99999999999997
20
-92.32050807568878
30
0.0
11
130.1763809020504
21
-94.31851652578138
31
3.0
12
134.99999999999997
22
-92.32050807568878
32
3.0
13
134.99999999999997
23
-92.32050807568878
33
3.0
70
1
  0
3DFACE
 8
d3
10
242.92682916850723
20
-146.77519644315856
30
3.0
11
240.60510409351434
21
-148.21010145203707
31
0.0
12
242.92682916850723
22
-146.77519644315856
32
0.0
13
242.92682916850723
23
-146.77519644315856
33
0.0
70
1
  0
3DFACE
 8
d3
10
240.60510409351434
20
-148.21010145203707
30
0.0
11
242.92682916850723
21
-146.77519644315856
31
3.0
12
240.60510409351434
22
-148.21010145203707
32
3.0
13
240.60510409351434
23
-148.21010145203707
33
3.0
70
1
  0
3DFACE
 8
d3
10
142.3205080756888
20
-65.0
30
3.0
11
144.31851652578138
21
-69.82361909794957
31
0.0
12
144.31851652578138
22
-69.82361909794957
32
3.0
13
144.31851652578138
23
-69.82361909794957
33
3.0
70
1
  0
3DFACE
 8
d3
10
144.31851652578138
20
-69.82361909794957
30
0.0
11
142.3205080756888
21
-65.0
31
3.0
12
142.3205080756888
22
-65.0
32
0.0
13
142.3205080756888
23
-65.0
33
0.0
70
1
  0
3DFACE
 8
d3
10
139.14213562373095
20
-60.85786437626905
30
3.0
11
135.0
21
-57.679491924311215
31
0.0
12
139.14213562373095
22
-60.85786437626905
32
0.0
13
139.14213562373095
23
-60.85786437626905
33
0.0
70
1
  0
3DFACE
 8
d3
10
135.0
20
-57.679491924311215
30
0.0
11
139.14213562373095
21
-60.85786437626905
31
3.0
12
135.0
22
-57.679491924311215
32
3.0
13
135.0
23
-57.679491924311215
33
3.0
70
1
  0
3DFACE
 8
d3
10
144.31851652578138
20
-69.82361909794957
30
3.0
11
145.0
21
-75.0
31
0.0
12
145.0
22
-75.0
32
3.0
13
145.0
23
-75.0
33
3.0
70
1
  0
3DFACE
 8
d3
10
145.0
20
-75.0
30
0.0
11
144.31851652578138
21
-69.82361909794957
31
3.0
12
144.31851652578138
22
-69.82361909794957
32
0.0
13
144.31851652578138
23
-69.82361909794957
33
0.0
70
1
  0
3DFACE
 8
d3
10
235.44197759641077
20
-149.93114361773826
30
3.0
11
234.67834861541624
21
-150.0
31
0.0
12
235.44197759641077
22
-149.93114361773826
32
0.0
13
235.44197759641077
23
-149.93114361773826
33
0.0
70
1
  0
3DFACE
 8
d3
10
234.67834861541624
20
-150.0
30
0.0
11
235.44197759641077
21
-149.93114361773826
31
3.0
12
234.67834861541624
22
-150.0
32
3.0
13
234.67834861541624
23
-150.0
33
3.0
70
1
  0
3DFACE
 8
d3
10
125.0
20
-95.0
30
3.0
11
130.1763809020504
21
-94.31851652578138
31
0.0
12
125.0
22
-95.0
32
0.0
13
125.0
23
-95.0
33
0.0
70
1
  0
3DFACE
 8
d3
10
130.1763809020504
20
-94.31851652578138
30
0.0
11
125.0
21
-95.0
31
3.0
12
130.1763809020504
22
-94.31851652578138
32
3.0
13
130.1763809020504
23
-94.31851652578138
33
3.0
70
1
  0
3DFACE
 8
d3
10
119.82361909794959
20
-55.68148347421862
30
3.0
11
114.99999999999999
21
-57.679491924311215
31
0.0
12
119.82361909794959
22
-55.68148347421862
32
0.0
13
119.82361909794959
23
-55.68148347421862
33
0.0
70
1
  0
3DFACE
 8
d3
10
114.99999999999999
20
-57.679491924311215
30
0.0
11
119.82361909794959
21
-55.68148347421862
31
3.0
12
114.99999999999999
22
-57.679491924311215
32
3.0
13
114.99999999999999
23
-57.679491924311215
33
3.0
70
1
  0
3DFACE
 8
d3
10
20.0
20
0.0
30
0.0
11
15.321651384583719
21
0.0
31
0.0
12
17.276345468910645
22
0.17625465563119533
32
0.0
13
17.276345468910645
23
0.17625465563119533
33
0.0
70
0
  0
3DFACE
 8
d3
10
0.0
20
-134.33546184353017
30
0.0
11
-0.15572750294303148
21
-132.7177639262809
31
0.0
12
0.0
22
-130.0
32
0.0
13
0.0
23
-130.0
33
0.0
70
0
  0
3DFACE
 8
d3
10
0.0
20
-134.67834861541627
30
0.0
11
-0.15572750294303148
21
-132.7177639262809
31
0.0
12
0.0
22
-134.33546184353017
32
0.0
13
0.0
23
-134.33546184353017
33
0.0
70
0
  0
3DFACE
 8
d3
10
0.0
20
-20.000000000000007
30
0.0
11
-0.17625465563118686
21
-17.276345468910655
31
0.0
12
0.0
22
-15.32165138458372
32
0.0
13
0.0
23
-15.32165138458372
33
0.0
70
0
  0
3DFACE
 8
d3
10
20.0
20
-150.0
30
0.0
11
17.282236073719098
21
-150.15572750294302
31
0.0
12
15.66453815646985
22
-150.0
32
0.0
13
15.66453815646985
23
-150.0
33
0.0
70
0
  0
3DFACE
 8
d3
10
250.17625465563123
20
-17.276345468910655
30
0.0
11
250.0
21
-20.000000000000007
31
0.0
12
250.0
22
-15.321651384583427
32
0.0
13
250.0
23
-15.321651384583427
33
0.0
70
0
  0
3DFACE
 8
d3
10
234.67834861541624
20
0.0
30
0.0
11
229.99999999999997
21
0.0
31
0.0
12
232.72365453108935
22
0.17625465563119533
32
0.0
13
232.72365453108935
23
0.17625465563119533
33
0.0
70
0
  0
3DFACE
 8
d3
10
234.67834861541624
20
-150.0
30
0.0
11
232.72365453108935
21
-150.1762546556312
31
0.0
12
229.99999999999997
22
-150.0
32
0.0
13
229.99999999999997
23
-150.0
33
0.0
70
0
  0
3DFACE
 8
d3
10
250.17625465563123
20
-132.72365453108935
30
0.0
11
250.0
21
-134.67834861541655
31
0.0
12
250.0
22
-130.0
32
0.0
13
250.0
23
-130.0
33
0.0
70
0
 0
ENDSEC
 0
EOF
