<?xml version="1.0" encoding="UTF-8" standalone="no"?>
<!-- Created with Inkscape (http://www.inkscape.org/) -->

<svg
   xmlns:dc="http://purl.org/dc/elements/1.1/"
   xmlns:cc="http://creativecommons.org/ns#"
   xmlns:rdf="http://www.w3.org/1999/02/22-rdf-syntax-ns#"
   xmlns:svg="http://www.w3.org/2000/svg"
   xmlns="http://www.w3.org/2000/svg"
   xmlns:sodipodi="http://sodipodi.sourceforge.net/DTD/sodipodi-0.dtd"
   xmlns:inkscape="http://www.inkscape.org/namespaces/inkscape"
   width="210mm"
   height="297mm"
   viewBox="0 0 744.09448819 1052.3622047"
   id="svg2"
   version="1.1"
   inkscape:version="0.91 r13725"
   sodipodi:docname="icons.svg">
  <defs
     id="defs4" />
  <sodipodi:namedview
     id="base"
     pagecolor="#ffffff"
     bordercolor="#666666"
     borderopacity="1.0"
     inkscape:pageopacity="1"
     inkscape:pageshadow="2"
     inkscape:zoom="0.61349735"
     inkscape:cx="-420.9054"
     inkscape:cy="516.42517"
     inkscape:document-units="px"
     inkscape:current-layer="layer1"
     showgrid="false"
     inkscape:window-width="1366"
     inkscape:window-height="705"
     inkscape:window-x="-8"
     inkscape:window-y="248"
     inkscape:window-maximized="1"
     showborder="false" />
  <metadata
     id="metadata7">
    <rdf:RDF>
      <cc:Work
         rdf:about="">
        <dc:format>image/svg+xml</dc:format>
        <dc:type
           rdf:resource="http://purl.org/dc/dcmitype/StillImage" />
        <dc:title></dc:title>
      </cc:Work>
    </rdf:RDF>
  </metadata>
  <g
     inkscape:label="Layer 1"
     inkscape:groupmode="layer"
     id="layer1">
    <path
       style="fill:#24b68f;fill-opacity:1"
       d="m 8.8615384,1052.2799 c -4.1898028,-0.5265 -7.1359585,-3.7164 -8.48337858,-9.1845 C 0.02020009,1041.6427 0,1038.9311 0,992.33282 0,945.73461 0.02019165,943.02302 0.37815982,941.5703 1.8817224,935.46843 5.1948892,932.36222 10.19977,932.36222 c 2.328105,0 4.15515,0.4438 6.257373,1.51996 1.99424,1.02087 72.695184,46.68656 74.162637,47.90158 1.989909,1.64764 3.542121,3.65216 4.498402,5.80918 L 96,989.58207 l 0,2.75075 0,2.75088 -0.881818,1.98917 c -0.956637,2.15774 -2.510096,4.16343 -4.498402,5.80803 -1.464057,1.211 -72.158575,46.8762 -74.160569,47.9042 -2.450887,1.2583 -5.190322,1.7974 -7.5976726,1.4948 z"
       id="path4147"
       inkscape:connector-curvature="0"
       inkscape:export-xdpi="90"
       inkscape:export-ydpi="90" />
    <path
       style="fill:#24b68f;fill-opacity:1"
       d="m 207.13846,1052.2799 c 4.18981,-0.5265 7.13596,-3.7164 8.48338,-9.1845 0.35796,-1.4527 0.37816,-4.1643 0.37816,-50.7626 0,-46.59821 -0.0202,-49.3098 -0.37816,-50.76252 -1.50356,-6.10187 -4.81673,-9.20808 -9.82161,-9.20808 -2.3281,0 -4.15515,0.4438 -6.25737,1.51996 -1.99424,1.02087 -72.69519,46.68656 -74.16264,47.90158 -1.98991,1.64764 -3.54212,3.65216 -4.4984,5.80918 L 120,989.58205 l 0,2.75075 0,2.75088 0.88182,1.98917 c 0.95664,2.15774 2.5101,4.16345 4.4984,5.80805 1.46406,1.211 72.15858,46.8762 74.16057,47.9042 2.45089,1.2583 5.19032,1.7974 7.59767,1.4948 z"
       id="path4147-1"
       inkscape:connector-curvature="0"
       inkscape:export-xdpi="90"
       inkscape:export-ydpi="90" />
    <path
       style="fill:#24b68f;fill-opacity:1"
       d="m 1.654627,732.98569 c -1.27549,-0.52627 -2.35934,-0.97629 -2.40855,-1.00004 -0.0492,-0.0237 -0.003,-1.25508 0.10279,-2.7363 0.27747,-3.88683 0.29121,-3.68422 -0.27617,-4.07258 -0.64057,-0.43846 -2.58421,-2.31047 -3.41509,-3.28922 l -0.66098,-0.77862 -3.06014,0.21211 c -1.68307,0.11666 -3.07291,0.19773 -3.08854,0.18014 -0.0539,-0.0606 -2.00549,-4.88085 -2.00549,-4.95325 0,-0.0399 1.04938,-0.96099 2.33196,-2.04685 l 2.33196,-1.9743 -0.0997,-0.53123 c -0.12369,-0.65932 -0.12435,-4.34458 -7.5e-4,-4.83657 0.0807,-0.32141 -0.18435,-0.59321 -2.38594,-2.44701 -1.36218,-1.147 -2.47669,-2.15689 -2.47669,-2.24421 0,-0.0873 0.43183,-1.23396 0.95963,-2.54808 l 0.95962,-2.38933 0.49915,0.0326 c 0.27453,0.018 1.73896,0.11115 3.25429,0.2071 l 2.75515,0.17445 0.30051,-0.43152 c 0.36767,-0.52796 3.18732,-3.36662 3.65068,-3.67529 l 0.33479,-0.22303 -0.22742,-3.34129 c -0.12507,-1.83771 -0.17474,-3.38953 -0.11036,-3.44849 0.18766,-0.17184 4.64561,-1.93845 4.85989,-1.92588 0.107,0.006 1.13715,1.12143 2.28921,2.47813 l 2.09465,2.46672 3.05206,0.0285 3.05207,0.0284 2.02531,-2.39437 c 1.11393,-1.3169 2.03841,-2.41434 2.0544,-2.43875 0.016,-0.0244 1.15784,0.40722 2.53743,0.95919 l 2.50834,1.00359 -0.0935,1.73393 c -0.0514,0.95366 -0.13098,2.50819 -0.17682,3.45453 l -0.0833,1.7206 0.8286,0.67328 c 0.76121,0.61853 2.30424,2.26139 2.83297,3.01625 0.21837,0.31177 0.24556,0.31297 3.18482,0.14113 1.63052,-0.0953 3.16657,-0.20358 3.41343,-0.24056 l 0.44886,-0.0672 1.00516,2.49616 c 0.88976,2.20959 0.98019,2.52375 0.78768,2.73647 -0.11961,0.13217 -1.29576,1.14502 -2.61367,2.25079 l -2.39619,2.01048 0.0842,1.6458 c 0.0463,0.90519 0.0244,2.10336 -0.0488,2.6626 l -0.13297,1.01679 2.40537,2.03376 c 1.32296,1.11857 2.42542,2.11642 2.44991,2.21746 0.0447,0.18436 -1.69794,4.69268 -1.89192,4.89453 -0.0569,0.0592 -1.54968,0.008 -3.31732,-0.11361 l -3.21389,-0.22125 -0.44049,0.56248 c -0.52985,0.67657 -2.48981,2.65056 -3.24076,3.26395 l -0.53928,0.44049 0.20851,3.05618 c 0.11467,1.6809 0.18054,3.12904 0.14637,3.21808 -0.0891,0.23217 -4.68859,2.08028 -4.93858,1.98435 -0.11477,-0.044 -1.08601,-1.11634 -2.15829,-2.38287 l -1.94959,-2.30278 -1.24927,0.13079 c -0.6871,0.0719 -1.93091,0.0912 -2.76402,0.0428 l -1.51475,-0.088 -2.07608,2.46313 c -1.14184,1.35472 -2.14341,2.46276 -2.2257,2.46232 -0.0823,-5e-4 -1.1932,-0.4314 -2.46869,-0.95767 z m 12.59284,-12.97523 c 1.63427,-0.52967 2.98677,-1.3359 4.24322,-2.52942 6.78987,-6.4497 3.13112,-17.69745 -6.17828,-18.99332 -3.98593,-0.55484 -8.29344,1.44352 -10.60581,4.9203 -1.23939,1.8635 -1.97436,4.72361 -1.77178,6.89489 0.45788,4.9077 3.68392,8.66013 8.52742,9.91883 1.52347,0.3959 4.2151,0.29761 5.78523,-0.21128 z m 41.36799,-12.90449 c -0.87075,-2.62271 -1.06546,-3.07638 -1.34383,-3.13107 -0.17905,-0.0352 -1.03249,-0.17281 -1.89653,-0.30584 -0.86405,-0.13303 -2.19248,-0.39578 -2.95208,-0.58388 l -1.38109,-0.34201 -1.8357,2.16156 c -1.00963,1.18886 -1.97035,2.32487 -2.13493,2.52447 l -0.29923,0.36291 -2.4687,-0.9987 c -1.35778,-0.54928 -2.49124,-1.01798 -2.51881,-1.04156 -0.0529,-0.0452 0.22785,-4.75325 0.35207,-5.90377 l 0.0728,-0.67462 -1.30953,-0.77005 c -0.72024,-0.42353 -2.00661,-1.26452 -2.85861,-1.86888 -0.852,-0.60435 -1.69816,-1.19328 -1.88035,-1.30872 -0.30611,-0.19396 -0.51918,-0.11161 -2.80652,1.08473 -1.36139,0.71204 -2.56975,1.29462 -2.68524,1.29462 -0.11549,0 -1.04924,-0.84127 -2.075,-1.8695 l -1.86501,-1.8695 1.33728,-2.68784 1.33729,-2.68783 -0.47821,-0.64188 c -0.94099,-1.26308 -2.54041,-3.65309 -3.15798,-4.71898 -0.34568,-0.5966 -0.70969,-1.08216 -0.80892,-1.07902 -0.0992,0.003 -1.49332,0.0965 -3.09797,0.20758 -1.60465,0.11103 -2.92387,0.19262 -2.9316,0.18131 -0.0165,-0.0241 -1.83065,-4.49291 -1.94615,-4.7939 -0.0497,-0.12955 0.79559,-0.94872 2.30575,-2.23444 l 2.38424,-2.0299 -0.34726,-1.43641 c -0.19099,-0.79003 -0.45968,-2.19029 -0.59708,-3.11168 -0.13741,-0.92138 -0.27127,-1.7538 -0.29748,-1.84981 -0.0262,-0.096 -1.38164,-0.60305 -3.01208,-1.12677 l -2.96443,-0.9522 -0.0406,-2.78718 -0.0407,-2.78719 3.00647,-1.00209 c 1.65355,-0.55115 3.02833,-1.07903 3.05506,-1.17306 0.0267,-0.094 0.16137,-0.91158 0.2992,-1.81676 0.13784,-0.90519 0.42115,-2.34439 0.6296,-3.19821 0.22416,-0.91823 0.32163,-1.59057 0.23858,-1.6458 -0.72315,-0.48096 -4.67378,-4.00393 -4.62551,-4.12479 1.34449,-3.36715 1.92695,-4.80455 1.96103,-4.83947 0.0437,-0.0447 4.191,0.21072 5.56572,0.3428 l 0.77252,0.0742 0.67926,-1.17763 c 0.77439,-1.34256 2.1517,-3.39283 2.88754,-4.2984 0.27435,-0.33764 0.49882,-0.69061 0.49882,-0.78439 0,-0.0938 -0.58841,-1.34963 -1.30759,-2.79076 l -1.30759,-2.62025 1.90523,-1.90523 1.90523,-1.90522 2.62024,1.30759 c 1.44114,0.71917 2.68953,1.30758 2.7742,1.30758 0.0847,0 0.57831,-0.32527 1.097,-0.72282 1.21206,-0.92899 3.20182,-2.23278 4.39867,-2.88222 l 0.93886,-0.50945 -0.11596,-1.79541 c -0.0638,-0.98748 -0.11596,-2.3611 -0.11596,-3.05249 l 0,-1.25708 2.31728,-0.94979 c 1.2745,-0.52238 2.39097,-0.94979 2.48104,-0.94979 0.0901,0 0.94794,0.93321 1.90638,2.0738 0.95843,1.14059 1.83502,2.15049 1.94796,2.24423 0.15608,0.12953 0.56073,0.0837 1.68626,-0.1909 0.81449,-0.19872 2.22151,-0.47293 3.12669,-0.60934 0.90519,-0.13641 1.79241,-0.27683 1.97159,-0.31204 0.27644,-0.0543 0.45728,-0.46067 1.19374,-2.68221 l 0.86795,-2.61819 2.71346,0 2.71347,0 0.84816,2.61672 c 0.72931,2.25005 0.89463,2.62571 1.1798,2.68093 0.18241,0.0353 1.07226,0.17556 1.97744,0.31166 0.90519,0.13609 2.33695,0.41616 3.18168,0.62236 0.84473,0.20621 1.59467,0.35283 1.66652,0.32582 0.0719,-0.027 0.88598,-0.9412 1.80916,-2.03155 0.92317,-1.09034 1.72383,-1.98243 1.77925,-1.98243 0.0554,0 1.17594,0.43153 2.49006,0.95895 l 2.38933,0.95895 -0.001,0.79906 c -7.5e-4,0.43948 -0.0545,1.67432 -0.11965,2.74409 l -0.11848,1.94503 1.49285,0.866 c 1.22131,0.70847 2.59089,1.63702 4.89855,3.32111 0.14599,0.10655 0.94988,-0.22467 2.89912,-1.19448 l 2.69712,-1.3419 1.90344,1.90343 1.90343,1.90344 -1.3419,2.69712 c -0.96981,1.94924 -1.30103,2.75313 -1.19448,2.89912 1.66751,2.28494 2.61166,3.67205 3.23749,4.75643 0.42194,0.73109 0.82134,1.36275 0.88755,1.40367 0.0662,0.0409 1.37045,-0.005 2.89829,-0.10216 1.527843,-0.0971 2.813863,-0.14061 2.857823,-0.0967 0.14243,0.14244 2.01987,4.80396 1.97751,4.91001 -0.0226,0.0565 -1.00047,0.92094 -2.1731,1.92096 -1.17263,1.00001 -2.132053,1.85542 -2.132053,1.90089 0,0.0455 0.162883,0.7345 0.361963,1.53117 0.31509,1.26093 0.53491,2.44586 0.90815,4.89548 l 0.0921,0.60426 2.61376,0.86649 2.61376,0.86648 -0.0407,2.78098 -0.0407,2.78098 -2.49569,0.83528 c -1.37263,0.45941 -2.53628,0.87681 -2.58589,0.92755 -0.0496,0.0507 -0.19304,0.79135 -0.31873,1.6458 -0.20942,1.42372 -0.8426,4.44393 -1.0389,4.95548 -0.0541,0.14101 0.57023,0.76621 1.832,1.8345 1.05275,0.89132 2.03612,1.73337 2.18528,1.87122 0.26023,0.24051 0.23057,0.35217 -0.73398,2.76293 l -1.00516,2.5123 -1.28587,-0.0922 c -0.70723,-0.0507 -1.992813,-0.13162 -2.856863,-0.17976 l -1.57098,-0.0875 -1.07964,1.85465 c -0.5938,1.02006 -1.51831,2.44306 -2.05448,3.16222 -0.53617,0.71917 -1.02003,1.38067 -1.07524,1.47001 -0.0552,0.0893 0.49789,1.36494 1.22912,2.83466 l 1.32951,2.67221 -1.90343,1.90344 -1.90344,1.90344 -2.6769,-1.33185 -2.67689,-1.33184 -1.32711,0.96999 c -1.46493,1.07072 -2.9652,2.05223 -4.28705,2.8047 l -0.86529,0.49258 0.0884,1.07089 c 0.22176,2.68751 0.32603,4.81969 0.24005,4.90896 -0.0747,0.0776 -2.90691,1.26274 -4.60912,1.92873 -0.28945,0.11324 -0.53577,-0.12116 -2.20714,-2.10031 -1.03473,-1.22528 -1.9317,-2.25747 -1.99327,-2.29375 -0.0616,-0.0363 -0.74676,0.0913 -1.52265,0.2835 -0.77588,0.1922 -2.12245,0.45854 -2.99235,0.59187 -0.86991,0.13333 -1.72708,0.27093 -1.90481,0.30578 -0.27659,0.0542 -0.46584,0.50536 -1.31348,3.13106 l -0.99032,3.06771 -2.72894,0 -2.72894,0 -1.01828,-3.0671 z m 6.77062,-33.3062 c 4.83419,-1.23445 8.46513,-5.4551 8.9808,-10.4394 0.60516,-5.84931 -2.92505,-11.10314 -8.67342,-12.90819 -0.96512,-0.30305 -1.42177,-0.3505 -3.36113,-0.34919 -1.92466,10e-4 -2.40407,0.0511 -3.3664,0.34941 -3.91252,1.21298 -7.01394,4.29347 -8.23285,8.1773 -0.44442,1.41604 -0.56768,4.34479 -0.24644,5.85531 1.26577,5.95178 6.56513,10.04818 12.51897,9.67714 0.69946,-0.0436 1.77067,-0.20666 2.38047,-0.36238 z"
       id="path4190"
       inkscape:connector-curvature="0"
       inkscape:export-xdpi="90"
       inkscape:export-ydpi="90" />
    <path
       style="fill:#24b68f;fill-opacity:1"
       d="m 347.75022,832.45568 c -1.88322,-0.39228 -4.03771,-1.92266 -5.07994,-3.60844 -0.90777,-1.46827 -0.95251,-1.70991 -1.12734,-6.08741 -0.15187,-3.80269 -0.29224,-4.77218 -0.84671,-5.84764 -1.27872,-2.48031 -3.60443,-3.86865 -6.48062,-3.86865 -2.29741,0 -3.23668,0.51944 -6.28771,3.4774 -3.03512,2.94252 -4.71145,3.7905 -7.49327,3.7905 -2.97397,0 -4.05569,-0.69428 -9.2436,-5.93283 -4.10779,-4.14786 -4.62359,-4.79 -5.0727,-6.31523 -0.6226,-2.11441 -0.62275,-2.62038 -0.002,-4.71247 0.41158,-1.38597 0.97529,-2.17234 3.23392,-4.51126 1.50449,-1.55799 2.95614,-3.25958 3.22589,-3.78131 1.64959,-3.19047 0.40604,-7.22534 -2.80937,-9.1154 -1.39723,-0.82137 -1.77891,-0.88789 -6.02442,-1.05002 -5.02879,-0.19204 -6.11707,-0.53542 -8.03355,-2.53474 -1.81715,-1.89572 -1.96958,-2.66593 -1.96958,-9.95238 0,-7.28645 0.15243,-8.05667 1.96958,-9.95238 1.91648,-1.99933 3.00476,-2.3427 8.03355,-2.53475 4.24551,-0.16212 4.62719,-0.22865 6.02451,-1.05002 3.21331,-1.88882 4.45898,-5.92527 2.81166,-9.11084 -0.2685,-0.51922 -1.66728,-2.1697 -3.10841,-3.66773 -3.60362,-3.74593 -4.36502,-5.82533 -3.37998,-9.23078 0.48161,-1.66501 0.87495,-2.16407 4.9429,-6.27145 5.17196,-5.2221 6.43358,-6.01319 9.57284,-6.00268 2.81028,0.009 4.27336,0.75034 7.32631,3.7101 2.99565,2.90421 4.08681,3.52165 6.24504,3.53378 2.1906,0.0123 4.0437,-0.80943 5.46399,-2.42296 1.56522,-1.77819 1.9255,-3.12016 1.9255,-7.17226 0,-4.09035 0.35827,-5.3918 1.99666,-7.25311 2.13006,-2.41988 2.77198,-2.57895 10.43915,-2.58687 7.30909,-0.008 7.84664,0.0947 9.87794,1.87817 2.08549,1.83109 2.47264,2.99811 2.69307,8.1181 0.21355,4.95988 0.43507,5.6904 2.24068,7.38921 1.57765,1.48433 3.01164,2.0897 4.95009,2.0897 2.28836,0 3.38675,-0.60908 6.44477,-3.57376 1.39551,-1.35292 3.15388,-2.73961 3.90747,-3.08154 1.86197,-0.84483 4.95415,-0.83933 6.83124,0.0121 1.84235,0.83571 9.77189,8.66108 10.68251,10.54217 0.8045,1.66187 0.88175,4.68394 0.16356,6.39861 -0.27113,0.64732 -1.82574,2.5697 -3.45468,4.27195 -3.05472,3.19219 -3.62883,4.23498 -3.62601,6.58613 0.002,1.56261 1.28398,4.10483 2.62954,5.21395 1.61819,1.33385 3.01262,1.6622 7.09246,1.67007 4.89433,0.009 6.91718,0.93636 8.51245,3.90061 0.61713,1.14671 0.68122,1.79815 0.77293,7.85668 0.061,4.02939 -0.0301,7.08944 -0.23352,7.84492 -0.53293,1.97912 -2.0403,3.78498 -3.87074,4.63722 -1.41489,0.65877 -2.07788,0.75582 -5.18112,0.75848 -4.15182,0.004 -5.52972,0.3429 -7.20091,1.77337 -2.31104,1.97817 -3.14926,5.19798 -2.04268,7.8464 0.26577,0.63608 1.67019,2.36949 3.12093,3.85202 3.07871,3.14618 3.88164,4.65984 3.89135,7.3358 0.0106,2.92867 -0.87167,4.33889 -5.69104,9.09648 -4.74011,4.67931 -6.08084,5.51979 -8.8379,5.54029 -2.94887,0.0219 -4.05076,-0.52735 -7.24731,-3.61303 -3.19449,-3.08369 -4.31522,-3.69763 -6.73141,-3.6876 -1.98856,0.008 -3.78886,0.78447 -5.15207,2.22132 -1.60247,1.689 -1.96958,2.95093 -1.96958,6.77038 0,4.19731 -0.51001,6.05733 -2.18162,7.9564 -1.9889,2.25948 -2.97083,2.52466 -9.6971,2.61866 -3.18068,0.0444 -6.3064,-0.0281 -6.94604,-0.16146 z m 11.63501,-35.8658 c 3.0232,-0.60838 8.0202,-3.03692 10.53526,-5.12017 3.54129,-2.93325 6.44579,-7.38588 7.95678,-12.19777 0.62761,-1.99868 0.73273,-2.9838 0.73273,-6.86614 0,-4.99297 -0.48665,-7.23561 -2.40571,-11.08621 -6.03621,-12.11168 -20.90772,-17.09643 -33.21358,-11.13277 -5.77988,2.80105 -10.3731,8.08954 -12.52753,14.42384 -3.70547,10.89453 0.87482,23.15784 10.87599,29.11948 5.45117,3.24943 11.41394,4.19435 18.04606,2.85974 z"
       id="path4203"
       inkscape:connector-curvature="0"
       inkscape:export-xdpi="90"
       inkscape:export-ydpi="90" />
    <path
       style="fill:#24b68f;fill-opacity:1"
       d="m 544.11652,774.7918 c -2.4109,-0.94136 -5.93278,-2.1822 -7.8264,-2.75743 -1.89362,-0.57524 -4.04985,-1.77552 -4.79162,-2.66732 -0.74175,-0.89179 -2.06654,-1.62143 -2.94398,-1.62143 -1.77893,0 -18.95774,-16.89697 -18.95774,-18.64671 0,-0.61161 -0.85116,-2.40819 -1.89148,-3.99239 -3.20057,-4.87386 -6.87543,-16.8246 -6.87543,-22.35912 0,-5.72809 -0.42404,-5.40533 9.1187,-6.94095 2.30302,-0.37062 4.8184,-0.91547 5.58974,-1.2108 1.01692,-0.38936 1.59368,1.50672 2.09823,6.89786 1.32043,14.1088 10.27324,26.92193 23.97616,34.31435 6.6941,3.61131 7.24076,3.71553 19.48972,3.71553 12.30485,0 12.77065,-0.0901 19.72556,-3.81627 9.11603,-4.88399 15.38883,-11.1418 19.90205,-19.85452 3.4346,-6.63044 3.58766,-7.45671 3.61204,-19.49832 0.0248,-12.21993 -0.0785,-12.76635 -3.66236,-19.37913 -4.58343,-8.45721 -13.48853,-16.99292 -21.7666,-20.8637 -5.62693,-2.63112 -7.54013,-2.94204 -17.81069,-2.89447 -10.14352,0.047 -12.22056,0.39704 -17.53383,2.95513 -3.31499,1.59602 -7.17606,3.81789 -8.58016,4.9375 l -2.55291,2.03565 5.15023,4.30338 c 2.83262,2.36687 6.15973,5.10564 7.39357,6.08616 2.17391,1.72759 2.05959,1.83249 -3.69319,3.38926 -15.53301,4.20342 -37.23726,8.79193 -37.99775,8.03314 -0.66601,-0.66455 1.78295,-42.40393 2.5318,-43.15112 0.25819,-0.25761 3.40013,2.075 6.9821,5.18357 3.58196,3.10859 6.79087,5.20283 7.1309,4.65386 1.39219,-2.24762 13.59364,-9.45622 20.82811,-12.30521 6.78765,-2.67302 9.2303,-3.05218 19.87612,-3.0852 10.28706,-0.0319 13.37779,0.39333 20.2735,2.78919 4.47483,1.55474 8.91459,3.52291 9.86614,4.37373 0.95155,0.8508 2.29152,1.54691 2.97773,1.54691 1.77688,0 17.05547,15.27309 19.16994,19.16303 7.13196,13.12052 7.90232,16.26234 7.90232,32.22832 0,15.50616 -0.29025,16.84324 -6.40294,29.49516 -3.05771,6.32881 -17.45334,20.68011 -23.76092,23.68775 -13.14279,6.26687 -13.23713,6.28929 -27.91696,6.63279 -10.95414,0.2563 -15.25919,-0.0624 -18.6297,-1.37818 z"
       id="path4216"
       inkscape:connector-curvature="0"
       inkscape:export-xdpi="90"
       inkscape:export-ydpi="90" />
    <path
       style="fill:#24b68f;fill-opacity:1;stroke:#000000;stroke-width:0.19247742;stroke-opacity:1"
       d="m -164.03551,500.03046 c -39.3507,-38.92899 -51.11071,-50.6678 -51.20242,-51.11017 -0.0655,-0.31585 -0.1509,-0.73144 -0.18982,-0.92354 -0.18165,-0.89644 1.05895,-4.01581 2.29383,-5.76767 1.02267,-1.45078 3.14545,-3.82285 4.54562,-5.07942 2.24574,-2.01542 3.59187,-2.96525 5.54421,-3.91194 1.85636,-0.90017 3.12882,-1.19004 4.30489,-0.98069 0.65203,0.11607 6.00494,5.34834 51.86937,50.70037 28.12826,27.81403 51.111153,50.65739 51.073097,50.76302 -0.03806,0.10564 0.0054,0.39145 0.09652,0.63515 0.242353,0.64799 -0.271778,2.82874 -1.006497,4.26919 -1.428652,2.80094 -4.78998,6.61615 -7.78785,8.83945 -1.99679,1.48087 -2.8782,1.99716 -4.51902,2.647 -1.19081,0.47162 -1.67268,0.56368 -2.69437,0.51475 l -1.2442,-0.0595 -51.08336,-50.5359 z m -27.89722,-34.09681 c 4.21113,-2.38043 8.59734,-6.68484 10.48214,-10.28667 l 0.66322,-1.26741 -7.53231,-7.45285 -7.53231,-7.45284 -0.47853,0.89472 c -2.13031,3.98305 -7.05914,8.82602 -11.01977,10.82783 -0.34594,0.17485 -0.62899,0.37775 -0.62899,0.45088 0,0.20296 14.77323,14.78826 14.97881,14.78826 0.0989,0 0.57938,-0.22586 1.06774,-0.50192 z m 63.40148,13.18375 c -0.48146,-0.60538 -1.35289,-1.78981 -1.93652,-2.63208 -0.58361,-0.84226 -1.34493,-1.92514 -1.6918,-2.40638 -0.34688,-0.48125 -1.23257,-1.73029 -1.96821,-2.77565 -1.76082,-2.50217 -2.30719,-3.06185 -3.69443,-3.78436 l -1.16122,-0.6048 -7.47854,0 c -7.17773,0 -7.49558,-0.0152 -7.90203,-0.37845 -0.80451,-0.71895 -0.48648,-1.31823 3.37779,-6.3651 4.87914,-6.37233 5.02277,-6.60498 5.24148,-8.48978 0.1589,-1.36943 -0.0551,-2.1716 -2.41062,-9.03681 -1.07604,-3.13613 -1.95644,-5.91218 -1.95644,-6.16902 0,-0.68807 0.75073,-1.10737 1.67744,-0.93689 0.40797,0.0751 3.52639,1.0709 6.92984,2.21301 6.58086,2.20837 7.12429,2.31717 8.90503,1.78293 1.11496,-0.33451 1.73045,-0.71334 4.64764,-2.86069 8.24172,-6.06671 7.90907,-5.8426 8.67273,-5.8426 0.99609,0 1.00411,0.0641 1.00411,8.02255 l 0,7.38707 0.53791,1.08339 c 0.61407,1.2368 1.54126,2.21242 3.16843,3.33393 0.62265,0.42914 2.16153,1.5059 3.41974,2.3928 1.25823,0.88689 2.47751,1.7391 2.70952,1.89378 1.62317,1.0822 3.26311,2.36924 3.52759,2.76849 0.42759,0.64547 0.20874,1.18902 -0.65223,1.61985 -0.39142,0.19588 -3.38509,1.18096 -6.65259,2.18906 -3.26749,1.0081 -6.28902,2.00857 -6.7145,2.22326 -0.93499,0.4718 -2.06532,1.58695 -2.53326,2.49924 -0.18901,0.36848 -0.75413,1.96209 -1.25584,3.54134 -0.5017,1.57924 -1.39087,4.37882 -1.97592,6.22127 -0.58504,1.84246 -1.18878,3.54374 -1.34163,3.78062 -0.20055,0.3108 -0.46447,0.43071 -0.94801,0.43071 -0.58523,0 -0.78092,-0.13937 -1.54546,-1.10069 z"
       id="path4242"
       inkscape:connector-curvature="0"
       inkscape:export-xdpi="90.800003"
       inkscape:export-ydpi="90.800003" />
    <path
       style="fill:#24b68f;fill-opacity:1"
       d="m -582.84796,478.23262 c -0.12169,-0.20904 0.18656,-3.10625 0.68499,-6.43825 0.49843,-3.33199 0.83511,-6.132 0.74817,-6.22223 -0.0869,-0.0902 -1.94765,-1.06225 -4.13491,-2.16003 -13.57128,-6.81145 -24.00843,-19.46136 -28.07564,-34.02794 -1.40681,-5.03842 -2.26251,-10.83295 -2.25841,-15.29318 0.003,-3.4302 1.22546,-12.66811 1.82071,-13.76051 0.28699,-0.52666 1.73235,0.1019 6.23285,2.71059 l 5.85923,3.39626 0.0202,6.82237 c 0.0228,7.72946 0.77586,11.58578 3.44377,17.63674 3.2546,7.3816 9.19503,14.26803 15.85108,18.37532 1.76118,1.08678 3.31505,1.97597 3.45303,1.97597 0.13799,0 0.53679,-2.16123 0.88622,-4.80273 0.34944,-2.64151 0.91122,-5.1943 1.2484,-5.67289 0.57164,-0.81137 0.69126,-0.81367 1.77085,-0.034 0.63679,0.45985 5.77195,5.50941 11.41145,11.22125 10.19241,10.32313 10.24782,10.39098 9.27712,11.35979 -1.07418,1.07206 -26.6346,15.29359 -27.48727,15.29359 -0.29182,0 -0.63014,-0.17103 -0.75183,-0.38007 z m 35.80727,-17.87914 c 0,-6.31983 0.095,-7.14388 0.85447,-7.41046 2.7644,-0.97036 8.16316,-4.08889 11.11285,-6.41921 9.2406,-7.30027 15.37575,-19.72472 15.37575,-31.13785 0,-3.22586 -0.15039,-4.21628 -0.61034,-4.01957 -0.33568,0.14357 -2.76469,1.19987 -5.39779,2.34733 -4.70314,2.04955 -5.71033,2.18963 -5.71033,0.79417 0,-0.97552 6.69627,-29.50806 7.07413,-30.14262 0.16915,-0.28404 0.5328,-0.51644 0.80813,-0.51644 0.6811,0 26.35935,14.60092 27.25219,15.49587 1.03231,1.03476 0.30993,1.59033 -5.22347,4.01726 -3.88118,1.70227 -4.74099,2.27187 -4.63503,3.07055 0.50521,3.80805 0.0503,14.64705 -0.78562,18.71715 -3.27801,15.96137 -13.67509,30.08407 -27.66408,37.57704 -3.94625,2.11375 -10.45214,4.7373 -11.74756,4.7373 -0.57881,0 -0.7033,-1.25865 -0.7033,-7.11052 z m -58.53187,-65.02702 c -0.40258,-0.50344 -0.41238,-4.55957 -0.0371,-15.32945 0.48151,-13.81689 0.82276,-16.92528 1.85813,-16.92528 0.24069,0 2.36025,1.59629 4.71013,3.54731 2.34988,1.95102 4.3328,3.54731 4.40647,3.54731 0.0737,0 1.30957,-0.83114 2.74644,-1.84699 1.43686,-1.01583 4.58997,-2.82606 7.0069,-4.02273 14.74038,-7.29819 31.41835,-7.57817 46.60617,-0.78239 4.33109,1.93794 10.81654,6.16221 14.35023,9.34695 l 1.87584,1.69061 -6.21133,3.67384 -6.21133,3.67385 -2.10118,-1.5661 c -3.16928,-2.36218 -9.74632,-5.46519 -14.12957,-6.66625 -9.73186,-2.66663 -22.97763,-0.69836 -31.32261,4.65443 l -1.63496,1.04872 4.02792,3.35202 c 2.21536,1.84361 4.19245,3.59242 4.39352,3.88624 0.78588,1.14835 0.0266,2.01407 -2.31924,2.64419 -3.43117,0.92167 -26.9511,6.7583 -27.23399,6.7583 -0.12819,0 -0.47941,-0.30806 -0.78049,-0.68458 z"
       id="path4255"
       inkscape:connector-curvature="0" />
  </g>
</svg>
